<?xml version="1.0" encoding="UTF-8" standalone="no"?>
<!-- Created with Inkscape (http://www.inkscape.org/) -->

<svg
   version="1.1"
   id="svg824"
   xml:space="preserve"
   width="1056"
   height="816"
   viewBox="0 0 1056 816"
   xmlns="http://www.w3.org/2000/svg"
   xmlns:svg="http://www.w3.org/2000/svg"><defs
     id="defs828"><clipPath
       clipPathUnits="userSpaceOnUse"
       id="clipPath838"><path
         d="m 115.92,251.64 h 559.8 v 69.48 h -559.8 z"
         clip-rule="evenodd"
         id="path836" /></clipPath></defs><g
     id="g830"
     transform="matrix(1.3333333,0,0,-1.3333333,0,816)"><g
       id="g832"><g
         id="g834"
         clip-path="url(#clipPath838)"><path
           d="M 173.303,321.038 675.525,320.895 115.92,251.64 Z"
           style="fill:#0e4d91;fill-opacity:1;fill-rule:evenodd;stroke:none"
           id="path840" /></g></g><path
       d="m 206.385,348.285 -7.98,-11.82 h 9.24 z m -30,-23.047 25.545,32.992 h 14.947 l 6.293,-32.992 h -14.55 l -0.45,4.357 h -14.55 l -2.94,-4.357 z"
       style="fill:#ec2027;fill-opacity:1;fill-rule:nonzero;stroke:none"
       id="path842" /><path
       d="m 243.24,332.933 h 3.098 c 3.472,0 6.315,0.719 8.527,2.159 2.205,1.433 3.78,3.675 4.71,6.735 1.012,3.361 0.9,5.656 -0.345,6.87 -1.245,1.223 -3.878,1.838 -7.905,1.838 h -2.797 z m -16.92,-7.695 9.817,32.992 h 19.688 c 7.432,0 12.802,-1.305 16.095,-3.922 3.285,-2.603 4.118,-6.578 2.49,-11.88 -0.937,-3.068 -2.287,-5.678 -4.05,-7.868 -1.762,-2.183 -3.885,-3.96 -6.367,-5.332 -2.483,-1.373 -5.265,-2.386 -8.356,-3.031 -3.082,-0.637 -6.457,-0.959 -10.132,-0.959 z"
       style="fill:#ec2027;fill-opacity:1;fill-rule:nonzero;stroke:none"
       id="path844" /><path
       d="m 275.7,358.23 h 14.827 l 1.043,-21.945 14.97,21.945 h 14.828 l -25.853,-32.992 h -14.67 z"
       style="fill:#ec2027;fill-opacity:1;fill-rule:nonzero;stroke:none"
       id="path846" /><path
       d="m 329.798,348.285 -8.273,-11.82 h 9.24 z m -30.57,-23.047 26.385,32.992 h 14.947 l 5.452,-32.992 h -14.55 l -0.337,4.357 h -14.558 l -3.045,-4.357 z"
       style="fill:#ec2027;fill-opacity:1;fill-rule:nonzero;stroke:none"
       id="path848" /><path
       d="m 382.373,340.223 1.904,7.507 3.451,10.5 h 14.077 l -10.928,-32.992 h -13.672 l -10.073,17.962 -1.882,-7.508 -3.405,-10.454 h -13.98 l 10.642,32.992 h 13.763 z"
       style="fill:#ec2027;fill-opacity:1;fill-rule:nonzero;stroke:none"
       id="path850" /><path
       d="m 431.055,345.623 c 0.383,1.717 0.015,3.045 -1.072,3.99 -1.096,0.945 -2.776,1.425 -5.055,1.425 -2.618,0 -4.921,-0.818 -6.923,-2.453 -1.995,-1.643 -3.525,-4.027 -4.575,-7.17 -0.428,-1.283 -0.69,-2.445 -0.795,-3.487 -0.097,-1.036 0.023,-1.973 0.36,-2.813 0.337,-0.84 1.02,-1.5 2.032,-1.973 1.028,-0.472 2.415,-0.704 4.193,-0.704 2.235,0 4.14,0.502 5.73,1.529 1.583,1.021 2.805,2.378 3.668,4.058 h 14.077 c -2.108,-4.253 -5.483,-7.583 -10.132,-10.013 -4.635,-2.437 -9.916,-3.644 -15.811,-3.644 -3.629,0 -6.772,0.397 -9.435,1.192 -2.662,0.795 -4.769,1.95 -6.329,3.48 -1.553,1.53 -2.513,3.368 -2.865,5.52 -0.368,2.152 -0.106,4.567 0.772,7.215 0.877,2.633 2.235,5.01 4.088,7.155 1.844,2.137 4.042,3.975 6.592,5.498 2.535,1.529 5.295,2.685 8.288,3.48 2.985,0.794 6.037,1.199 9.157,1.199 6.765,0 11.677,-1.177 14.73,-3.509 3.045,-2.333 4.118,-5.663 3.225,-9.975 z"
       style="fill:#ec2027;fill-opacity:1;fill-rule:nonzero;stroke:none"
       id="path852" /><path
       d="m 441.803,325.238 11.279,32.992 h 36.57 l -2.692,-7.695 H 465.127 L 463.5,345.81 h 18.457 l -2.685,-7.695 h -18.427 l -1.785,-5.182 h 22.628 l -2.693,-7.695 z"
       style="fill:#ec2027;fill-opacity:1;fill-rule:nonzero;stroke:none"
       id="path854" /><path
       d="m 500.033,332.933 h 3.097 c 3.473,0 6.353,0.719 8.632,2.159 2.296,1.433 3.983,3.675 5.07,6.735 1.201,3.361 1.208,5.656 0.015,6.87 -1.177,1.223 -3.78,1.838 -7.799,1.838 h -2.805 z m -17.318,-7.695 11.542,32.992 h 19.688 c 7.433,0 12.735,-1.305 15.885,-3.922 3.157,-2.603 3.772,-6.578 1.867,-11.88 -1.095,-3.068 -2.58,-5.678 -4.462,-7.868 -1.883,-2.183 -4.095,-3.96 -6.653,-5.332 -2.549,-1.373 -5.392,-2.386 -8.512,-3.031 -3.113,-0.637 -6.51,-0.959 -10.185,-0.959 z"
       style="fill:#ec2027;fill-opacity:1;fill-rule:nonzero;stroke:none"
       id="path856" /><path
       d="m 468.93,269.04 c 0.045,0.578 -0.18,0.998 -0.682,1.245 -0.435,0.225 -1.005,0.33 -1.703,0.33 -1.478,0 -2.295,-0.345 -2.475,-1.043 -0.113,-0.472 0.113,-0.839 0.705,-1.102 0.585,-0.263 1.56,-0.54 2.917,-0.833 1.163,-0.262 2.123,-0.517 2.873,-0.742 0.757,-0.225 1.462,-0.555 2.13,-0.975 0.675,-0.405 1.155,-0.937 1.47,-1.605 0.308,-0.668 0.337,-1.478 0.09,-2.438 -0.525,-2.047 -1.822,-3.615 -3.885,-4.694 -2.062,-1.073 -4.59,-1.606 -7.59,-1.606 -1.342,0 -2.542,0.158 -3.6,0.481 -1.065,0.322 -1.928,0.772 -2.61,1.327 -0.675,0.57 -1.147,1.23 -1.418,1.957 -0.277,0.735 -0.33,1.523 -0.164,2.355 h 6.622 c -0.03,-0.644 0.232,-1.125 0.78,-1.447 0.487,-0.308 1.103,-0.457 1.845,-0.457 0.878,0 1.597,0.112 2.175,0.359 0.578,0.233 0.93,0.571 1.035,0.99 0.12,0.473 -0.105,0.841 -0.675,1.088 -0.57,0.255 -1.53,0.525 -2.888,0.818 -1.162,0.255 -2.122,0.487 -2.894,0.712 -0.758,0.24 -1.478,0.562 -2.153,0.983 -0.675,0.427 -1.17,0.99 -1.47,1.68 -0.307,0.69 -0.33,1.544 -0.075,2.572 0.472,1.868 1.665,3.322 3.607,4.327 1.943,1.005 4.291,1.515 7.036,1.515 1.425,0 2.654,-0.149 3.667,-0.45 1.013,-0.292 1.823,-0.704 2.422,-1.229 0.608,-0.526 1.028,-1.141 1.261,-1.845 0.247,-0.698 0.315,-1.463 0.224,-2.273 z"
       style="fill:#ec2027;fill-opacity:1;fill-rule:nonzero;stroke:none"
       id="path858" /><path
       d="m 474.803,256.058 3.427,13.312 h 6.12 l -3.465,-13.312 z m 4.844,18.779 h 6.12 l -0.974,-3.765 h -6.113 z"
       style="fill:#ec2027;fill-opacity:1;fill-rule:nonzero;stroke:none"
       id="path860" /><path
       d="m 486.877,269.37 h 5.58 l -0.547,-2.085 c 0.938,0.833 1.867,1.448 2.79,1.86 0.915,0.398 1.942,0.607 3.06,0.607 1.995,0 3.36,-0.487 4.088,-1.454 0.719,-0.983 0.84,-2.401 0.337,-4.26 l -2.13,-7.98 h -6.082 l 1.867,7.042 c 0.203,0.758 0.21,1.365 0.015,1.808 -0.195,0.457 -0.697,0.674 -1.492,0.674 -0.885,0 -1.553,-0.224 -2.026,-0.682 -0.472,-0.458 -0.832,-1.148 -1.08,-2.063 l -1.784,-6.779 h -6.076 z"
       style="fill:#ec2027;fill-opacity:1;fill-rule:nonzero;stroke:none"
       id="path862" /><path
       d="m 514.898,264.285 c 0.135,0.578 0.044,1.035 -0.278,1.38 -0.27,0.352 -0.758,0.532 -1.44,0.532 -0.547,0 -1.02,-0.12 -1.432,-0.337 -0.421,-0.218 -0.773,-0.502 -1.058,-0.855 -0.3,-0.36 -0.525,-0.743 -0.712,-1.147 -0.173,-0.413 -0.323,-0.841 -0.443,-1.291 -0.278,-1.042 -0.278,-1.844 0.008,-2.444 0.292,-0.593 0.877,-0.893 1.747,-0.893 0.75,0 1.35,0.188 1.822,0.547 0.465,0.368 0.833,0.848 1.095,1.44 h 6.15 c -0.382,-0.967 -0.922,-1.807 -1.62,-2.527 -0.689,-0.728 -1.5,-1.313 -2.429,-1.77 -0.848,-0.427 -1.793,-0.735 -2.813,-0.945 -1.02,-0.195 -2.07,-0.3 -3.165,-0.3 -1.253,0 -2.363,0.157 -3.337,0.457 -0.983,0.308 -1.786,0.75 -2.416,1.335 -0.644,0.586 -1.065,1.313 -1.26,2.175 -0.209,0.856 -0.172,1.846 0.128,2.948 0.3,1.11 0.78,2.115 1.455,3.008 0.66,0.885 1.477,1.65 2.422,2.257 0.953,0.623 2.003,1.095 3.166,1.41 1.162,0.322 2.392,0.487 3.66,0.487 1.057,0 2.04,-0.105 2.947,-0.307 0.9,-0.195 1.68,-0.517 2.333,-0.967 0.652,-0.435 1.132,-1.005 1.439,-1.718 0.301,-0.697 0.375,-1.53 0.218,-2.475 z"
       style="fill:#ec2027;fill-opacity:1;fill-rule:nonzero;stroke:none"
       id="path864" /><path
       d="m 534.315,264.21 c 0.172,0.615 0.052,1.155 -0.36,1.62 -0.405,0.458 -0.975,0.697 -1.702,0.697 -0.901,0 -1.651,-0.21 -2.266,-0.614 -0.607,-0.406 -1.012,-0.968 -1.222,-1.703 z m -6.292,-2.693 c -0.21,-0.765 -0.09,-1.387 0.375,-1.875 0.457,-0.495 1.094,-0.742 1.912,-0.742 0.51,0 0.99,0.098 1.448,0.3 0.457,0.187 0.839,0.48 1.162,0.87 h 5.827 c -0.479,-0.795 -1.079,-1.478 -1.8,-2.048 -0.727,-0.562 -1.529,-1.02 -2.399,-1.349 -0.878,-0.346 -1.785,-0.601 -2.716,-0.758 -0.929,-0.158 -1.86,-0.24 -2.797,-0.24 -1.23,0 -2.333,0.157 -3.308,0.457 -0.974,0.308 -1.785,0.758 -2.407,1.351 -0.63,0.584 -1.035,1.32 -1.238,2.175 -0.202,0.869 -0.157,1.852 0.135,2.932 0.301,1.057 0.788,2.04 1.471,2.932 0.697,0.893 1.514,1.651 2.49,2.281 0.96,0.637 2.017,1.125 3.164,1.454 1.155,0.33 2.348,0.495 3.578,0.495 1.395,0 2.588,-0.202 3.593,-0.584 1.012,-0.391 1.807,-0.953 2.4,-1.68 0.584,-0.728 0.944,-1.598 1.064,-2.611 0.128,-1.019 0.023,-2.137 -0.329,-3.36 z"
       style="fill:#ec2027;fill-opacity:1;fill-rule:nonzero;stroke:none"
       id="path866" /><path
       d="m 561.008,256.058 h -6.083 l 3,10.44 h -4.777 l 1.035,3.607 c 1.747,0.037 3.24,0.36 4.477,0.982 1.23,0.615 2.22,1.658 2.962,3.136 h 4.651 z"
       style="fill:#ec2027;fill-opacity:1;fill-rule:nonzero;stroke:none"
       id="path868" /><path
       d="m 580.665,266.317 c 0.593,0.481 1.005,1.088 1.223,1.838 0.194,0.638 0.074,1.185 -0.33,1.635 -0.42,0.443 -0.998,0.675 -1.748,0.675 -0.877,0 -1.613,-0.217 -2.198,-0.667 -0.599,-0.435 -1.012,-1.05 -1.237,-1.831 -0.21,-0.705 -0.143,-1.282 0.21,-1.717 0.353,-0.45 0.907,-0.668 1.673,-0.668 1.005,0.016 1.8,0.263 2.407,0.735 z m -6.338,-5.61 c 0.015,-0.479 0.203,-0.825 0.563,-1.065 0.36,-0.232 0.847,-0.359 1.477,-0.359 1.066,0 1.98,0.367 2.715,1.125 0.743,0.742 1.29,1.739 1.665,2.984 -0.952,-0.487 -1.807,-0.817 -2.572,-1.012 -0.765,-0.18 -1.65,-0.277 -2.647,-0.277 -1.156,0 -2.115,0.172 -2.895,0.524 -0.773,0.338 -1.373,0.803 -1.793,1.373 -0.42,0.57 -0.675,1.192 -0.758,1.882 -0.082,0.683 -0.022,1.351 0.173,2.018 0.3,1.065 0.78,1.995 1.433,2.79 0.637,0.795 1.417,1.462 2.325,1.988 0.907,0.524 1.897,0.907 2.977,1.162 1.073,0.255 2.212,0.383 3.413,0.383 3.112,0 5.287,-0.758 6.525,-2.288 1.222,-1.522 1.365,-3.87 0.419,-7.035 -0.412,-1.373 -0.982,-2.625 -1.725,-3.758 -0.734,-1.14 -1.619,-2.115 -2.64,-2.925 -1.027,-0.809 -2.16,-1.44 -3.412,-1.882 -1.253,-0.435 -2.573,-0.66 -3.983,-0.66 -1.005,0 -1.942,0.082 -2.804,0.24 -0.863,0.157 -1.613,0.42 -2.265,0.787 -0.653,0.368 -1.156,0.848 -1.508,1.463 -0.345,0.615 -0.502,1.357 -0.457,2.243 z"
       style="fill:#ec2027;fill-opacity:1;fill-rule:nonzero;stroke:none"
       id="path870" /><path
       d="m 599.76,267.3 c 0.607,0.33 0.998,0.803 1.185,1.417 0.172,0.586 0.075,1.058 -0.292,1.403 -0.375,0.345 -0.931,0.517 -1.65,0.517 -0.788,0 -1.47,-0.164 -2.07,-0.51 -0.593,-0.329 -0.976,-0.824 -1.178,-1.462 -0.188,-0.63 -0.082,-1.095 0.315,-1.403 0.39,-0.307 0.968,-0.457 1.71,-0.457 0.72,0 1.388,0.165 1.98,0.495 z m -1.665,-7.14 c 0.458,0.383 0.78,0.862 0.96,1.463 0.218,0.704 0.128,1.274 -0.247,1.687 -0.383,0.42 -0.991,0.623 -1.808,0.623 -0.878,0 -1.643,-0.195 -2.28,-0.601 -0.638,-0.39 -1.065,-0.974 -1.305,-1.74 -0.21,-0.69 -0.09,-1.222 0.345,-1.597 0.435,-0.368 1.05,-0.562 1.852,-0.562 0.255,0 0.51,0.014 0.773,0.052 0.682,0.068 1.26,0.292 1.71,0.675 z m -7.868,6.705 c -0.277,0.517 -0.262,1.29 0.038,2.303 0.255,0.832 0.705,1.567 1.342,2.212 0.646,0.637 1.426,1.178 2.355,1.605 0.916,0.42 1.913,0.735 3,0.93 1.073,0.203 2.183,0.308 3.323,0.308 1.162,0 2.197,-0.12 3.098,-0.368 0.907,-0.24 1.657,-0.593 2.234,-1.028 0.585,-0.442 0.968,-0.967 1.171,-1.575 0.187,-0.615 0.179,-1.267 -0.038,-1.987 -0.27,-0.892 -0.727,-1.65 -1.357,-2.28 -0.63,-0.63 -1.47,-1.103 -2.505,-1.425 1.02,-0.368 1.717,-0.908 2.099,-1.605 0.375,-0.69 0.398,-1.56 0.083,-2.587 -0.54,-1.778 -1.8,-3.173 -3.772,-4.193 -0.923,-0.487 -1.973,-0.862 -3.15,-1.117 -1.163,-0.255 -2.385,-0.383 -3.668,-0.383 -1.238,0 -2.347,0.113 -3.352,0.345 -1.006,0.232 -1.845,0.578 -2.528,1.05 -0.69,0.473 -1.155,1.08 -1.403,1.793 -0.247,0.719 -0.217,1.56 0.061,2.505 0.307,1.012 0.832,1.837 1.574,2.445 0.743,0.622 1.733,1.17 2.993,1.62 -0.787,0.435 -1.32,0.922 -1.598,1.432 z"
       style="fill:#ec2027;fill-opacity:1;fill-rule:nonzero;stroke:none"
       id="path872" /><path
       d="m 613.815,263.603 c -0.615,-0.48 -1.035,-1.081 -1.275,-1.831 -0.188,-0.645 -0.083,-1.192 0.315,-1.642 0.413,-0.442 0.982,-0.668 1.725,-0.668 0.885,0 1.62,0.218 2.213,0.661 0.6,0.442 1.02,1.05 1.252,1.829 0.225,0.706 0.165,1.283 -0.173,1.726 -0.344,0.442 -0.9,0.659 -1.665,0.659 -0.982,-0.015 -1.777,-0.262 -2.392,-0.734 z m 6.39,5.594 c -0.008,0.473 -0.187,0.825 -0.547,1.065 -0.36,0.233 -0.848,0.353 -1.47,0.353 -1.058,0 -1.973,-0.367 -2.731,-1.117 -0.765,-0.75 -1.327,-1.748 -1.717,-3 0.952,0.495 1.815,0.832 2.587,1.019 0.773,0.18 1.658,0.278 2.655,0.278 1.156,0 2.123,-0.172 2.903,-0.525 0.788,-0.337 1.373,-0.803 1.778,-1.365 0.39,-0.57 0.63,-1.2 0.704,-1.867 0.075,-0.675 0,-1.358 -0.209,-2.033 -0.331,-1.065 -0.826,-2.003 -1.493,-2.798 -0.652,-0.794 -1.44,-1.455 -2.355,-1.979 -0.915,-0.533 -1.905,-0.915 -2.985,-1.17 -1.072,-0.255 -2.205,-0.383 -3.39,-0.383 -3.098,0 -5.25,0.765 -6.458,2.287 -1.207,1.523 -1.327,3.87 -0.36,7.043 0.421,1.365 1.005,2.625 1.748,3.75 0.757,1.14 1.65,2.108 2.678,2.925 1.034,0.81 2.182,1.44 3.449,1.883 1.261,0.442 2.595,0.66 4.013,0.66 1.02,0 1.965,-0.076 2.82,-0.24 0.87,-0.158 1.62,-0.42 2.272,-0.788 0.653,-0.36 1.148,-0.847 1.493,-1.462 0.33,-0.608 0.473,-1.358 0.42,-2.235 z"
       style="fill:#ec2027;fill-opacity:1;fill-rule:nonzero;stroke:none"
       id="path874" /><path
       d="m 318.75,311.257 c 0.255,0.69 0.217,1.223 -0.12,1.613 -0.345,0.382 -0.93,0.577 -1.77,0.577 -0.968,0 -1.882,-0.337 -2.73,-0.99 -0.855,-0.667 -1.59,-1.635 -2.197,-2.909 -0.248,-0.518 -0.428,-0.99 -0.541,-1.411 -0.104,-0.427 -0.127,-0.802 -0.06,-1.147 0.068,-0.338 0.271,-0.615 0.623,-0.795 0.338,-0.202 0.848,-0.293 1.515,-0.293 0.818,0 1.575,0.203 2.227,0.623 0.661,0.413 1.208,0.968 1.635,1.643 h 5.235 c -1.072,-1.718 -2.542,-3.076 -4.432,-4.058 -1.897,-0.983 -3.945,-1.478 -6.135,-1.478 -1.358,0 -2.505,0.158 -3.45,0.481 -0.937,0.329 -1.642,0.802 -2.115,1.409 -0.473,0.623 -0.69,1.365 -0.675,2.243 0.015,0.87 0.285,1.853 0.81,2.925 0.51,1.072 1.192,2.033 2.033,2.895 0.832,0.877 1.777,1.62 2.827,2.235 1.05,0.622 2.152,1.095 3.308,1.418 1.154,0.322 2.31,0.479 3.45,0.479 2.497,0 4.222,-0.472 5.189,-1.417 0.968,-0.952 1.14,-2.302 0.525,-4.043 z"
       style="fill:#ffffff;fill-opacity:1;fill-rule:nonzero;stroke:none"
       id="path876" /><path
       d="m 332.467,313.125 c -0.517,-0.225 -0.974,-0.502 -1.395,-0.863 -0.42,-0.344 -0.787,-0.742 -1.094,-1.177 -0.315,-0.427 -0.578,-0.878 -0.795,-1.342 -0.226,-0.458 -0.39,-0.923 -0.495,-1.366 -0.106,-0.435 -0.128,-0.847 -0.061,-1.222 0.068,-0.375 0.263,-0.682 0.585,-0.907 0.323,-0.226 0.795,-0.346 1.411,-0.346 1.117,0 2.115,0.346 2.969,1.043 0.855,0.69 1.553,1.627 2.108,2.798 0.218,0.472 0.367,0.93 0.45,1.38 0.083,0.435 0.075,0.824 -0.03,1.185 -0.105,0.352 -0.315,0.63 -0.645,0.832 -0.323,0.202 -0.773,0.307 -1.357,0.307 -0.578,0 -1.133,-0.105 -1.651,-0.322 z m 6.735,3.022 c 0.916,-0.375 1.591,-0.892 2.01,-1.552 0.42,-0.667 0.608,-1.41 0.586,-2.242 -0.031,-0.833 -0.248,-1.695 -0.668,-2.61 -0.517,-1.111 -1.2,-2.116 -2.048,-3 -0.854,-0.878 -1.822,-1.635 -2.894,-2.243 -1.08,-0.615 -2.221,-1.08 -3.428,-1.395 -1.215,-0.315 -2.438,-0.473 -3.668,-0.473 -1.297,0 -2.407,0.158 -3.322,0.473 -0.922,0.315 -1.62,0.78 -2.1,1.402 -0.473,0.623 -0.713,1.373 -0.705,2.265 0,0.893 0.278,1.898 0.802,3.016 0.488,1.027 1.141,1.972 1.958,2.835 0.818,0.855 1.763,1.589 2.828,2.204 1.065,0.623 2.204,1.088 3.42,1.411 1.207,0.322 2.445,0.479 3.727,0.479 1.418,0 2.588,-0.187 3.502,-0.57 z"
       style="fill:#ffffff;fill-opacity:1;fill-rule:nonzero;stroke:none"
       id="path878" /><path
       d="m 353.152,309.06 1.185,3.045 1.958,4.26 h 5.183 l -6.098,-13.38 h -5.1 l -2.58,7.282 -1.2,-3.052 -1.95,-4.23 h -5.22 l 6.203,13.38 h 5.07 z"
       style="fill:#ffffff;fill-opacity:1;fill-rule:nonzero;stroke:none"
       id="path880" /><path
       d="m 362.625,316.365 h 15.142 l -1.575,-3.517 h -4.867 l -4.44,-9.863 h -5.452 l 4.462,9.863 h -4.868 z"
       style="fill:#ffffff;fill-opacity:1;fill-rule:nonzero;stroke:none"
       id="path882" /><path
       d="m 381.585,310.582 h 2.138 c 0.869,0 1.56,0.098 2.07,0.3 0.517,0.203 0.87,0.526 1.065,0.96 0.202,0.466 0.149,0.818 -0.135,1.043 -0.3,0.24 -0.773,0.36 -1.44,0.36 h -2.528 z m -1.305,-2.932 -2.07,-4.665 h -5.453 l 5.978,13.38 h 7.792 c 2.693,0 4.456,-0.307 5.288,-0.9 0.825,-0.6 0.952,-1.575 0.368,-2.91 -0.353,-0.81 -0.893,-1.5 -1.62,-2.085 -0.721,-0.578 -1.598,-0.975 -2.611,-1.185 0.481,-0.158 0.848,-0.307 1.096,-0.443 0.232,-0.127 0.427,-0.307 0.562,-0.539 0.135,-0.24 0.173,-0.563 0.12,-0.968 -0.06,-0.412 -0.225,-0.938 -0.518,-1.605 -0.442,-0.997 -0.69,-1.643 -0.75,-1.913 -0.06,-0.284 0.031,-0.42 0.293,-0.42 l -0.173,-0.412 h -5.519 c -0.008,0.157 0.052,0.457 0.194,0.885 0.128,0.428 0.315,0.907 0.556,1.455 0.209,0.473 0.345,0.855 0.397,1.132 0.06,0.286 0.023,0.518 -0.097,0.69 -0.12,0.173 -0.361,0.3 -0.698,0.375 -0.345,0.091 -0.833,0.128 -1.477,0.128 z"
       style="fill:#ffffff;fill-opacity:1;fill-rule:nonzero;stroke:none"
       id="path884" /><path
       d="m 400.627,313.125 c -0.502,-0.225 -0.959,-0.502 -1.372,-0.863 -0.397,-0.344 -0.75,-0.742 -1.05,-1.177 -0.292,-0.427 -0.54,-0.878 -0.743,-1.342 -0.21,-0.458 -0.359,-0.923 -0.442,-1.366 -0.09,-0.435 -0.097,-0.847 -0.022,-1.222 0.089,-0.375 0.292,-0.682 0.622,-0.907 0.33,-0.226 0.803,-0.346 1.418,-0.346 1.117,0 2.099,0.346 2.932,1.043 0.833,0.69 1.492,1.627 2.01,2.798 0.203,0.472 0.337,0.93 0.405,1.38 0.067,0.435 0.045,0.824 -0.068,1.185 -0.12,0.352 -0.344,0.63 -0.675,0.832 -0.337,0.202 -0.787,0.307 -1.372,0.307 -0.578,0 -1.133,-0.105 -1.643,-0.322 z m 6.638,3.022 c 0.923,-0.375 1.612,-0.892 2.055,-1.552 0.442,-0.667 0.66,-1.41 0.675,-2.242 0,-0.833 -0.195,-1.695 -0.577,-2.61 -0.488,-1.111 -1.133,-2.116 -1.958,-3 -0.81,-0.878 -1.755,-1.635 -2.805,-2.243 -1.057,-0.615 -2.19,-1.08 -3.383,-1.395 -1.2,-0.315 -2.414,-0.473 -3.652,-0.473 -1.298,0 -2.408,0.158 -3.337,0.473 -0.93,0.315 -1.651,0.78 -2.146,1.402 -0.502,0.623 -0.764,1.373 -0.787,2.265 -0.03,0.893 0.21,1.898 0.698,3.016 0.45,1.027 1.065,1.972 1.867,2.835 0.787,0.855 1.703,1.589 2.745,2.204 1.042,0.623 2.16,1.088 3.367,1.411 1.201,0.322 2.438,0.479 3.698,0.479 1.425,0 2.61,-0.187 3.54,-0.57 z"
       style="fill:#ffffff;fill-opacity:1;fill-rule:nonzero;stroke:none"
       id="path886" /><path
       d="m 408.007,302.985 5.738,13.38 h 5.415 l -4.372,-10.26 h 7.469 l -1.312,-3.12 z"
       style="fill:#ffffff;fill-opacity:1;fill-rule:nonzero;stroke:none"
       id="path888" /><path
       d="m 434.752,312.48 c 0.098,0.42 -0.037,0.727 -0.404,0.915 -0.323,0.158 -0.75,0.24 -1.305,0.24 -1.148,0 -1.831,-0.262 -2.048,-0.765 -0.135,-0.345 0,-0.615 0.443,-0.81 0.427,-0.187 1.162,-0.39 2.189,-0.6 0.885,-0.203 1.613,-0.383 2.183,-0.547 0.563,-0.173 1.087,-0.406 1.567,-0.713 0.481,-0.3 0.803,-0.69 0.976,-1.17 0.187,-0.495 0.127,-1.088 -0.173,-1.785 -0.622,-1.507 -1.793,-2.655 -3.525,-3.428 -1.74,-0.787 -3.795,-1.185 -6.165,-1.185 -1.065,0 -1.995,0.113 -2.798,0.353 -0.802,0.232 -1.44,0.563 -1.912,0.967 -0.472,0.421 -0.78,0.901 -0.907,1.44 -0.135,0.541 -0.09,1.11 0.134,1.718 h 5.205 c -0.082,-0.473 0.068,-0.825 0.458,-1.057 0.36,-0.226 0.825,-0.338 1.41,-0.338 0.69,0 1.275,0.083 1.755,0.263 0.48,0.172 0.788,0.419 0.915,0.727 0.142,0.345 0.007,0.608 -0.413,0.795 -0.419,0.188 -1.154,0.382 -2.19,0.592 -0.885,0.196 -1.62,0.368 -2.197,0.533 -0.577,0.165 -1.102,0.405 -1.582,0.72 -0.488,0.307 -0.81,0.713 -0.968,1.222 -0.157,0.51 -0.09,1.125 0.225,1.883 0.577,1.372 1.68,2.423 3.308,3.165 1.627,0.735 3.509,1.102 5.654,1.102 1.118,0 2.055,-0.104 2.813,-0.322 0.758,-0.217 1.343,-0.518 1.763,-0.9 0.412,-0.39 0.667,-0.832 0.794,-1.35 0.113,-0.518 0.098,-1.065 -0.06,-1.665 z"
       style="fill:#ffffff;fill-opacity:1;fill-rule:nonzero;stroke:none"
       id="path890" /><path
       d="m 444.322,302.985 5.483,13.38 h 5.415 l -4.17,-10.26 h 7.47 l -1.26,-3.12 z"
       style="fill:#ffffff;fill-opacity:1;fill-rule:nonzero;stroke:none"
       id="path892" /><path
       d="m 460.822,316.365 h 15.143 l -1.388,-3.517 h -4.875 l -3.945,-9.863 h -5.452 l 3.975,9.863 h -4.875 z"
       style="fill:#ffffff;fill-opacity:1;fill-rule:nonzero;stroke:none"
       id="path894" /><path
       d="m 478.395,306.105 h 1.155 c 1.298,0 2.385,0.292 3.277,0.878 0.893,0.577 1.575,1.484 2.055,2.729 0.533,1.365 0.601,2.288 0.188,2.79 -0.397,0.488 -1.342,0.743 -2.827,0.743 h -1.036 z m -6.683,-3.12 5.31,13.38 h 7.245 c 2.738,0 4.658,-0.533 5.753,-1.59 1.103,-1.058 1.23,-2.67 0.39,-4.823 -0.48,-1.237 -1.095,-2.294 -1.845,-3.187 -0.75,-0.885 -1.627,-1.605 -2.61,-2.16 -0.99,-0.562 -2.07,-0.975 -3.255,-1.23 -1.178,-0.262 -2.445,-0.39 -3.818,-0.39 z"
       style="fill:#ffffff;fill-opacity:1;fill-rule:nonzero;stroke:none"
       id="path896" /><path
       d="m 488.423,302.985 1.477,3.832 h 4.89 l -1.477,-3.832 z"
       style="fill:#ffffff;fill-opacity:1;fill-rule:nonzero;stroke:none"
       id="path898" /><path
       d="m 203.205,313.125 c -0.48,-0.225 -0.892,-0.502 -1.237,-0.863 -0.353,-0.344 -0.646,-0.742 -0.871,-1.177 -0.217,-0.427 -0.389,-0.878 -0.517,-1.342 -0.12,-0.458 -0.187,-0.923 -0.21,-1.366 -0.015,-0.435 0.045,-0.847 0.195,-1.222 0.15,-0.375 0.405,-0.682 0.78,-0.907 0.368,-0.226 0.863,-0.346 1.485,-0.346 1.125,0 2.047,0.346 2.775,1.043 0.712,0.69 1.238,1.627 1.568,2.798 0.119,0.472 0.187,0.93 0.179,1.38 0,0.435 -0.097,0.824 -0.269,1.185 -0.173,0.352 -0.451,0.63 -0.826,0.832 -0.375,0.202 -0.854,0.307 -1.44,0.307 -0.599,0 -1.132,-0.105 -1.612,-0.322 z m 6.24,3.022 c 1.005,-0.375 1.793,-0.892 2.355,-1.552 0.555,-0.667 0.9,-1.41 1.035,-2.242 0.135,-0.833 0.075,-1.695 -0.18,-2.61 -0.308,-1.111 -0.803,-2.116 -1.485,-3 -0.69,-0.878 -1.515,-1.635 -2.49,-2.243 -0.96,-0.615 -2.01,-1.08 -3.165,-1.395 -1.147,-0.315 -2.332,-0.473 -3.57,-0.473 -1.29,0 -2.43,0.158 -3.42,0.473 -0.99,0.315 -1.785,0.78 -2.4,1.402 -0.6,0.623 -1.005,1.373 -1.185,2.265 -0.188,0.893 -0.135,1.898 0.157,3.016 0.271,1.027 0.728,1.972 1.373,2.835 0.637,0.855 1.44,1.589 2.385,2.204 0.945,0.623 2.018,1.088 3.18,1.411 1.17,0.322 2.407,0.479 3.705,0.479 1.455,0 2.693,-0.187 3.705,-0.57 z"
       style="fill:#ffffff;fill-opacity:1;fill-rule:nonzero;stroke:none"
       id="path900" /><path
       d="m 214.965,316.365 h 15.465 l -1.027,-3.517 h -4.958 l -2.85,-9.863 h -5.46 l 2.805,9.863 h -4.95 z"
       style="fill:#ffffff;fill-opacity:1;fill-rule:nonzero;stroke:none"
       id="path902" /><path
       d="m 227.805,302.985 3.96,13.38 h 5.527 l -4.027,-13.38 z"
       style="fill:#ffffff;fill-opacity:1;fill-rule:nonzero;stroke:none"
       id="path904" /><path
       d="m 245.093,313.125 c -0.48,-0.225 -0.908,-0.502 -1.276,-0.863 -0.367,-0.344 -0.667,-0.742 -0.907,-1.177 -0.248,-0.427 -0.442,-0.878 -0.577,-1.342 -0.15,-0.458 -0.24,-0.923 -0.27,-1.366 -0.038,-0.435 0.014,-0.847 0.142,-1.222 0.135,-0.375 0.383,-0.682 0.735,-0.907 0.36,-0.226 0.855,-0.346 1.47,-0.346 1.132,0 2.07,0.346 2.82,1.043 0.75,0.69 1.312,1.627 1.687,2.798 0.15,0.472 0.226,0.93 0.248,1.38 0.008,0.435 -0.06,0.824 -0.232,1.185 -0.158,0.352 -0.421,0.63 -0.788,0.832 -0.353,0.202 -0.84,0.307 -1.432,0.307 -0.586,0 -1.125,-0.105 -1.62,-0.322 z m 6.359,3.022 c 0.998,-0.375 1.77,-0.892 2.296,-1.552 0.532,-0.667 0.847,-1.41 0.944,-2.242 0.106,-0.833 0.008,-1.695 -0.277,-2.61 -0.36,-1.111 -0.9,-2.116 -1.628,-3 -0.727,-0.878 -1.574,-1.635 -2.572,-2.243 -0.99,-0.615 -2.07,-1.08 -3.233,-1.395 -1.162,-0.315 -2.347,-0.473 -3.584,-0.473 -1.298,0 -2.43,0.158 -3.405,0.473 -0.968,0.315 -1.748,0.78 -2.333,1.402 -0.577,0.623 -0.945,1.373 -1.095,2.265 -0.15,0.893 -0.053,1.898 0.292,3.016 0.3,1.027 0.803,1.972 1.486,2.835 0.682,0.855 1.5,1.589 2.474,2.204 0.983,0.623 2.056,1.088 3.248,1.411 1.178,0.322 2.423,0.479 3.713,0.479 1.454,0 2.677,-0.187 3.674,-0.57 z"
       style="fill:#ffffff;fill-opacity:1;fill-rule:nonzero;stroke:none"
       id="path906" /><path
       d="m 266.655,309.06 0.802,3.045 1.418,4.26 h 5.295 l -4.523,-13.38 h -5.114 l -3.548,7.282 -0.788,-3.052 -1.394,-4.23 h -5.22 l 4.304,13.38 h 5.176 z"
       style="fill:#ffffff;fill-opacity:1;fill-rule:nonzero;stroke:none"
       id="path908" /><path
       d="m 288.165,313.808 c -0.375,-0.173 -0.622,-0.421 -0.735,-0.773 -0.113,-0.307 -0.09,-0.578 0.082,-0.825 0.166,-0.24 0.428,-0.487 0.788,-0.735 0.638,0.21 1.14,0.42 1.522,0.638 0.383,0.224 0.63,0.502 0.758,0.854 0.052,0.143 0.083,0.3 0.067,0.48 -0.029,0.203 -0.172,0.346 -0.419,0.443 -0.24,0.098 -0.511,0.15 -0.81,0.15 -0.466,0 -0.885,-0.075 -1.253,-0.232 z m -2.198,-5.505 c -0.645,-0.24 -1.169,-0.481 -1.575,-0.721 -0.412,-0.24 -0.682,-0.532 -0.802,-0.877 -0.143,-0.397 -0.09,-0.705 0.143,-0.915 0.224,-0.21 0.577,-0.315 1.057,-0.315 0.24,0 0.57,0.045 0.975,0.15 0.405,0.098 0.757,0.21 1.043,0.33 0.105,0.038 0.247,0.098 0.412,0.172 0.218,0.075 0.345,0.128 0.36,0.166 0.007,0.029 -0.015,0.104 -0.097,0.18 z m 3.473,-4.178 c -0.735,-0.413 -1.657,-0.765 -2.79,-1.05 -1.125,-0.3 -2.205,-0.443 -3.232,-0.443 -0.788,0 -1.508,0.075 -2.153,0.218 -0.652,0.15 -1.193,0.383 -1.635,0.698 -0.442,0.3 -0.735,0.697 -0.885,1.169 -0.158,0.466 -0.127,1.013 0.082,1.628 0.338,0.96 0.93,1.77 1.786,2.468 0.862,0.689 1.92,1.259 3.18,1.694 -0.338,0.406 -0.555,0.796 -0.661,1.185 -0.112,0.406 -0.082,0.841 0.091,1.328 0.202,0.593 0.547,1.11 1.034,1.545 0.488,0.428 1.051,0.78 1.688,1.05 0.637,0.262 1.32,0.457 2.048,0.577 0.712,0.113 1.425,0.173 2.13,0.173 0.779,0 1.477,-0.082 2.107,-0.255 0.63,-0.165 1.14,-0.398 1.545,-0.713 0.39,-0.307 0.653,-0.682 0.788,-1.109 0.127,-0.443 0.105,-0.923 -0.09,-1.456 -0.271,-0.772 -0.743,-1.424 -1.41,-1.972 -0.661,-0.555 -1.5,-1.028 -2.528,-1.41 l 1.013,-1.193 c 0.547,0.301 1.042,0.676 1.5,1.118 h 4.417 c -1.32,-1.298 -2.648,-2.385 -3.99,-3.248 l 2.662,-3.142 h -5.782 z"
       style="fill:#ffffff;fill-opacity:1;fill-rule:nonzero;stroke:none"
       id="path910" /><path
       d="m 165.225,303.165 h 6.3 c 4.552,5.49 7.365,8.565 7.365,8.565 l -0.802,-8.302 h 4.019 l 6.96,8.039 -2.94,-8.437 h 4.95 l 4.291,13.388 h -7.5 l -4.688,-6.023 0.533,6.023 h -7.695 z"
       style="fill:#ffffff;fill-opacity:1;fill-rule:evenodd;stroke:none"
       id="path912" /></g></svg>
