<?xml version="1.0" encoding="UTF-8" standalone="no"?>
<!-- Created with Inkscape (http://www.inkscape.org/) -->

<svg
   version="1.1"
   id="svg824"
   xml:space="preserve"
   width="1080"
   height="720"
   viewBox="0 0 1080 720"
   sodipodi:docname="IBT Logo - Color.svg"
   inkscape:version="1.3 (0e150ed6c4, 2023-07-21)"
   inkscape:export-filename="..\Raster\Advanced Motion Logo - Monochrome.png"
   inkscape:export-xdpi="96"
   inkscape:export-ydpi="96"
   xmlns:inkscape="http://www.inkscape.org/namespaces/inkscape"
   xmlns:sodipodi="http://sodipodi.sourceforge.net/DTD/sodipodi-0.dtd"
   xmlns="http://www.w3.org/2000/svg"
   xmlns:svg="http://www.w3.org/2000/svg"><sodipodi:namedview
     id="namedview510"
     pagecolor="#ffffff"
     bordercolor="#666666"
     borderopacity="1.0"
     inkscape:pageshadow="2"
     inkscape:pageopacity="0.0"
     inkscape:pagecheckerboard="true"
     showgrid="false"
     inkscape:zoom="0.70844604"
     inkscape:cx="532.85639"
     inkscape:cy="435.46012"
     inkscape:window-width="2560"
     inkscape:window-height="1369"
     inkscape:window-x="-8"
     inkscape:window-y="-8"
     inkscape:window-maximized="1"
     inkscape:current-layer="layer9"
     inkscape:showpageshadow="2"
     inkscape:deskcolor="#d1d1d1"
     showguides="true" /><defs
     id="defs828"><clipPath
       clipPathUnits="userSpaceOnUse"
       id="clipPath838"><path
         d="m 115.92,251.64 h 559.8 v 69.48 h -559.8 z"
         clip-rule="evenodd"
         id="path836" /></clipPath><clipPath
       clipPathUnits="userSpaceOnUse"
       id="clipPath2"><path
         d="M 0,308.1 H 683.186 V 0 H 0 Z"
         transform="translate(-170.229,-102.2763)"
         id="path2" /></clipPath><clipPath
       clipPathUnits="userSpaceOnUse"
       id="clipPath4"><path
         d="M 0,308.1 H 683.186 V 0 H 0 Z"
         transform="translate(-174.7807,-108.643)"
         id="path4" /></clipPath><clipPath
       clipPathUnits="userSpaceOnUse"
       id="clipPath7"><path
         d="M 0,308.1 H 683.186 V 0 H 0 Z"
         transform="matrix(1.3333333,0,0,-1.3333333,0,410.8)"
         id="path7" /></clipPath><clipPath
       clipPathUnits="userSpaceOnUse"
       id="clipPath5"><path
         d="m 166.131,116.882 h 15.48 v -15.506 h -15.48 z"
         transform="translate(-170.229,-102.2763)"
         id="path5" /></clipPath><clipPath
       clipPathUnits="userSpaceOnUse"
       id="clipPath10"><path
         d="M 0,308.1 H 683.186 V 0 H 0 Z"
         transform="matrix(1.3333333,0,0,-1.3333333,0,410.8)"
         id="path10" /></clipPath><clipPath
       clipPathUnits="userSpaceOnUse"
       id="clipPath8"><path
         d="m 172.81,110.178 h 2.091 v -2.09 h -2.091 z"
         transform="translate(-174.7807,-108.643)"
         id="path8" /></clipPath><clipPath
       clipPathUnits="userSpaceOnUse"
       id="clipPath12"><path
         d="M 0,308.1 H 683.186 V 0 H 0 Z"
         transform="translate(-185.59521,-108.2221)"
         id="path12" /></clipPath><clipPath
       clipPathUnits="userSpaceOnUse"
       id="clipPath14"><path
         d="M 0,308.1 H 683.186 V 0 H 0 Z"
         transform="translate(-166.72941,-177.89151)"
         id="path14" /></clipPath><clipPath
       clipPathUnits="userSpaceOnUse"
       id="clipPath16"><path
         d="M 0,308.1 H 683.186 V 0 H 0 Z"
         transform="translate(-257.88721,-194.8339)"
         id="path16" /></clipPath><clipPath
       clipPathUnits="userSpaceOnUse"
       id="clipPath19"><path
         d="M 0,308.1 H 683.186 V 0 H 0 Z"
         transform="matrix(1.3333333,0,0,-1.3333333,0,410.8)"
         id="path19" /></clipPath><clipPath
       clipPathUnits="userSpaceOnUse"
       id="clipPath17"><path
         d="m 122.723,191.449 h 70.904 v -23.176 h -70.904 z"
         transform="translate(-182.8354,-191.4447)"
         id="path17" /></clipPath><clipPath
       clipPathUnits="userSpaceOnUse"
       id="clipPath21"><path
         d="M 0,308.1 H 683.186 V 0 H 0 Z"
         transform="translate(-209.64741,-131.72451)"
         id="path21" /></clipPath><clipPath
       clipPathUnits="userSpaceOnUse"
       id="clipPath24"><path
         d="M 0,308.1 H 683.186 V 0 H 0 Z"
         transform="matrix(1.3333333,0,0,-1.3333333,0,410.8)"
         id="path24" /></clipPath><clipPath
       clipPathUnits="userSpaceOnUse"
       id="clipPath22"><path
         d="m 209.647,131.724 h 0.01 v -0.016 h -0.01 z"
         transform="translate(-209.64741,-131.72451)"
         id="path22" /></clipPath><clipPath
       clipPathUnits="userSpaceOnUse"
       id="clipPath26"><path
         d="M 0,308.1 H 683.186 V 0 H 0 Z"
         transform="translate(-285.18061,-159.247)"
         id="path26" /></clipPath><clipPath
       clipPathUnits="userSpaceOnUse"
       id="clipPath28"><path
         d="M 0,308.1 H 683.186 V 0 H 0 Z"
         transform="translate(-138.0229,-128.0766)"
         id="path28" /></clipPath><clipPath
       clipPathUnits="userSpaceOnUse"
       id="clipPath30"><path
         d="M 0,308.1 H 683.186 V 0 H 0 Z"
         transform="translate(-150.5454,-117.6601)"
         id="path30" /></clipPath><clipPath
       clipPathUnits="userSpaceOnUse"
       id="clipPath33"><path
         d="M 0,308.1 H 683.186 V 0 H 0 Z"
         transform="matrix(1.3333333,0,0,-1.3333333,0,410.8)"
         id="path33" /></clipPath><clipPath
       clipPathUnits="userSpaceOnUse"
       id="clipPath31"><path
         d="m 130.422,140.878 h 63.205 V 62.3802 h -63.205 z"
         transform="translate(-157.65081,-140.8471)"
         id="path31" /></clipPath><clipPath
       clipPathUnits="userSpaceOnUse"
       id="clipPath36"><path
         d="M 0,308.1 H 683.186 V 0 H 0 Z"
         transform="matrix(1.3333333,0,0,-1.3333333,0,410.8)"
         id="path36" /></clipPath><clipPath
       clipPathUnits="userSpaceOnUse"
       id="clipPath34"><path
         d="m 234.464,209.508 h 55.231 v -41.235 h -55.231 z"
         transform="translate(-259.0537,-209.50771)"
         id="path34" /></clipPath><clipPath
       clipPathUnits="userSpaceOnUse"
       id="clipPath38"><path
         d="M 0,308.1 H 683.186 V 0 H 0 Z"
         id="path38" /></clipPath><clipPath
       clipPathUnits="userSpaceOnUse"
       id="clipPath41"><path
         d="M 0,308.1 H 683.186 V 0 H 0 Z"
         transform="matrix(1.3333333,0,0,-1.3333333,0,410.8)"
         id="path41" /></clipPath><clipPath
       clipPathUnits="userSpaceOnUse"
       id="clipPath39"><path
         d="m 224.255,137.755 h 59.064 V 82.7582 h -59.064 z"
         transform="translate(-224.25531,-109.8144)"
         id="path39" /></clipPath><clipPath
       clipPathUnits="userSpaceOnUse"
       id="clipPath42"><path
         d="m 219.02,124.811 c 0,-14.138 11.461,-25.6 25.6,-25.6 v 0 c 14.138,0 25.6,11.462 25.6,25.6 v 0 c 0,14.139 -11.462,25.601 -25.6,25.601 v 0 c -14.139,0 -25.6,-11.462 -25.6,-25.601"
         transform="matrix(0.01872221,0,0,-0.0187222,-4.0806967,2.8382285)"
         id="path42" /></clipPath></defs><g
     inkscape:groupmode="layer"
     id="layer9"
     inkscape:label="Base"
     style="display:inline"><g
       id="g53"><path
         id="path1"
         d="m 0,0 c 3.786,-2 8.481,-0.556 10.482,3.232 2,3.787 0.556,8.479 -3.233,10.481 C 4.141,15.357 0.441,14.647 -1.9,12.251 L 4.415,8.343 C 5.233,7.912 5.549,6.893 5.113,6.07 4.678,5.246 3.662,4.935 2.838,5.371 L -3.943,8.385 C -4.605,5.103 -3.112,1.644 0,0"
         style="fill:#7b7979;fill-opacity:1;fill-rule:nonzero;stroke:none"
         transform="matrix(1.3333333,0,0,-1.3333333,319.55627,441.97876)"
         clip-path="url(#clipPath2)" /><path
         id="path3"
         d="M 0,0 C 0.27,0.513 0.072,1.146 -0.437,1.412 -0.949,1.685 -1.582,1.488 -1.849,0.977 -2.12,0.468 -1.924,-0.164 -1.414,-0.433 -0.903,-0.704 -0.271,-0.508 0,0"
         style="fill:#ef3443;fill-opacity:1;fill-rule:nonzero;stroke:none"
         transform="matrix(1.3333333,0,0,-1.3333333,325.6252,433.48983)"
         clip-path="url(#clipPath4)" /><g
         opacity="0.600006"
         id="g6"
         clip-path="url(#clipPath7)"
         transform="translate(92.584265,167.54716)"><path
           d="m 0,0 c 3.786,-2 8.481,-0.556 10.482,3.232 2,3.787 0.556,8.479 -3.233,10.481 C 4.141,15.357 0.441,14.647 -1.9,12.251 L 4.415,8.343 C 5.233,7.912 5.549,6.893 5.113,6.07 4.678,5.246 3.662,4.935 2.838,5.371 L -3.943,8.385 C -4.605,5.103 -3.112,1.644 0,0"
           style="fill:#231f20;fill-opacity:1;fill-rule:nonzero;stroke:none"
           transform="matrix(1.3333333,0,0,-1.3333333,226.972,274.4316)"
           clip-path="url(#clipPath5)"
           id="path6" /></g><g
         opacity="0.800003"
         id="g9"
         clip-path="url(#clipPath10)"
         transform="translate(92.584265,167.54716)"><path
           d="M 0,0 C 0.27,0.513 0.072,1.146 -0.437,1.412 -0.949,1.685 -1.582,1.488 -1.849,0.977 -2.12,0.468 -1.924,-0.164 -1.414,-0.433 -0.903,-0.704 -0.271,-0.508 0,0"
           style="fill:#231f20;fill-opacity:1;fill-rule:nonzero;stroke:none"
           transform="matrix(1.3333333,0,0,-1.3333333,233.04093,265.94267)"
           clip-path="url(#clipPath8)"
           id="path9" /></g><path
         id="path11"
         d="m 0,0 -1.243,-0.296 c -0.089,-0.761 -0.256,-1.518 -0.515,-2.262 l 0.99,-0.806 c 0.192,-0.157 0.255,-0.464 0.138,-0.682 l -0.757,-1.433 c -0.114,-0.218 -0.403,-0.338 -0.639,-0.27 l -1.226,0.365 c -0.467,-0.633 -1.001,-1.2 -1.578,-1.698 l 0.453,-1.198 c 0.088,-0.231 -0.01,-0.527 -0.222,-0.658 l -1.37,-0.859 c -0.208,-0.134 -0.518,-0.093 -0.689,0.085 l -0.881,0.931 C -8.251,-9.09 -8.991,-9.319 -9.754,-9.463 l -0.206,-1.266 c -0.04,-0.244 -0.27,-0.452 -0.52,-0.462 l -1.616,-0.06 c -0.246,-0.006 -0.497,0.183 -0.553,0.423 l -0.3,1.241 c -0.758,0.088 -1.517,0.257 -2.26,0.518 l -0.809,-0.993 c -0.154,-0.192 -0.462,-0.252 -0.681,-0.138 l -1.433,0.758 c -0.216,0.115 -0.336,0.405 -0.265,0.639 l 0.362,1.229 c -0.632,0.466 -1.199,0.998 -1.699,1.578 l -1.196,-0.453 c -0.23,-0.093 -0.528,0.007 -0.66,0.218 l -0.86,1.37 c -0.133,0.208 -0.091,0.52 0.089,0.69 l 0.926,0.879 c -0.303,0.713 -0.535,1.455 -0.681,2.217 l -1.263,0.204 c -0.247,0.038 -0.453,0.272 -0.461,0.521 l -0.064,1.617 c -0.007,0.248 0.183,0.496 0.421,0.555 l 1.246,0.295 c 0.056,0.502 0.162,0.999 0.293,1.492 l -8.136,3.619 c -0.871,-1.182 -1.866,-2.235 -2.944,-3.171 l 0.85,-2.23 c 0.163,-0.434 -0.022,-0.986 -0.412,-1.231 l -2.558,-1.607 c -0.39,-0.246 -0.972,-0.171 -1.289,0.164 l -1.645,1.736 c -1.327,-0.574 -2.712,-1.001 -4.133,-1.277 l -0.381,-2.358 c -0.072,-0.456 -0.512,-0.844 -0.972,-0.859 l -3.017,-0.116 c -0.462,-0.015 -0.929,0.34 -1.035,0.786 l -0.556,2.323 c -1.42,0.162 -2.837,0.478 -4.223,0.962 l -1.507,-1.851 c -0.293,-0.356 -0.864,-0.475 -1.271,-0.258 l -2.671,1.412 c -0.407,0.216 -0.636,0.755 -0.503,1.197 l 0.679,2.288 c -1.181,0.873 -2.24,1.866 -3.173,2.947 l -2.23,-0.849 c -0.432,-0.165 -0.985,0.019 -1.23,0.412 l -1.609,2.557 c -0.246,0.392 -0.171,0.97 0.163,1.289 l 1.736,1.646 c -0.573,1.327 -1.001,2.712 -1.275,4.133 l -2.36,0.38 c -0.457,0.074 -0.845,0.512 -0.861,0.972 l -0.111,3.018 c -0.02,0.464 0.337,0.928 0.783,1.036 l 2.324,0.554 c 0.163,1.422 0.477,2.835 0.962,4.225 l -1.848,1.506 c -0.359,0.29 -0.475,0.863 -0.258,1.27 l 1.41,2.672 c 0.214,0.409 0.755,0.633 1.199,0.5 l 2.284,-0.677 c 0.874,1.182 1.867,2.238 2.948,3.173 l -0.85,2.231 c -0.164,0.433 0.021,0.986 0.412,1.232 l 2.559,1.607 c 0.392,0.243 0.97,0.172 1.288,-0.166 l 1.644,-1.733 c 1.327,0.571 2.713,1.001 4.134,1.273 l 0.382,2.362 c 0.074,0.456 0.511,0.842 0.973,0.86 l 3.019,0.113 c 0.462,0.018 0.924,-0.336 1.03,-0.786 l 0.559,-2.32 c 1.417,-0.164 2.833,-0.48 4.22,-0.964 l 1.508,1.85 c 0.29,0.356 0.865,0.475 1.272,0.256 l 2.67,-1.41 c 0.408,-0.217 0.633,-0.756 0.506,-1.199 l -0.681,-2.287 c 1.18,-0.87 2.238,-1.863 3.172,-2.948 l 2.231,0.851 c 0.269,0.103 0.561,0.036 0.822,-0.099 0.157,-0.082 0.316,-0.165 0.411,-0.312 l 1.604,-2.559 c 0.248,-0.391 0.173,-0.969 -0.163,-1.286 l -1.739,-1.646 c 0.578,-1.329 1.005,-2.715 1.277,-4.134 l 2.364,-0.38 c 0.456,-0.074 0.841,-0.511 0.858,-0.974 l 0.115,-3.019 c 0.016,-0.459 -0.338,-0.927 -0.786,-1.033 l -2.324,-0.556 c -0.163,-1.417 -0.476,-2.829 -0.962,-4.215 l 7.611,-4.712 c 0.333,0.38 0.653,0.782 1.029,1.106 l -0.455,1.198 c -0.088,0.227 0.01,0.525 0.222,0.657 l 1.37,0.861 c 0.209,0.132 0.521,0.093 0.691,-0.09 l 0.881,-0.927 c 0.711,0.308 1.452,0.538 2.213,0.681 l 0.206,1.265 c 0.038,0.245 0.272,0.451 0.519,0.464 l 1.617,0.057 c 0.248,0.012 0.496,-0.179 0.554,-0.421 l 0.297,-1.241 c 0.763,-0.088 1.521,-0.256 2.263,-0.517 l 0.806,0.992 c 0.159,0.192 0.466,0.253 0.681,0.137 l 1.432,-0.755 c 0.219,-0.118 0.342,-0.406 0.27,-0.641 L -5.443,9.401 c 0.629,-0.47 1.196,-1.004 1.695,-1.583 l 1.197,0.455 c 0.232,0.09 0.529,-0.009 0.659,-0.219 L -1.031,6.682 C -0.899,6.475 -0.94,6.163 -1.118,5.992 L -2.049,5.114 c 0.31,-0.711 0.538,-1.456 0.682,-2.217 L -0.099,2.694 C 0.144,2.654 0.351,2.419 0.358,2.173 L 0.421,0.556 C 0.43,0.309 0.24,0.058 0,0 m 3.518,51.025 h -78.009 c -2.482,0 -4.513,-2.032 -4.513,-4.515 V 7.194 c 0,-2.483 1.759,-5.529 3.906,-6.77 L -17.63,-32.753 4.124,-45.312 c 2.151,-1.241 3.908,-0.227 3.908,2.256 V 4.486 46.51 c 0,2.483 -2.03,4.515 -4.514,4.515"
         style="fill:#7b7979;fill-opacity:1;fill-rule:nonzero;stroke:none"
         transform="matrix(1.3333333,0,0,-1.3333333,340.04454,434.05103)"
         clip-path="url(#clipPath12)" /><path
         id="path13"
         d="m 0,0 h -32.728 c -4.375,0 -8.34,1.729 -11.278,4.529 h 17.385 c 0.595,-0.791 1.498,-1.319 2.532,-1.449 0.153,-0.021 0.302,-0.055 0.46,-0.055 0.387,0 0.754,0.074 1.106,0.183 1.532,0.475 2.656,1.887 2.656,3.578 0,2.078 -1.683,3.761 -3.762,3.761 -1.226,0 -2.305,-0.595 -2.992,-1.503 h -20.725 c -1.107,2.204 -1.746,4.686 -1.746,7.322 0,2.204 0.451,4.301 1.24,6.221 h 21.231 c 0.687,-0.911 1.766,-1.506 2.992,-1.506 2.079,0 3.762,1.683 3.762,3.761 0,2.079 -1.683,3.762 -3.762,3.762 -1.226,0 -2.305,-0.596 -2.992,-1.504 H -45.06 c 2.303,2.643 5.43,4.55 8.994,5.289 3.691,7.12 11.126,11.989 19.703,11.989 6.974,0 13.193,-3.221 17.259,-8.251 h -16.642 c -0.688,0.912 -1.766,1.507 -2.992,1.507 -2.076,0 -3.761,-1.683 -3.761,-3.762 0,-2.078 1.685,-3.762 3.761,-3.762 1.226,0 2.304,0.596 2.992,1.504 H 5.938 c 5.592,-2.178 9.687,-7.349 10.331,-13.541 h -32.015 c -0.688,0.906 -1.766,1.503 -2.992,1.503 -2.076,0 -3.761,-1.685 -3.761,-3.763 0,-2.076 1.685,-3.761 3.761,-3.761 1.226,0 2.304,0.594 2.992,1.506 h 31.855 c 0,-0.002 0,-0.005 -0.003,-0.005 C 14.772,5.858 8.079,0 0,0 M 22.989,86.719 -56.232,40.982 c -2.149,-1.242 -3.907,-4.288 -3.907,-6.77 V -5.105 c 0,-2.481 2.032,-4.514 4.514,-4.514 h 27.678 50.33 c 2.485,0 4.515,2.033 4.515,4.514 v 7.276 82.293 c 0,2.48 -1.757,3.497 -3.909,2.255"
         style="fill:#5db4e8;fill-opacity:1;fill-rule:nonzero;stroke:none"
         transform="matrix(1.3333333,0,0,-1.3333333,314.89014,341.15849)"
         clip-path="url(#clipPath14)" /><path
         id="path15"
         d="m 0,0 c -4.224,-7.606 -5.346,-6.081 -6.033,-10.219 -0.157,-0.932 -0.328,-1.67 -0.549,-2.251 0.328,-0.172 0.542,-0.47 0.542,-0.808 v -0.639 c 0,-0.529 -0.518,-0.956 -1.157,-0.956 H -22.62 c -0.315,0 -0.595,0.104 -0.803,0.271 -0.015,0.01 -0.021,0.019 -0.032,0.028 l -0.066,0.063 0.005,0.012 c -0.152,0.162 -0.26,0.36 -0.26,0.582 v 0.639 c 0,0.338 0.216,0.636 0.539,0.808 -0.219,0.581 -0.389,1.316 -0.549,2.251 -0.691,4.138 -1.806,2.608 -6.029,10.219 -1.416,2.555 -2.296,5.464 -2.296,8.591 0,9.501 7.702,17.201 17.201,17.201 7.357,0 13.618,-4.624 16.077,-11.118 C 1.885,12.78 2.295,10.735 2.295,8.591 2.295,5.464 1.415,2.553 0,0 m -6.951,-17.589 c 0,-0.528 -0.461,-0.957 -1.038,-0.957 h -11.212 -2.627 c -0.574,0 -1.035,0.428 -1.035,0.957 v 0.637 c 0,0.499 0.418,0.9 0.948,0.942 0.032,0.002 0.055,0.016 0.087,0.016 h 13.839 c 0.577,0 1.038,-0.428 1.038,-0.958 z m -7.649,-5.258 c -0.071,0 -0.147,-0.009 -0.214,-0.009 -2.701,0 -5.787,1.275 -5.787,3.189 h 2.6 8.964 c 0,-1.862 -2.92,-3.114 -5.563,-3.18 m -25.328,45.014 c -0.382,0.222 -0.511,0.709 -0.291,1.091 0.219,0.381 0.707,0.506 1.087,0.29 l 7.473,-4.317 c 0.383,-0.219 0.513,-0.707 0.291,-1.085 -0.146,-0.259 -0.413,-0.398 -0.691,-0.398 -0.132,0 -0.27,0.033 -0.395,0.107 z m 10.405,11.787 c 0.384,0.216 0.87,0.09 1.088,-0.291 l 4.317,-7.475 c 0.218,-0.38 0.089,-0.866 -0.292,-1.087 -0.126,-0.072 -0.263,-0.105 -0.397,-0.105 -0.277,0 -0.544,0.142 -0.691,0.396 l -4.315,7.474 c -0.218,0.381 -0.087,0.87 0.29,1.088 m 13.818,3.12 c 0,0.44 0.358,0.797 0.795,0.797 0.444,0 0.799,-0.357 0.799,-0.797 v -8.63 c 0,-0.44 -0.355,-0.797 -0.799,-0.797 -0.437,0 -0.795,0.357 -0.795,0.797 z m 10.011,-10.887 4.314,7.476 c 0.218,0.381 0.704,0.512 1.086,0.294 0.381,-0.221 0.512,-0.707 0.293,-1.089 l -4.317,-7.476 c -0.146,-0.256 -0.415,-0.4 -0.688,-0.4 -0.138,0 -0.27,0.034 -0.4,0.107 -0.377,0.223 -0.51,0.706 -0.288,1.088 m 7.538,-6.956 7.473,4.317 c 0.384,0.216 0.87,0.091 1.088,-0.29 0.223,-0.382 0.092,-0.869 -0.29,-1.091 L 2.637,17.85 C 2.515,17.781 2.378,17.746 2.24,17.746 c -0.271,0 -0.543,0.141 -0.688,0.397 -0.221,0.381 -0.09,0.869 0.292,1.088 M 27.9,24.04 -51.321,69.776 c -2.151,1.243 -3.909,0.226 -3.909,-2.254 v -89.569 c 0,-2.481 2.03,-4.514 4.515,-4.514 h 40.093 37.915 c 2.482,0 4.515,2.033 4.515,4.514 v 1.037 38.28 c 0,2.482 -1.761,5.528 -3.908,6.77"
         style="fill:#7b7979;fill-opacity:1;fill-rule:nonzero;stroke:none"
         transform="matrix(1.3333333,0,0,-1.3333333,436.43387,318.56863)"
         clip-path="url(#clipPath16)" /><g
         opacity="0.199997"
         id="g18"
         clip-path="url(#clipPath19)"
         transform="translate(92.584265,167.54716)"><path
           d="m 0,0 c -1.333,-7.695 -8.027,-13.553 -16.106,-13.553 h -32.727 c -4.376,0 -8.341,1.729 -11.279,4.529 l 16.059,-14.148 h 50.33 c 2.485,0 4.515,2.033 4.515,4.514 v 7.276 L 0.01,0.004 Z"
           style="fill:#110f0d;fill-opacity:1;fill-rule:nonzero;stroke:none"
           transform="matrix(1.3333333,0,0,-1.3333333,243.78053,155.5404)"
           clip-path="url(#clipPath17)"
           id="path18" /></g><path
         id="path25"
         d="m 0,0 h -78.008 c -2.485,0 -4.515,-2.032 -4.515,-4.515 v -89.566 c 0,-2.483 1.757,-3.497 3.908,-2.255 l 21.397,12.353 9.893,5.71 18.576,10.725 29.356,16.947 c 0.315,0.184 0.618,0.414 0.916,0.666 1.709,1.471 2.991,3.987 2.991,6.104 v 6.481 32.835 C 4.514,-2.032 2.481,0 0,0"
         style="fill:#5db4e8;fill-opacity:1;fill-rule:nonzero;stroke:none"
         transform="matrix(1.3333333,0,0,-1.3333333,472.82507,366.01783)"
         clip-path="url(#clipPath26)" /><path
         id="path27"
         d="M 0,0 C -0.482,-0.913 -0.134,-2.046 0.78,-2.527 1.693,-3.011 2.824,-2.662 3.307,-1.748 3.79,-0.834 3.44,0.297 2.527,0.782 1.614,1.262 0.482,0.914 0,0"
         style="fill:#7b7979;fill-opacity:1;fill-rule:nonzero;stroke:none"
         transform="matrix(1.3333333,0,0,-1.3333333,276.6148,407.57836)"
         clip-path="url(#clipPath28)" /><path
         id="path29"
         d="m 0,0 -12.884,5.727 c -2.11,1.114 -2.914,3.725 -1.8,5.833 1.115,2.106 3.724,2.912 5.833,1.798 L 3.137,5.935 c 1.642,6.342 -1.194,13.21 -7.239,16.404 -7.07,3.737 -15.829,1.038 -19.566,-6.029 C -27.405,9.24 -24.703,0.48 -17.635,-3.254 -11.593,-6.452 -4.321,-4.928 0,0"
         style="fill:#7b7979;fill-opacity:1;fill-rule:nonzero;stroke:none"
         transform="matrix(1.3333333,0,0,-1.3333333,293.31147,421.46703)"
         clip-path="url(#clipPath30)" /><g
         opacity="0.199997"
         id="g32"
         clip-path="url(#clipPath33)"
         transform="translate(92.584265,167.54716)"><path
           d="M 0,0 C 0.157,-0.082 0.316,-0.165 0.411,-0.312 L 2.016,-2.871 C 2.264,-3.262 2.188,-3.84 1.852,-4.157 L 0.114,-5.803 c 0.577,-1.329 1.005,-2.715 1.277,-4.134 l 2.363,-0.38 c 0.456,-0.074 0.841,-0.511 0.859,-0.974 l 0.114,-3.019 c 0.016,-0.459 -0.338,-0.927 -0.786,-1.033 l -2.323,-0.556 c -0.163,-1.417 -0.477,-2.829 -0.962,-4.215 l 7.611,-4.712 c 0.333,0.38 0.652,0.782 1.028,1.106 l -0.454,1.198 c -0.089,0.227 0.009,0.525 0.222,0.657 l 1.369,0.861 c 0.209,0.132 0.522,0.093 0.691,-0.09 l 0.881,-0.927 c 0.711,0.308 1.453,0.538 2.214,0.681 l 0.205,1.265 c 0.038,0.245 0.272,0.451 0.519,0.464 l 1.618,0.057 c 0.248,0.012 0.495,-0.179 0.554,-0.421 l 0.297,-1.241 c 0.762,-0.088 1.521,-0.256 2.262,-0.517 l 0.806,0.992 c 0.16,0.192 0.466,0.253 0.682,0.137 l 1.431,-0.755 c 0.219,-0.118 0.343,-0.406 0.271,-0.641 l -0.362,-1.224 c 0.629,-0.47 1.197,-1.004 1.695,-1.583 l 1.198,0.455 c 0.231,0.09 0.528,-0.009 0.658,-0.219 l 0.861,-1.372 c 0.132,-0.207 0.091,-0.519 -0.086,-0.69 l -0.931,-0.878 c 0.309,-0.711 0.538,-1.456 0.681,-2.217 l 1.269,-0.203 c 0.242,-0.04 0.449,-0.275 0.456,-0.521 l 0.063,-1.617 c 0.009,-0.247 -0.18,-0.498 -0.421,-0.556 l -1.243,-0.296 c -0.088,-0.761 -0.256,-1.518 -0.515,-2.262 l 0.991,-0.806 c 0.191,-0.157 0.254,-0.464 0.137,-0.682 l -0.756,-1.433 c -0.115,-0.218 -0.404,-0.338 -0.64,-0.27 l -1.226,0.365 c -0.466,-0.633 -1.001,-1.2 -1.578,-1.698 l 0.453,-1.198 c 0.088,-0.231 -0.01,-0.527 -0.221,-0.658 l -1.37,-0.859 c -0.209,-0.134 -0.519,-0.093 -0.69,0.085 l -0.88,0.931 c -0.713,-0.309 -1.453,-0.538 -2.216,-0.682 l -0.206,-1.266 c -0.039,-0.244 -0.27,-0.452 -0.52,-0.462 l -1.616,-0.06 c -0.246,-0.006 -0.497,0.183 -0.553,0.423 l -0.299,1.241 c -0.758,0.088 -1.518,0.257 -2.261,0.518 l -0.808,-0.993 c -0.155,-0.192 -0.463,-0.252 -0.681,-0.138 l -1.433,0.758 c -0.216,0.115 -0.336,0.405 -0.266,0.639 l 0.363,1.229 c -0.632,0.466 -1.2,0.998 -1.7,1.578 l -1.196,-0.453 c -0.229,-0.093 -0.528,0.007 -0.66,0.218 l -0.859,1.37 c -0.134,0.208 -0.091,0.52 0.088,0.69 l 0.926,0.879 c -0.303,0.713 -0.535,1.455 -0.68,2.217 l -1.264,0.204 c -0.247,0.038 -0.453,0.272 -0.461,0.521 l -0.063,1.617 c -0.007,0.248 0.182,0.496 0.42,0.555 l 1.246,0.295 c 0.057,0.502 0.163,0.999 0.293,1.492 l -8.136,3.619 c -0.871,-1.182 -1.865,-2.235 -2.944,-3.171 l 0.851,-2.23 c 0.163,-0.434 -0.023,-0.986 -0.413,-1.231 L -7.2,-33.636 c -0.39,-0.246 -0.972,-0.171 -1.288,0.164 l -1.646,1.736 c -1.326,-0.574 -2.711,-1.001 -4.133,-1.277 l -0.381,-2.358 c -0.072,-0.456 -0.512,-0.844 -0.972,-0.859 l -3.016,-0.116 c -0.463,-0.015 -0.93,0.34 -1.035,0.786 l -0.557,2.323 c -1.42,0.162 -2.837,0.478 -4.223,0.962 l -1.507,-1.851 c -0.292,-0.356 -0.863,-0.475 -1.271,-0.258 l 37.543,-30.994 21.754,-12.559 c 2.151,-1.241 3.909,-0.227 3.909,2.256 v 47.542 L 0.006,0.031 Z"
           style="fill:#110f0d;fill-opacity:1;fill-rule:nonzero;stroke:none"
           transform="matrix(1.3333333,0,0,-1.3333333,210.20107,223.00387)"
           clip-path="url(#clipPath31)"
           id="path32" /></g><g
         opacity="0.199997"
         id="g35"
         clip-path="url(#clipPath36)"
         transform="translate(92.584265,167.54716)"><path
           d="m 0,0 c 0.718,-1.894 1.129,-3.938 1.129,-6.083 0,-3.127 -0.881,-6.038 -2.296,-8.591 -4.223,-7.606 -5.345,-6.08 -6.033,-10.219 -0.157,-0.932 -0.328,-1.669 -0.548,-2.251 0.327,-0.171 0.541,-0.47 0.541,-0.808 v -0.638 c 0,-0.53 -0.518,-0.957 -1.157,-0.957 h -15.423 c -0.315,0 -0.594,0.105 -0.802,0.272 l 1.507,-1.409 c 0.032,0.002 0.055,0.016 0.088,0.016 h 13.839 c 0.576,0 1.037,-0.428 1.037,-0.958 v -0.637 c 0,-0.528 -0.461,-0.957 -1.037,-0.957 h -11.213 l 1.201,-1.12 h 8.963 c 0,-1.863 -2.92,-3.115 -5.563,-3.181 l 3.979,-3.714 h 37.915 c 2.481,0 4.514,2.033 4.514,4.514 v 1.037 L 0.004,0 Z"
           style="fill:#110f0d;fill-opacity:1;fill-rule:nonzero;stroke:none"
           transform="matrix(1.3333333,0,0,-1.3333333,345.40493,131.4564)"
           clip-path="url(#clipPath34)"
           id="path35" /></g><path
         id="path37"
         d="M 564.348,70.047 H 309.674 v 32.886 h 254.674 z"
         style="fill:#231f20;fill-opacity:1;fill-rule:nonzero;stroke:none"
         transform="matrix(1.3333333,0,0,-1.3333333,92.584265,578.34716)"
         clip-path="url(#clipPath38)" /><g
         id="g42"
         aria-label="MEADOWVALE SS"
         transform="matrix(1.3333333,0,0,1.3333333,515.35774,475.40836)"><path
           id="path43"
           d="m 10.980447,-7.4310562 c 0.140625,0.2666015 0.269531,0.5449218 0.386719,0.8320312 0.123047,0.28125 0.246093,0.5683594 0.363281,0.8554688 0.108398,-0.3046875 0.225586,-0.5976563 0.351562,-0.8789063 0.123047,-0.2871094 0.257813,-0.5654297 0.398438,-0.8320312 l 5.285156,-9.9140623 c 0.07031,-0.123047 0.140625,-0.222656 0.210938,-0.292969 0.07617,-0.07617 0.158203,-0.131836 0.246093,-0.164062 0.08496,-0.03809 0.178711,-0.06152 0.28125,-0.07031 0.108399,-0.0059 0.237305,-0.01172 0.386719,-0.01172 h 2.519531 V -0.00136875 H 18.468728 V -11.567775 c 0,-0.210937 0.0029,-0.445312 0.01172,-0.703125 0.01465,-0.257812 0.03809,-0.518555 0.07031,-0.785156 L 13.136697,-2.8959 c -0.257813,0.4863281 -0.650391,0.7265625 -1.171875,0.7265625 h -0.480469 c -0.524414,0 -0.914062,-0.2402344 -1.171875,-0.7265625 L 4.8398219,-13.091212 c 0.023437,0.27539 0.041016,0.544921 0.058594,0.808593 0.014648,0.257813 0.023437,0.498047 0.023437,0.714844 V -0.00136875 H 1.9921656 V -17.907619 h 2.5195313 c 0.1464844,0 0.2724609,0.0059 0.375,0.01172 0.1083984,0.0088 0.2050781,0.03223 0.2929687,0.07031 0.084961,0.03223 0.1640625,0.08789 0.234375,0.164062 0.070312,0.07031 0.140625,0.169922 0.2109375,0.292969 z m 28.03125,-10.4765628 v 2.648438 h -7.957031 v 4.96875 h 6.269531 v 2.566406 h -6.269531 v 5.0625 h 7.957031 v 2.66015625 H 27.714822 V -17.907619 Z m 20.604492,17.90625025 h -2.578125 c -0.290039,0 -0.524414,-0.0703125 -0.703125,-0.2109375 -0.181641,-0.14648437 -0.316406,-0.328125 -0.410156,-0.5390625 L 54.588845,-4.4076187 h -7.417968 l -1.335938,3.65624995 c -0.06445,0.1875 -0.193359,0.36035156 -0.386719,0.515625 -0.1875,0.15820313 -0.421875,0.234375 -0.703125,0.234375 H 42.143533 L 49.19822,-17.907619 h 3.386719 z M 48.026345,-6.7630875 h 5.707032 l -2.179688,-5.9531245 c -0.102539,-0.263672 -0.210937,-0.577149 -0.328125,-0.9375 -0.117187,-0.357422 -0.234375,-0.75 -0.351562,-1.171875 -0.117188,0.421875 -0.231446,0.817382 -0.339844,1.183593 -0.111328,0.360352 -0.219727,0.676758 -0.328125,0.949219 z m 31.661133,-2.1914062 c 0,1.3125 -0.219726,2.5195312 -0.65625,3.6210937 -0.439453,1.0957031 -1.054687,2.0390625 -1.851562,2.8359375 -0.791016,0.7910156 -1.743164,1.4033203 -2.859375,1.83984375 -1.110352,0.43945313 -2.34961,0.65625 -3.714844,0.65625 H 63.785134 V -17.907619 h 6.820313 c 1.365234,0 2.604492,0.222657 3.714844,0.667969 1.116211,0.439453 2.068359,1.051758 2.859375,1.839844 0.796875,0.791015 1.412109,1.734375 1.851562,2.835937 0.436524,1.095703 0.65625,2.296875 0.65625,3.6093753 z m -3.421875,0 c 0,-0.984375 -0.134765,-1.8632813 -0.398437,-2.6367183 -0.257813,-0.779297 -0.632813,-1.441407 -1.125,-1.980469 -0.486328,-0.544922 -1.078125,-0.963867 -1.78125,-1.253906 -0.697266,-0.28711 -1.482422,-0.433594 -2.355469,-0.433594 h -3.480469 v 12.6093748 h 3.480469 c 0.873047,0 1.658203,-0.1435547 2.355469,-0.4335938 0.703125,-0.2871094 1.294922,-0.703125 1.78125,-1.2421875 0.492187,-0.5390625 0.867187,-1.1982422 1.125,-1.9804687 0.263672,-0.7792969 0.398437,-1.6640625 0.398437,-2.6484375 z m 25.737307,0 c 0,1.3125 -0.21973,2.5283203 -0.65625,3.6445312 -0.43067,1.1191406 -1.04297,2.0859375 -1.839846,2.90625 -0.791016,0.8203125 -1.743164,1.46191406 -2.859375,1.921875 -1.110351,0.45410156 -2.34375,0.6796875 -3.703125,0.6796875 -1.359375,0 -2.598633,-0.22558594 -3.714844,-0.6796875 -1.110351,-0.45996094 -2.0625,-1.1015625 -2.859375,-1.921875 -0.796875,-0.8203125 -1.415039,-1.7871094 -1.851562,-2.90625 -0.439453,-1.1162109 -0.65625,-2.3320312 -0.65625,-3.6445312 0,-1.3125003 0.216797,-2.5253903 0.65625,-3.6445313 0.436523,-1.116211 1.054687,-2.080078 1.851562,-2.894531 0.796875,-0.820313 1.749024,-1.458985 2.859375,-1.921875 1.116211,-0.459961 2.355469,-0.691406 3.714844,-0.691406 0.905274,0 1.757813,0.105468 2.554688,0.316406 0.802734,0.210937 1.538086,0.512695 2.203125,0.902344 0.670898,0.383789 1.271484,0.849609 1.804687,1.394531 0.530276,0.547851 0.978516,1.160156 1.347656,1.839844 0.375,0.673828 0.65918,1.40625 0.85547,2.203125 0.19336,0.791015 0.29297,1.6230464 0.29297,2.4960933 z m -3.410158,0 c 0,-0.984375 -0.134766,-1.8632813 -0.398438,-2.6367183 -0.257812,-0.779297 -0.632812,-1.444336 -1.125,-1.992188 -0.486328,-0.544922 -1.075195,-0.963867 -1.769531,-1.253906 -0.697266,-0.28711 -1.482422,-0.433594 -2.355469,-0.433594 -0.875976,0 -1.664062,0.146484 -2.367187,0.433594 -0.697266,0.290039 -1.289063,0.708984 -1.78125,1.253906 -0.492188,0.547852 -0.873047,1.212891 -1.136719,1.992188 -0.257813,0.773437 -0.386719,1.6523433 -0.386719,2.6367183 0,0.984375 0.128906,1.8691406 0.386719,2.6484375 0.263672,0.7822265 0.644531,1.4414062 1.136719,1.9804687 0.492187,0.5390625 1.083984,0.9550781 1.78125,1.2421875 0.703125,0.2900391 1.491211,0.4335938 2.367187,0.4335938 0.873047,0 1.658203,-0.1435547 2.355469,-0.4335938 0.694336,-0.2871094 1.283203,-0.703125 1.769531,-1.2421875 0.492188,-0.5390625 0.867188,-1.1982422 1.125,-1.9804687 0.263672,-0.7792969 0.398438,-1.6640625 0.398438,-2.6484375 z m 6.500978,-8.9531253 h 2.78906 c 0.28711,0 0.52734,0.07031 0.71484,0.210938 0.19336,0.134765 0.32813,0.316406 0.39844,0.550781 l 3.04688,10.7109375 c 0.0615,0.2578125 0.12304,0.5449219 0.1875,0.8554688 0.0615,0.3134765 0.12304,0.6416015 0.1875,0.984375 0.0703,-0.3427735 0.14355,-0.6708985 0.22265,-0.984375 0.0762,-0.3105469 0.16407,-0.5976563 0.25782,-0.8554688 L 116.41404,-17.1459 c 0.0615,-0.193359 0.19043,-0.369141 0.38672,-0.527344 0.19336,-0.155273 0.43359,-0.234375 0.71484,-0.234375 h 0.97266 c 0.28711,0 0.52148,0.07031 0.70312,0.210938 0.1875,0.140625 0.32227,0.325195 0.41016,0.550781 l 3.50391,10.7109375 c 0.16992,0.5097656 0.32812,1.0986328 0.46875,1.7695313 0.1084,-0.65625 0.22851,-1.2451172 0.36328,-1.7695313 L 126.98435,-17.1459 c 0.0469,-0.210937 0.16993,-0.389648 0.375,-0.539062 0.20215,-0.146485 0.44532,-0.222657 0.72657,-0.222657 h 2.61328 l -5.56641,17.90625025 h -3 L 118.21873,-12.235744 c -0.0644,-0.155273 -0.11719,-0.322265 -0.16406,-0.503906 -0.0469,-0.178711 -0.0996,-0.369141 -0.15235,-0.574219 -0.041,0.205078 -0.0879,0.395508 -0.14062,0.574219 -0.0557,0.181641 -0.10547,0.348633 -0.15235,0.503906 l -3.94922,12.23437525 h -3.02343 z m 27.99609,0 h 2.6836 c 0.28711,0 0.52148,0.07031 0.70312,0.210938 0.17871,0.140625 0.31641,0.325195 0.41016,0.550781 l 4.21875,10.921875 c 0.14062,0.3515625 0.27246,0.7441406 0.39843,1.171875 0.13184,0.421875 0.25196,0.8642578 0.36329,1.3242188 0.0937,-0.459961 0.19921,-0.9023438 0.3164,-1.3242188 0.12305,-0.4277344 0.25781,-0.8203125 0.39844,-1.171875 l 4.19531,-10.921875 c 0.0615,-0.193359 0.19043,-0.369141 0.38672,-0.527344 0.19336,-0.155273 0.43359,-0.234375 0.71484,-0.234375 h 2.6836 l -7.23047,17.90625025 h -3.01172 z m 35.56934,17.90625025 h -2.57813 c -0.29004,0 -0.52441,-0.0703125 -0.70312,-0.2109375 -0.18164,-0.14648437 -0.31641,-0.328125 -0.41016,-0.5390625 l -1.33594,-3.65624995 h -7.41796 l -1.33594,3.65624995 c -0.0645,0.1875 -0.19336,0.36035156 -0.38672,0.515625 -0.1875,0.15820313 -0.42188,0.234375 -0.70313,0.234375 h -2.60156 l 7.05469,-17.90625025 h 3.38672 z M 157.06931,-6.7630875 h 5.70704 l -2.17969,-5.9531245 c -0.10254,-0.263672 -0.21094,-0.577149 -0.32813,-0.9375 -0.11718,-0.357422 -0.23437,-0.75 -0.35156,-1.171875 -0.11719,0.421875 -0.23144,0.817382 -0.33984,1.183593 -0.11133,0.360352 -0.21973,0.676758 -0.32813,0.949219 z m 19.08692,4.0078125 h 7.16015 v 2.75390625 H 172.8281 V -17.907619 h 3.32813 z m 23.14746,-15.152344 v 2.648438 h -7.95703 v 4.96875 h 6.26953 v 2.566406 h -6.26953 v 5.0625 h 7.95703 v 2.66015625 H 188.00681 V -17.907619 Z m 0,0"
           style="fill:#5db4e8;fill-opacity:1;fill-rule:nonzero;stroke:none" /><path
           id="path44"
           d="m 222.05271,-15.388087 c -0.0791,0.140625 -0.1875,0.210937 -0.32812,0.210937 -0.11133,0 -0.25196,-0.07324 -0.42188,-0.222656 -0.16406,-0.155274 -0.39258,-0.328125 -0.67968,-0.515625 -0.29004,-0.1875 -0.65333,-0.357422 -1.08985,-0.515625 -0.43066,-0.155274 -0.96094,-0.234375 -1.59375,-0.234375 -0.63281,0 -1.19238,0.09082 -1.67578,0.269531 -0.48633,0.181641 -0.89062,0.430664 -1.21875,0.75 -0.32812,0.313477 -0.58008,0.676758 -0.75,1.089844 -0.16406,0.407226 -0.24609,0.83789 -0.24609,1.289062 0,0.603516 0.12304,1.098633 0.375,1.488282 0.25781,0.383789 0.58886,0.711914 0.99609,0.984375 0.41309,0.27539 0.88184,0.503906 1.40625,0.691406 0.52148,0.1816404 1.06055,0.363281 1.61719,0.550781 0.55371,0.1816406 1.09277,0.3808594 1.61719,0.5976563 0.52148,0.2197265 0.99023,0.4921875 1.40625,0.8203125 0.41308,0.328125 0.74414,0.7353515 0.99609,1.21875 0.24902,0.4863281 0.375,1.086914 0.375,1.8046875 0,0.7353515 -0.12598,1.4267578 -0.375,2.0742187 -0.25195,0.6503906 -0.61817,1.2128906 -1.10156,1.6875 -0.47754,0.47753906 -1.06348,0.85546875 -1.75782,1.13671875 -0.68847,0.27246094 -1.47656,0.41015625 -2.36718,0.41015625 -1.15723,0 -2.15332,-0.20214844 -2.98828,-0.609375 -0.8379,-0.41308594 -1.56739,-0.9755859 -2.19141,-1.6875 l 0.35156,-0.5390625 c 0.0937,-0.1230469 0.20508,-0.1875 0.33985,-0.1875 0.0762,0 0.16992,0.052734 0.28125,0.1523438 0.11718,0.09375 0.25781,0.2167968 0.42187,0.3632812 0.16992,0.140625 0.36914,0.2988281 0.59766,0.46875 0.23437,0.1728516 0.5039,0.3339844 0.80859,0.4804688 0.30469,0.140625 0.65039,0.2636718 1.04297,0.3632812 0.39844,0.09375 0.84961,0.140625 1.35937,0.140625 0.69434,0 1.3125,-0.10546875 1.85157,-0.3164062 0.54492,-0.2109375 1.00781,-0.4951172 1.38281,-0.8554688 0.375,-0.3662109 0.65918,-0.7998047 0.85547,-1.3007812 0.20215,-0.4980469 0.30469,-1.03125 0.30469,-1.59375 0,-0.6240235 -0.12891,-1.1367188 -0.38672,-1.5351563 -0.25196,-0.3984375 -0.58301,-0.7294922 -0.9961,-0.9960937 -0.40722,-0.272461 -0.87304,-0.4980469 -1.39453,-0.6796875 -0.52441,-0.178711 -1.06348,-0.3544922 -1.61719,-0.5273438 -0.55664,-0.1787109 -1.0957,-0.375 -1.61718,-0.5859375 -0.52442,-0.2167969 -0.99317,-0.4921875 -1.40625,-0.8203125 -0.41602,-0.333984 -0.74707,-0.75293 -0.9961,-1.253906 -0.25195,-0.498047 -0.375,-1.125 -0.375,-1.875 0,-0.585938 0.1084,-1.151367 0.32813,-1.699219 0.22558,-0.544922 0.55371,-1.025391 0.98437,-1.441406 0.42774,-0.413086 0.95508,-0.744141 1.58203,-0.996094 0.63282,-0.257812 1.35352,-0.386719 2.16797,-0.386719 0.90528,0 1.7168,0.146485 2.4375,0.433594 0.72657,0.290039 1.38574,0.732422 1.98047,1.324219 z m 15.57422,0 c -0.0791,0.140625 -0.1875,0.210937 -0.32812,0.210937 -0.11133,0 -0.25196,-0.07324 -0.42188,-0.222656 -0.16406,-0.155274 -0.39258,-0.328125 -0.67969,-0.515625 -0.29004,-0.1875 -0.65332,-0.357422 -1.08984,-0.515625 -0.43066,-0.155274 -0.96094,-0.234375 -1.59375,-0.234375 -0.63281,0 -1.19238,0.09082 -1.67578,0.269531 -0.48633,0.181641 -0.89063,0.430664 -1.21875,0.75 -0.32813,0.313477 -0.58008,0.676758 -0.75,1.089844 -0.16406,0.407226 -0.24609,0.83789 -0.24609,1.289062 0,0.603516 0.12304,1.098633 0.375,1.488282 0.25781,0.383789 0.58886,0.711914 0.99609,0.984375 0.41308,0.27539 0.88183,0.503906 1.40625,0.691406 0.52148,0.1816404 1.06055,0.363281 1.61719,0.550781 0.55371,0.1816406 1.09277,0.3808594 1.61718,0.5976563 0.52149,0.2197265 0.99024,0.4921875 1.40625,0.8203125 0.41309,0.328125 0.74414,0.7353515 0.9961,1.21875 0.24902,0.4863281 0.375,1.086914 0.375,1.8046875 0,0.7353515 -0.12598,1.4267578 -0.375,2.0742187 -0.25196,0.6503906 -0.61817,1.2128906 -1.10156,1.6875 -0.47754,0.47753906 -1.06348,0.85546875 -1.75782,1.13671875 -0.68847,0.27246094 -1.47656,0.41015625 -2.36718,0.41015625 -1.15723,0 -2.15333,-0.20214844 -2.98829,-0.609375 -0.83789,-0.41308594 -1.56738,-0.9755859 -2.1914,-1.6875 l 0.35156,-0.5390625 c 0.0937,-0.1230469 0.20508,-0.1875 0.33984,-0.1875 0.0762,0 0.16993,0.052734 0.28125,0.1523438 0.11719,0.09375 0.25782,0.2167968 0.42188,0.3632812 0.16992,0.140625 0.36914,0.2988281 0.59766,0.46875 0.23437,0.1728516 0.5039,0.3339844 0.80859,0.4804688 0.30469,0.140625 0.65039,0.2636718 1.04297,0.3632812 0.39844,0.09375 0.84961,0.140625 1.35937,0.140625 0.69434,0 1.3125,-0.10546875 1.85157,-0.3164062 0.54492,-0.2109375 1.00781,-0.4951172 1.38281,-0.8554688 0.375,-0.3662109 0.65918,-0.7998047 0.85547,-1.3007812 0.20214,-0.4980469 0.30468,-1.03125 0.30468,-1.59375 0,-0.6240235 -0.1289,-1.1367188 -0.38671,-1.5351563 -0.25196,-0.3984375 -0.58301,-0.7294922 -0.9961,-0.9960937 -0.40723,-0.272461 -0.87305,-0.4980469 -1.39453,-0.6796875 -0.52441,-0.178711 -1.06348,-0.3544922 -1.61719,-0.5273438 -0.55664,-0.1787109 -1.0957,-0.375 -1.61718,-0.5859375 -0.52442,-0.2167969 -0.99317,-0.4921875 -1.40625,-0.8203125 -0.41602,-0.333984 -0.74708,-0.75293 -0.9961,-1.253906 -0.25195,-0.498047 -0.375,-1.125 -0.375,-1.875 0,-0.585938 0.1084,-1.151367 0.32813,-1.699219 0.22558,-0.544922 0.55371,-1.025391 0.98437,-1.441406 0.42774,-0.413086 0.95508,-0.744141 1.58203,-0.996094 0.63282,-0.257812 1.35352,-0.386719 2.16797,-0.386719 0.90527,0 1.7168,0.146485 2.4375,0.433594 0.72656,0.290039 1.38574,0.732422 1.98047,1.324219 z m 0,0"
           style="fill:#5db4e8;fill-opacity:1;fill-rule:nonzero;stroke:none" /></g><g
         id="g44"
         aria-label="INTERNATIONAL"
         transform="matrix(1.3333333,0,0,1.3333333,502.36614,287.03729)"><path
           id="path45"
           d="M 6.8432875,-0.00138906 H 1.75735 V -33.845139 h 5.0859375 z m 0,0"
           style="fill:#34439f;fill-opacity:1;fill-rule:nonzero;stroke:none" /><path
           id="path46"
           d="m 18.482936,-33.845139 6.75,22.722656 v -22.722656 h 5.109375 V -0.00138906 H 24.857936 L 17.826686,-21.681077 V -0.00138906 H 12.740748 V -33.845139 Z m 22.710937,5.097656 h -5.425781 v -5.097656 h 15.925781 v 5.097656 H 46.29153 V -0.00138906 H 41.193873 Z M 57.122584,-0.00138906 V -33.845139 h 14.519532 v 5.097656 h -9.433594 v 9.257813 h 6.890625 v 5.121093 h -6.890625 v 9.2695317 h 9.433594 v 5.09765624 z M 84.532741,-33.845139 c 2.841797,0 4.927734,0.785156 6.257812,2.355469 1.171875,1.376953 1.757813,3.28125 1.757813,5.71875 v 4.910156 c 0,2.399414 -0.911133,4.423828 -2.730469,6.070312 l 3.785156,14.78906294 H 88.095241 L 84.978053,-12.786545 c -0.149414,0.01758 -0.301758,0.02344 -0.457031,0.02344 H 81.579616 V -0.00138906 H 76.493678 V -33.845139 Z m 3.046875,8.15625 c 0,-1.959961 -0.972657,-2.941406 -2.917969,-2.941406 h -3.082031 v 10.816406 h 3.082031 c 0.820312,0 1.511719,-0.28418 2.074219,-0.855469 0.5625,-0.577148 0.84375,-1.268554 0.84375,-2.074219 z m 17.469724,-8.15625 6.75,22.722656 v -22.722656 h 5.10938 v 33.84374994 h -5.48438 L 104.39309,-21.681077 V -0.00138906 H 99.307155 V -33.845139 Z m 23.99707,26.0742187 -1.24218,7.76953124 h -5.3086 l 5.74219,-33.84374994 h 7.03125 l 5.66016,33.84374994 h -5.34375 l -1.20704,-7.76953124 z m 2.67188,-18.3164067 -1.88672,13.335938 h 3.78516 z m 15.49511,-2.660156 h -5.42578 v -5.097656 h 15.92578 v 5.097656 h -5.40234 v 28.74609394 h -5.09766 z m 21.01758,28.74609394 h -5.08593 V -33.845139 h 5.08593 z M 182.14993,-34.255295 c 2.25,0 4.16308,0.793945 5.74219,2.378906 1.57617,1.579102 2.36718,3.489258 2.36718,5.730469 v 18.4570309 c 0,2.2587891 -0.79394,4.1777344 -2.3789,5.7539063 -1.58789,1.57031249 -3.49805,2.35546874 -5.73047,2.35546874 -2.24414,0 -4.14844,-0.78808594 -5.71875,-2.36718754 -1.56445,-1.5849609 -2.34375,-3.4980468 -2.34375,-5.7421875 V -26.14592 c 0,-2.25 0.79101,-4.163086 2.3789,-5.742188 1.58497,-1.576172 3.48047,-2.367187 5.6836,-2.367187 z m 2.77734,7.992187 c 0,-0.811523 -0.28125,-1.5 -0.84375,-2.0625 -0.5625,-0.5625 -1.25097,-0.84375 -2.0625,-0.84375 -0.80566,0 -1.49707,0.28125 -2.07422,0.84375 -0.58007,0.5625 -0.86718,1.250977 -0.86718,2.0625 v 18.5390627 c 0,0.8056641 0.28711,1.4941406 0.86718,2.0625 0.57715,0.5712891 1.26856,0.8554687 2.07422,0.8554687 0.81153,0 1.5,-0.2841796 2.0625,-0.8554687 0.5625,-0.5683594 0.84375,-1.2568359 0.84375,-2.0625 z m 16.86328,-7.582031 6.75,22.722656 v -22.722656 h 5.10938 v 33.84374994 h -5.48438 L 201.1343,-21.681077 v 21.67968794 h -5.08593 V -33.845139 Z m 24,26.0742187 -1.24218,7.76953124 h -5.3086 l 5.74219,-33.84374994 h 7.03125 l 5.66016,33.84374994 h -5.34375 l -1.20704,-7.76953124 z m 2.67188,-18.3164067 -1.88672,13.335938 h 3.78516 z M 257.1968,-0.00138906 H 243.29837 V -33.845139 h 5.08593 v 28.7812499 h 8.8125 z m 0,0"
           style="fill:#34439f;fill-opacity:1;fill-rule:nonzero;stroke:none" /></g><g
         id="g46"
         aria-label=" BUSINESS"
         transform="matrix(1.3333333,0,0,1.3333471,500.7588,359.54316)"><path
           id="path47"
           d="M 13.993123,-47.53069 H 2.7196859 V 7.0311775e-5 H 14.461873 c 7.476563,0 11.34375,-3.937459411775 11.34375,-11.273321311775 v -3.867148 c 0,-5.027292 -1.558593,-8.624911 -5.566406,-10.195207 3.328125,-1.558578 4.816406,-4.675733 4.816406,-9.57412 v -1.699201 c 0,-7.324144 -3.328125,-10.921763 -11.0625,-10.921763 z m -0.480468,26.144262 c 3.398437,0 4.828125,1.347642 4.828125,5.765566 v 4.148394 c 0,3.5273077 -1.359375,4.687452 -3.878907,4.687452 H 10.18453 v -14.601412 z m 0.269531,-19.359175 c 2.648437,0 3.808594,1.488265 3.808594,4.886668 v 2.64841 c 0,3.808555 -1.699219,5.027292 -4.488282,5.027292 H 10.18453 v -12.56237 z m 0,0"
           style="fill:#231f20;fill-opacity:1;fill-rule:nonzero;stroke:none" /><path
           id="path48"
           d="m 32.731405,-47.53069 v 36.187127 c 0,7.6053906 3.796875,11.95300203 11.132812,11.95300203 7.335938,0 11.144531,-4.34761143 11.144531,-11.95300203 V -47.53069 h -7.066406 v 36.667591 c 0,3.3984025 -1.5,4.6171399 -3.867187,4.6171399 -2.378907,0 -3.878907,-1.2187374 -3.878907,-4.6171399 V -47.53069 Z m 29.203125,11.402226 c 0,13.581892 14.601562,15.421717 14.601562,25.195053 0,3.3984027 -1.5,4.6171402 -3.878906,4.6171402 -2.378906,0 -3.867188,-1.2187375 -3.867188,-4.6171402 v -3.398402 h -7.066406 v 2.917938 c 0,7.6053908 3.808594,11.95300225 11.144531,11.95300225 7.335938,0 11.132813,-4.34761145 11.132813,-11.95300225 0,-13.581891 -14.601563,-15.409997 -14.601563,-25.195052 0,-3.386684 1.359375,-4.675733 3.738282,-4.675733 2.378906,0 3.738281,1.289049 3.738281,4.675733 v 1.980448 h 7.054687 v -1.499985 c 0,-7.60539 -3.726562,-11.953001 -11.003906,-11.953001 -7.265625,0 -10.992187,4.347611 -10.992187,11.953001 z M 91.061483,7.0311775e-5 h 7.464844 V -47.53069 h -7.464844 z m 31.649417,0 h 7.66406 V -47.53069 h -6.64453 v 28.452832 l -7.67578,-28.452832 h -9.375 V 7.0311775e-5 h 6.72656 V -34.429262 Z M 145.99312,-40.745603 h 12.90235 V -47.53069 H 138.52828 V 7.0311775e-5 h 20.36719 V -6.785016 h -12.90235 v -13.921731 h 10.25391 v -6.796805 h -10.25391 z m 19.35938,4.617139 c 0,13.581892 14.60156,15.421717 14.60156,25.195053 0,3.3984027 -1.5,4.6171402 -3.87891,4.6171402 -2.3789,0 -3.86718,-1.2187375 -3.86718,-4.6171402 v -3.398402 h -7.06641 v 2.917938 c 0,7.6053908 3.80859,11.95300225 11.14453,11.95300225 7.33594,0 11.13281,-4.34761145 11.13281,-11.95300225 0,-13.581891 -14.60156,-15.409997 -14.60156,-25.195052 0,-3.386684 1.35938,-4.675733 3.73828,-4.675733 2.37891,0 3.73828,1.289049 3.73828,4.675733 v 1.980448 h 7.05469 v -1.499985 c 0,-7.60539 -3.72656,-11.953001 -11.0039,-11.953001 -7.26563,0 -10.99219,4.347611 -10.99219,11.953001 z m 28.18066,0 c 0,13.581892 14.60156,15.421717 14.60156,25.195053 0,3.3984027 -1.5,4.6171402 -3.8789,4.6171402 -2.37891,0 -3.86719,-1.2187375 -3.86719,-4.6171402 v -3.398402 h -7.06641 v 2.917938 c 0,7.6053908 3.8086,11.95300225 11.14454,11.95300225 7.33593,0 11.13281,-4.34761145 11.13281,-11.95300225 0,-13.581891 -14.60156,-15.409997 -14.60156,-25.195052 0,-3.386684 1.35937,-4.675733 3.73828,-4.675733 2.3789,0 3.73828,1.289049 3.73828,4.675733 v 1.980448 h 7.05469 v -1.499985 c 0,-7.60539 -3.72657,-11.953001 -11.00391,-11.953001 -7.26563,0 -10.99219,4.347611 -10.99219,11.953001 z m 0,0"
           style="fill:#231f20;fill-opacity:1;fill-rule:nonzero;stroke:none" /></g><path
         id="path49"
         d="m 828.76396,308.58622 v 16.14063 h 15.42187 v 2.60937 h -15.42187 v 16.20313 h -2.79688 v -16.20313 h -15.39062 v -2.60937 h 15.39062 v -16.14063 z m 0,0"
         style="fill:#5db4e8;fill-opacity:1;fill-rule:nonzero;stroke:none;stroke-width:1.33334"
         aria-label=" +" /><g
         id="g49"
         aria-label="TECHNOLOGY "
         transform="matrix(1.3333333,0,0,1.3333449,500.75614,425.09129)"><path
           id="path50"
           d="M 8.6836,-34.770102 H 2.1328188 V -40.94583 H 21.386725 v 6.175728 H 14.859381 V -8.734299e-4 H 8.6836 Z m 0,0"
           style="fill:#231f20;fill-opacity:1;fill-rule:nonzero;stroke:none" /><path
           id="path51"
           d="M 28.201178,-8.734299e-4 V -40.94583 h 17.554688 v 6.175728 H 34.353522 v 11.203027 h 8.320312 v 6.187447 H 34.353522 V -6.176601 H 45.755866 V -8.734299e-4 Z M 61.664069,0.51474708 c -2.71875,0 -5.033203,-0.94921049 -6.9375,-2.84763148 -1.898438,-1.898421 -2.847656,-4.2011353 -2.847656,-6.9140023 V -31.676379 c 0,-2.709937 0.955078,-5.018511 2.871093,-6.925721 1.913086,-1.90428 4.21875,-2.85935 6.914063,-2.85935 2.724609,0 5.033203,0.957999 6.925781,2.871069 1.889648,1.915999 2.835938,4.218713 2.835938,6.914002 v 4.67574 H 65.02735 v -4.781208 c 0,-0.990226 -0.348633,-1.833968 -1.042969,-2.531228 -0.697265,-0.69433 -1.535156,-1.04296 -2.519531,-1.04296 -0.978516,0 -1.810547,0.34863 -2.496094,1.04296 -0.688476,0.69726 -1.03125,1.541002 -1.03125,2.531228 v 22.4646484 c 0,0.9843664 0.342774,1.8251794 1.03125,2.5195093 0.685547,0.6884706 1.517578,1.031241 2.496094,1.031241 0.984375,0 1.822266,-0.3427704 2.519531,-1.031241 0.694336,-0.6943299 1.042969,-1.5351429 1.042969,-2.5195093 v -5.6366694 h 6.398438 v 5.7069813 c 0,2.7187263 -0.958008,5.0273 -2.871094,6.925721 -1.916016,1.89256162 -4.212891,2.83591278 -6.890625,2.83591278 z M 84.52442,-17.332754 V -8.734299e-4 H 78.325202 V -40.94583 h 6.199218 v 17.402193 h 7.382813 V -40.94583 h 6.199219 V -8.734299e-4 H 91.907233 V -17.332754 Z m 27.90234,-23.613076 8.16797,27.503667 V -40.94583 h 6.17578 V -8.734299e-4 h -6.62109 L 111.64161,-26.215489 V -8.734299e-4 h -6.15235 V -40.94583 Z m 31.33008,-0.492183 c 2.72461,0 5.04199,0.958 6.94922,2.871069 1.9043,1.915999 2.85938,4.227502 2.85938,6.937439 v 22.3357437 c 0,2.7275153 -0.95801,5.044878 -2.8711,6.9491583 -1.91601,1.90720993 -4.22754,2.85935008 -6.9375,2.85935008 -2.7041,0 -5.0039,-0.95506981 -6.90234,-2.87106878 -1.89258,-1.9130693 -2.83594,-4.2245726 -2.83594,-6.9374396 V -31.629505 c 0,-2.724585 0.95508,-5.041948 2.87109,-6.949158 1.91309,-1.90428 4.20118,-2.85935 6.86719,-2.85935 z m 3.375,9.679603 c 0,-0.990225 -0.3457,-1.828109 -1.03125,-2.50779 -0.67969,-0.679682 -1.51172,-1.019523 -2.49609,-1.019523 -0.97852,0 -1.81348,0.339841 -2.50781,1.019523 -0.69727,0.679681 -1.04297,1.517565 -1.04297,2.50779 v 22.4177741 c 0,0.9785071 0.3457,1.8105311 1.04297,2.496072 0.69433,0.6884706 1.52929,1.031241 2.50781,1.031241 0.98437,0 1.8164,-0.3427704 2.49609,-1.031241 0.68555,-0.6855409 1.03125,-1.5175649 1.03125,-2.496072 z m 30.55371,31.7575365701 h -16.8164 V -40.94583 h 6.15234 v 34.8161036 h 10.66406 z M 193.50294,-41.438013 c 2.72461,0 5.04199,0.958 6.94921,2.871069 1.9043,1.915999 2.85938,4.227502 2.85938,6.937439 v 22.3357437 c 0,2.7275153 -0.95801,5.044878 -2.87109,6.9491583 -1.91602,1.90720993 -4.22754,2.85935008 -6.9375,2.85935008 -2.70411,0 -5.00391,-0.95506981 -6.90235,-2.87106878 -1.89258,-1.9130693 -2.83594,-4.2245726 -2.83594,-6.9374396 V -31.629505 c 0,-2.724585 0.95508,-5.041948 2.8711,-6.949158 1.91308,-1.90428 4.20117,-2.85935 6.86719,-2.85935 z m 3.375,9.679603 c 0,-0.990225 -0.34571,-1.828109 -1.03125,-2.50779 -0.67969,-0.679682 -1.51172,-1.019523 -2.4961,-1.019523 -0.97851,0 -1.81347,0.339841 -2.50781,1.019523 -0.69727,0.679681 -1.04297,1.517565 -1.04297,2.50779 v 22.4177741 c 0,0.9785071 0.3457,1.8105311 1.04297,2.496072 0.69434,0.6884706 1.5293,1.031241 2.50781,1.031241 0.98438,0 1.81641,-0.3427704 2.4961,-1.031241 0.68554,-0.6855409 1.03125,-1.5175649 1.03125,-2.496072 z M 220.2627,0.51474708 c -2.71875,0 -5.0332,-0.95506981 -6.9375,-2.87106878 -1.89844,-1.9130693 -2.84765,-4.2099243 -2.84765,-6.890565 V -31.676379 c 0,-2.709937 0.95507,-5.018511 2.87109,-6.925721 1.91309,-1.90428 4.21875,-2.85935 6.91406,-2.85935 2.72461,0 5.0332,0.957999 6.92578,2.871069 1.88965,1.915999 2.83594,4.218713 2.83594,6.914002 v 4.67574 h -6.39844 v -4.781208 c 0,-0.990226 -0.34863,-1.833968 -1.04297,-2.531228 -0.69726,-0.69433 -1.53515,-1.04296 -2.51953,-1.04296 -0.97851,0 -1.81054,0.34863 -2.49609,1.04296 -0.68848,0.69726 -1.03125,1.541002 -1.03125,2.531228 v 22.4646484 c 0,0.9843664 0.34277,1.8251794 1.03125,2.5195093 0.68555,0.6884706 1.51758,1.031241 2.49609,1.031241 0.98438,0 1.82227,-0.3427704 2.51953,-1.031241 0.69434,-0.6943299 1.04297,-1.5351429 1.04297,-2.5195093 v -8.0624294 h -3.43359 v -6.164009 h 9.83203 v 14.2967503 c 0,2.7187263 -0.95801,5.0273 -2.87109,6.925721 -1.91602,1.89256162 -4.21289,2.83591278 -6.89063,2.83591278 z M 242.71876,-17.145256 234.45704,-40.94583 h 6.77344 l 4.58203,14.706904 4.53515,-14.706904 h 6.82032 l -8.29688,23.800574 V -8.734299e-4 h -6.15234 z m 0,0"
           style="fill:#231f20;fill-opacity:1;fill-rule:nonzero;stroke:none" /></g><path
         id="path20"
         d="M 0,0 0.009,-0.017 C 0.006,-0.01 0.003,-0.005 0.003,0 Z"
         style="display:inline;fill:#a2d95d;fill-opacity:1;fill-rule:nonzero;stroke:none"
         transform="matrix(1.3333333,0,0,-1.3333333,372.11414,402.71449)"
         clip-path="url(#clipPath21)" /><g
         opacity="0.199997"
         id="g23"
         clip-path="url(#clipPath24)"
         transform="translate(92.584265,167.54716)"
         style="display:inline"><path
           d="M 0,0 0.009,-0.017 C 0.006,-0.01 0.003,-0.005 0.003,0 Z"
           style="fill:#110f0d;fill-opacity:1;fill-rule:nonzero;stroke:none"
           transform="matrix(1.3333333,0,0,-1.3333333,279.52987,235.16733)"
           clip-path="url(#clipPath22)"
           id="path23" /></g><g
         opacity="0.199997"
         id="g40"
         clip-path="url(#clipPath41)"
         transform="translate(92.584265,167.54716)"
         style="display:inline"><path
           d="M 0,0 16.976,-27.056 59.063,-2.653 42.794,27.94 Z"
           style="fill:#110f0d;fill-opacity:1;fill-rule:nonzero;stroke:none"
           transform="matrix(1.3333333,0,0,-1.3333333,299.00707,264.3808)"
           clip-path="url(#clipPath39)"
           id="path40" /></g><ellipse
         style="display:inline;fill:#7b7979;fill-opacity:1;stroke:#000000;stroke-width:0.944883;stroke-linecap:square;stroke-miterlimit:2;paint-order:fill markers stroke"
         id="path52"
         cx="418.89346"
         cy="412.81409"
         rx="34.468712"
         ry="34.570427" /><g
         id="g52"
         style="display:inline"><path
           id="path1-4"
           style="display:inline;fill:#ffffff;stroke:#ffffff;stroke-width:0.944876;stroke-linecap:square;stroke-miterlimit:2;paint-order:fill markers stroke"
           d="m 418.89348,378.24365 c -19.09275,-6e-5 -34.57049,15.47768 -34.57043,34.57043 -5e-5,19.09274 15.47769,34.57048 34.57043,34.57042 19.09274,5e-5 34.57047,-15.47768 34.57042,-34.57042 6e-5,-19.09274 -15.47768,-34.57048 -34.57042,-34.57043 z m 0,7.67832 c 7.60871,0.0281 14.84943,3.27798 19.9275,8.94424 0.67682,-0.34574 1.39991,-0.72807 1.87774,-0.96001 0.89055,-0.43228 1.60567,-0.76005 2.20323,-0.98994 0.59748,-0.22985 1.03789,-0.40178 1.65775,-0.36754 h 2.3e-4 c 0.30997,0.0172 0.73207,0.13005 1.04998,0.45212 0.31799,0.32214 0.4238,0.74483 0.4366,1.04841 0.0256,0.60717 -0.14584,1.01078 -0.34707,1.52797 -0.0281,0.0723 -0.17718,0.6758 -0.24181,1.21914 -0.15085,1.26836 -0.36769,2.00167 -0.83562,2.79547 -0.38353,0.65063 -0.32892,0.48929 -0.42782,1.47871 -0.0678,0.67797 -0.19396,1.29573 -0.37137,1.87279 0.61589,1.53647 1.08861,3.12653 1.41213,4.74992 0.17243,0.13372 0.28375,0.28917 0.3311,0.37856 0.0952,0.17975 0.103,0.2622 0.11562,0.32548 0.0254,0.12656 0.0223,0.16846 0.0236,0.20941 0.003,0.0819 3.6e-4,0.12343 -0.002,0.17208 -0.005,0.0973 -0.0133,0.19899 -0.0247,0.32187 -0.0228,0.24577 -0.0576,0.56447 -0.0985,0.90963 -0.003,0.0245 -0.006,0.0439 -0.009,0.0686 0.11821,0.90748 0.19002,1.82039 0.21515,2.73519 -6e-5,14.85208 -12.04003,26.89205 -26.89211,26.89211 -4.63439,-0.0233 -9.18411,-1.2439 -13.20785,-3.54338 l 0.0382,0.0911 -0.35765,0.79289 c -0.16762,0.37171 -0.49336,0.74092 -0.8525,0.96339 -0.35913,0.22247 -0.72744,0.34244 -1.15368,0.45346 -0.36831,0.0957 -0.75579,0.224 -1.29201,0.0927 -0.53623,-0.13133 -0.8177,-0.41989 -1.10465,-0.67593 -0.32484,-0.29002 -0.40201,-0.28479 -0.41545,-0.28566 -0.0134,-8.7e-4 -0.20073,0.0187 -0.65411,0.29264 -0.53765,0.32485 -1.15698,0.5189 -1.64831,0.51847 -0.46927,-4.3e-4 -1.10854,-0.10376 -1.58757,-0.47484 -0.47903,-0.37108 -0.73605,-0.7982 -1.10915,-1.39571 -0.25384,-0.40652 -0.58918,-0.78704 -0.47461,-1.56193 0.0573,-0.38745 0.28761,-0.72686 0.48743,-0.92021 0.19982,-0.19334 0.37914,-0.30301 0.56368,-0.41455 0.0744,-0.0449 0.47062,-0.35149 0.60912,-0.4881 0.25794,-0.25441 0.58104,-0.55173 0.82483,-0.75173 0.2286,-0.18805 0.60249,-1.04774 1.39661,-1.29111 0.0898,-0.0275 0.17153,-0.0418 0.25508,-0.0589 -2.02586,-2.19639 -3.67152,-4.71505 -4.86933,-7.45248 -0.2545,-0.0804 -0.49583,-0.17893 -0.72991,-0.31851 -0.51566,-0.30748 -0.89358,-0.81868 -1.1114,-1.30056 -0.42344,-0.93681 -0.22204,-1.88296 0.14756,-2.79434 0.0388,-0.0957 0.0908,-0.19178 0.13473,-0.2877 -0.49137,-1.99061 -0.75347,-4.03089 -0.78119,-6.08106 6e-5,-14.85208 12.04003,-26.89205 26.89211,-26.89211 z"
           sodipodi:nodetypes="ccsscccssssssssssccscccsscccccsscscsssssssssssccssscccc" /><g
           id="g27"
           style="stroke-width:8.68315"
           transform="matrix(0.43527222,0,0,0.43527222,358.08595,365.82644)"><path
             style="font-variation-settings:normal;display:inline;opacity:1;vector-effect:none;fill:#ffffff;fill-opacity:1;stroke:none;stroke-width:0.868315;stroke-linecap:butt;stroke-linejoin:miter;stroke-miterlimit:4;stroke-dasharray:none;stroke-dashoffset:0;stroke-opacity:1;-inkscape-stroke:none;stop-color:#000000;stop-opacity:1"
             d="m 90.771413,121.1065 c 0.167042,-0.0334 1.284599,-1.01942 1.76831,-1.67009 0.737145,-0.99158 1.366291,-2.1128 1.660763,-3.31382 0.496641,-2.02556 1.155123,-4.58049 2.46422,-6.40177 1.05254,-1.46436 3.493824,-3.20311 5.672794,-3.95559 3.90146,-1.34731 7.87886,-1.79353 11.11841,0.007 1.91507,1.0642 2.94081,3.35669 3.47451,5.57925 0,0 -1.23683,-0.8622 -1.81743,-1.21273 -2.69368,-1.62628 -4.80294,-1.85349 -7.47019,-1.42655 2.2623,1.1119 2.39914,1.64651 2.53906,2.90656 -1.43825,-1.08086 -3.07789,-0.84583 -4.54358,-0.0334 6.39685,2.19604 5.96968,5.41692 5.98016,6.41447 -2.06106,-1.62142 -2.66454,-1.72274 -4.6104,-1.80407 0.14328,0.22146 3.48538,4.78911 2.67269,8.38558 -5.05792,-6.45042 -9.54034,-3.1802 -11.058275,-0.66818 l -1.269529,0.0334 c 0.341394,-2.21579 0.476655,-3.05908 0.167047,-5.3788 -1.50425,1.25458 -2.996274,2.46752 -5.011304,2.70611 -0.580398,0.0397 -1.737256,-0.16704 -1.737256,-0.16704 z"
             id="path8-0"
             sodipodi:nodetypes="casssacscccccccccscc" /><path
             style="font-variation-settings:normal;display:inline;opacity:1;vector-effect:none;fill:#17aaea;fill-opacity:1;stroke:none;stroke-width:0.868315;stroke-linecap:butt;stroke-linejoin:miter;stroke-miterlimit:4;stroke-dasharray:none;stroke-dashoffset:0;stroke-opacity:1;-inkscape-stroke:none;stop-color:#000000;stop-opacity:1"
             d="m 198.24726,71.026871 c -12.2927,11.426762 -22.53346,13.782993 -32.92761,13.714269 -0.38972,-0.01495 -3.94538,-0.184106 -5.5496,-1.426472 0,0 2.61478,0.208232 3.92456,0.271857 8.71161,0.423182 21.2938,-1.819201 33.08266,-13.227822 0.6724,-0.650713 1.24102,-1.411686 1.73725,-2.204974 0.40677,-0.650281 0.84379,-1.32086 1.00226,-2.071338 0.13352,-0.632342 0.32493,-1.423671 -0.0668,-1.937705 -0.2263,-0.296952 -0.696,-0.319497 -1.06907,-0.334087 -0.79903,-0.03125 -1.58387,0.270346 -2.33861,0.53454 -12.22181,5.169492 -18.43465,10.38134 -25.38656,12.05851 -7.15919,1.819036 -11.37484,-4.492593 -17.24293,-6.178582 -2.52002,-0.724039 -7.684,-1.681899 -7.684,-1.681899 0,0 -0.25221,2.0881 -0.53859,3.175506 -0.58843,2.234332 -0.93824,3.47781 -1.95017,5.062851 -0.41948,0.657048 -0.97402,1.316435 -1.57021,1.870887 -0.56043,0.521188 -1.86097,1.344699 -1.86097,1.344699 -0.27627,1.331601 -0.54287,1.916499 -1.24603,2.87315 -0.80212,1.091275 -2.10302,1.808961 -3.49222,1.919655 -0.17654,2.21396 -1.49452,4.436318 -3.39327,5.379469 -1.29714,0.644318 -2.71098,0.501502 -4.08291,0.523421 -1.94287,0.03104 -3.00521,-0.07281 -5.80276,-0.556158 -3.04284,-0.496489 -6.20948,-1.379426 -9.31233,-0.879844 -3.13746,0.706508 -4.95592,3.851956 -1.4955,6.091603 11.98059,-2.184614 19.72695,-0.281011 26.59332,2.472242 0,0 -0.073,-1.123521 0.0802,-1.653729 0.14222,-0.492264 0.38649,-0.983373 0.75583,-1.338531 0.60452,-0.581306 1.39906,-1.135394 2.23759,-1.150416 5.19256,-0.09302 11.35962,2.265122 23.31935,2.806322 6.60627,0.410742 13.11422,0.186377 19.51068,-1.570207 3.55362,-1.073477 11.49493,-4.551776 11.89349,-14.26551 -15.37284,11.167813 -30.98179,10.586386 -35.14594,8.619442 11.67119,-0.0258 15.13608,-0.887086 21.948,-2.996598 4.14917,-1.66584 9.19306,-3.808015 12.73769,-7.245679 1.69409,-1.870226 3.25916,-4.058229 3.3332,-7.998872 z"
             id="path2-2"
             sodipodi:nodetypes="cscssaaaaasacssacscsasaccaasascccsc" /><path
             style="font-variation-settings:normal;display:inline;opacity:1;vector-effect:none;fill:#17aaea;fill-opacity:1;stroke:none;stroke-width:0.868315;stroke-linecap:butt;stroke-linejoin:miter;stroke-miterlimit:4;stroke-dasharray:none;stroke-dashoffset:0;stroke-opacity:1;-inkscape-stroke:none;stop-color:#000000;stop-opacity:1"
             d="m 104.23511,97.185881 c -2.25477,-1.768519 -1.94494,-3.959492 -1.60363,-6.548104 0,0 -1.87093,0.185901 -2.772923,0.434313 -6.831544,1.807254 -9.015361,7.084519 -5.646106,9.85557 0.603432,0.49629 1.626213,-0.0827 2.283325,-0.5295 1.286513,-0.87478 3.463167,-2.009266 7.739334,-3.212279 z"
             id="path3-2"
             sodipodi:nodetypes="ccsasc" /><path
             style="font-variation-settings:normal;display:inline;opacity:1;vector-effect:none;fill:#17aaea;fill-opacity:1;stroke:none;stroke-width:0.868315;stroke-linecap:butt;stroke-linejoin:miter;stroke-miterlimit:4;stroke-dasharray:none;stroke-dashoffset:0;stroke-opacity:1;-inkscape-stroke:none;stop-color:#000000;stop-opacity:1"
             d="m 143.96168,104.13244 c 1.8942,3.33276 4.32504,6.36339 7.60677,8.40997 12.71881,7.51727 39.85165,1.64227 44.45945,0.56695 1.81477,-5.31687 2.46755,-9.88513 2.83482,-15.21349 l -6.99256,3.54348 c 0,0 -0.0211,0.009 -0.0317,0.0126 -16.69977,6.56814 -27.73277,10.1363 -47.87683,2.6808 z"
             id="path4-1"
             sodipodi:nodetypes="cscccacc" /><path
             style="font-variation-settings:normal;display:inline;opacity:1;vector-effect:none;fill:#ffffff;fill-opacity:1;stroke:none;stroke-width:0.868315;stroke-linecap:butt;stroke-linejoin:miter;stroke-miterlimit:4;stroke-dasharray:none;stroke-dashoffset:0;stroke-opacity:1;-inkscape-stroke:none;stop-color:#000000;stop-opacity:1"
             d="m 134.1763,84.835137 c -1.06028,5.14021 -3.74439,5.105593 -7.78077,4.92261 -1.27299,-0.07392 -2.54337,-0.214166 -3.80334,-0.410275 -1.08932,-0.169548 -2.15165,-0.488807 -3.24048,-0.661458 -1.44639,-0.22935 -2.90101,-0.473155 -4.36529,-0.496082 -1.02915,-0.01611 -2.08788,-0.03052 -3.0775,0.25244 -0.92962,0.265806 -1.90254,0.636435 -2.57931,1.326965 -0.66095,0.674391 -1.10708,1.610439 -1.245,2.544593 -0.1192,0.807363 1.8e-4,1.701847 0.39456,2.416344 0.25221,0.456931 1.17306,1.037063 1.17306,1.037063 l -4.08617,1.010773 c 0,0 -0.966,-0.493634 -1.2431,-0.930899 -0.51622,-0.814591 -0.67537,-1.874927 -0.57947,-2.834532 0.65318,-6.535686 11.78561,-15.582713 12.23412,-15.944684 8.83248,-7.128339 17.84651,-8.752353 23.78921,-8.876708 1.6583,-0.0347 4.90357,0.269645 4.90357,0.269645 -0.56687,4.678331 -1.74126,8.788932 -5.81139,10.819569 -4.06006,1.631674 -7.84961,1.12981 -11.76451,-0.283479 3.92122,2.136426 5.79259,2.55538 11.92191,1.186203 -0.12258,0.561044 -1.25113,4.360561 -7.07908,3.987349 -2.08735,-0.13367 -3.84852,-0.119371 -6.26024,-1.157553 0,0 0.47096,0.791558 0.86952,0.953046 2.74509,1.112244 4.69302,1.08042 7.6297,0.86907 z"
             id="path5-8"
             sodipodi:nodetypes="caaaaaaaaccaaascsccscsc" /><path
             style="font-variation-settings:normal;display:inline;opacity:1;vector-effect:none;fill:#17aaea;fill-opacity:1;stroke:none;stroke-width:0.868315;stroke-linecap:butt;stroke-linejoin:miter;stroke-miterlimit:4;stroke-dasharray:none;stroke-dashoffset:0;stroke-opacity:1;-inkscape-stroke:none;stop-color:#000000;stop-opacity:1"
             d="m 154.53524,130.36071 c -6.63886,-2.86604 -12.94921,-6.61492 -12.94921,-6.61492 0,0 -1.26156,1.27724 -2.07134,1.26953 0,0 -4.57202,0.86978 -6.36101,-0.0434 -0.43552,-0.22231 -0.95432,-0.39374 -1.20271,-1.26953 -0.31673,-1.11674 -0.25389,-1.627 -0.25389,-1.627 l 2.47224,1.06907 c 0,0 -0.0563,-0.90961 -0.20045,-1.33634 -0.32549,-0.96325 -1.12762,-1.66967 -1.46998,-2.6727 -0.73441,-2.15165 -0.11356,-4.50103 -0.26727,-6.81537 -0.16518,-2.48716 -1.4126,-9.6529 -10.08943,-14.165288 -1.29531,-0.673625 -4.07588,-1.603636 -4.07588,-1.603636 0,0 3.37838,-0.623349 5.07812,-0.53454 2.56942,0.134249 5.0967,0.829352 7.55037,1.603618 1.42573,0.449897 7.02051,2.393516 10.89123,6.280836 1.96056,1.96897 2.86162,6.16913 8.55262,9.42125 18.57873,9.34756 42.07053,2.95552 44.76765,2.07134 -0.88371,3.76283 -3.08077,6.96723 -5.34539,10.0226 -4.53736,0.23945 -10.97381,0.28395 -16.43708,-0.13363 -9.7394,-0.74442 -22.02976,-4.857 -25.45742,-6.48129 5.31209,6.26791 22.20662,7.98374 30.19478,8.68626 3.76335,0.27234 10.22974,0 10.22974,0 -3.3686,3.44271 -7.10513,8.58383 -11.39237,10.25647 -5.29257,0.26458 -15.43922,-4.48048 -22.16332,-7.38332 z"
             id="path6-5"
             sodipodi:nodetypes="scsssccassacaaasccacscss" /><path
             style="font-variation-settings:normal;display:inline;opacity:1;vector-effect:none;fill:#17aaea;fill-opacity:1;stroke:none;stroke-width:0.868315;stroke-linecap:butt;stroke-linejoin:miter;stroke-miterlimit:4;stroke-dasharray:none;stroke-dashoffset:0;stroke-opacity:1;-inkscape-stroke:none;stop-color:#000000;stop-opacity:1"
             d="m 100.16369,142.40253 c -0.0195,-0.007 2.8764,-3.36677 4.53761,-4.81872 2.07297,-1.81186 4.11498,-3.92346 5.14803,-4.96142 1.03305,-1.03796 1.26149,-1.44339 1.26149,-1.44339 0,0 0.17379,1.46604 0.009,2.95294 -0.0476,0.43089 -0.0812,1.02102 0.24096,1.27803 0.28725,0.22912 0.86768,-0.28479 1.03944,-0.45003 0.59022,-0.56784 0.95553,-1.4204 1.28985,-2.20289 0.74221,-1.73718 1.37373,-4.12378 1.55442,-5.44995 0.0948,-0.69595 0.17954,-3.56715 0.17954,-3.56715 0,0 0.92639,0.75983 1.23315,1.2615 0.56586,0.92541 1.03471,3.08523 1.03471,3.08523 0,0 0.41598,-2.36896 0.53153,-3.56478 0.13824,-1.43076 0.18581,-2.12326 0.0354,-6.92406 0.93596,1.11212 1.44173,2.08123 1.98201,3.21989 0.392,0.82616 0.90006,2.59149 0.90006,2.59149 2.32419,-4.77462 0.92372,-10.43071 -1.6064,-14.2686 -1.57851,-2.39442 -4.28525,-4.78926 -7.27416,-5.44758 -8.37466,-1.84457 -16.898472,2.81971 -18.428221,9.79431 0,0 -0.629416,-0.9695 -1.039434,-1.37016 -0.7143,-0.69799 -1.18279,-0.95214 -2.456847,-1.32292 0.794029,-1.76454 1.353381,-2.14637 1.726879,-2.57024 0.706408,-0.80168 2.147378,-1.54025 2.147378,-1.54025 l -1.370164,-0.37798 c 0,0 -1.072881,0.85593 -1.502455,1.38434 -1.223472,1.50497 -2.276833,3.23171 -2.986013,4.99401 -0.257692,0.64036 -0.576842,1.2587 -0.944941,1.84263 -0.221727,0.35173 -0.755951,0.99219 -0.755951,0.99219 0,0 -0.15725,-1.72134 0.02834,-2.55134 0.298349,-1.33425 1.006805,-2.55503 1.705618,-3.73015 1.889782,-3.17784 5.192636,-5.23635 6.723253,-6.19172 3.733761,-2.14324 10.718378,-4.989801 16.489218,-5.76414 2.02682,-0.271962 3.31984,-0.511872 6.12015,0.426175 2.80031,0.938047 7.13194,3.273705 10.13283,7.275085 2.26401,3.01882 3.16901,6.22058 2.64583,9.44941 -0.44669,2.57147 -1.18106,5.17704 -2.45685,7.46503 -0.82187,1.47394 -2.07321,2.84006 -3.25909,3.87426 l 0.99124,0.18898 c 0,0 -0.33832,1.23604 -0.61042,1.8126 -0.53525,1.13421 -1.98912,3.19369 -1.98912,3.19369 -1.49291,-0.1798 -2.79629,-0.45621 -4.016,0.0963 -1.03877,0.47059 -1.7003,1.16351 -1.98342,2.78758 -0.41148,-0.0768 -0.93118,-0.0547 -1.36142,0.19253 -0.29589,0.16999 -0.82015,0.94718 -0.9303,1.5349 -0.1846,0.98493 -0.13936,1.65982 -0.13936,1.65982 0,0 -0.91656,0.10557 -1.27149,0.19626 -0.50018,0.1278 -1.36503,0.58213 -1.36503,0.58213 -0.70067,0.2842 -1.87922,0.4808 -2.31021,0.0789 -0.43099,-0.40194 -0.22897,-1.31517 -0.22897,-1.31517 -1.30426,1.67851 -3.38997,3.15401 -4.08664,3.65998 -0.91513,0.66465 -1.90399,1.19286 -3.00042,1.58444 -0.73635,0.26298 -2.31504,0.37802 -2.31504,0.37802 z"
             id="path7-3"
             sodipodi:nodetypes="cszcsssascacacacsscscsccasscassazssaccacscsscsszcsscc" /><path
             style="font-variation-settings:normal;display:inline;opacity:1;vector-effect:none;fill:#ffffff;fill-opacity:1;stroke:none;stroke-width:0.868315;stroke-linecap:butt;stroke-linejoin:miter;stroke-miterlimit:4;stroke-dasharray:none;stroke-dashoffset:0;stroke-opacity:1;-inkscape-stroke:none;stop-color:#000000;stop-opacity:1"
             d="m 107.86495,140.41815 c -0.87234,2.9574 0.1597,5.86062 0.70871,8.97694 -7.22978,-2.74542 -4.00543,8.87608 -1.93713,11.90625 0.30676,0.44942 -0.45173,2.51129 -1.70798,2.78757 -0.30041,-0.90763 -0.81637,-1.85518 -1.34417,-2.71671 -0.40511,-0.66126 -1.03991,-1.17382 -1.38907,-1.86625 -0.48902,-0.96979 -0.1943,-2.33333 -0.94494,-3.1183 -0.94961,-0.99303 -2.294566,-0.93531 -3.165549,-0.14174 -0.158343,0.14427 -0.188989,0.61421 -0.188989,0.61421 -2.218768,-2.26241 -4.263926,-0.5232 -3.827011,1.13392 -2.692856,-0.67476 -2.884551,0.5876 -2.362351,2.83487 -3.9827,-0.83048 -3.563471,0.60986 -4.204983,-0.7087 -0.700325,-1.43942 0.800718,-2.09409 0.944934,-2.07887 0.332403,0.0351 1.77576,1.21205 1.795389,1.22843 0,0 -0.389694,-1.5828 -0.141743,-2.31511 0.200509,-0.59219 0.639846,-1.20652 1.228423,-1.41741 0.706847,-0.25327 2.220611,0.37798 2.220611,0.37798 0.0066,-0.981 -0.442368,-2.29019 0.18899,-3.11831 1.474605,-1.30762 3.774843,-0.39817 5.433409,-0.0945 4.33918,-3.96307 3.21057,-7.44449 5.90398,-10.37239 0.76317,-0.82961 2.78947,-1.91184 2.78947,-1.91184 z"
             id="path21-2"
             sodipodi:nodetypes="ccssaasscccsscaacacacc" /><path
             style="font-variation-settings:normal;display:inline;opacity:1;vector-effect:none;fill:#ffffff;fill-opacity:1;stroke:none;stroke-width:0.868315;stroke-linecap:butt;stroke-linejoin:miter;stroke-miterlimit:4;stroke-dasharray:none;stroke-dashoffset:0;stroke-opacity:1;-inkscape-stroke:none;stop-color:#000000;stop-opacity:1"
             d="m 94.163318,124.68489 c 0.755952,0 2.456844,-0.0945 2.456844,-0.0945 0.409309,4.09218 0.555217,8.54452 -5.102681,7.46503 0.791834,-1.16347 1.798779,-2.29039 2.260769,-3.64275 0.403837,-1.18213 0.461674,-2.45145 0.385071,-3.72778 z"
             id="path9-9"
             sodipodi:nodetypes="cccacc" /><path
             style="font-variation-settings:normal;display:inline;opacity:1;vector-effect:none;fill:#ffffff;fill-opacity:1;stroke:none;stroke-width:0.868315;stroke-linecap:butt;stroke-linejoin:miter;stroke-miterlimit:4;stroke-dasharray:none;stroke-dashoffset:0;stroke-opacity:1;-inkscape-stroke:none;stop-color:#000000;stop-opacity:1"
             d="m 92.111614,124.8727 c 0.179151,-0.19327 1.250866,-0.1819 1.250866,-0.1819 -0.05111,1.39987 -0.220646,1.94809 -0.73469,2.69899 -0.526615,0.76927 -0.994514,0.93091 -1.405599,1.06305 0,0 0.215492,-1.34834 0.274622,-1.78121 0.107235,-0.78503 0.124062,-1.26952 0.614801,-1.79893 z"
             id="path10-4"
             sodipodi:nodetypes="scscss" /><path
             id="path11-4"
             style="font-variation-settings:normal;display:inline;opacity:1;vector-effect:none;fill:#ffffff;fill-opacity:1;stroke:none;stroke-width:0.868315;stroke-linecap:butt;stroke-linejoin:miter;stroke-miterlimit:4;stroke-dasharray:none;stroke-dashoffset:0;stroke-opacity:1;-inkscape-stroke:none;stop-color:#000000;stop-opacity:1"
             d="m 86.127559,117.16442 c -4.44532,3.9262 -9.775892,14.18346 2.004529,13.69736 0,0 -0.111451,-1.53816 -0.133842,-1.73736 -0.454479,-4.04319 4.345022,-5.99024 7.88479,-6.14695 l 0.03307,-1.77095 c -4.646247,1.58535 -9.120499,2.38151 -9.78855,-4.04208 z m -1.035595,4.34289 c 0,0 -0.09768,0.85838 -0.343172,1.19048 -0.258734,0.35002 -0.559005,0.51406 -1.093433,0.7138 0,0 -0.04966,-0.891 0.220679,-1.25278 0.270336,-0.36178 0.461729,-0.51122 1.215926,-0.6515 z"
             sodipodi:nodetypes="ccscccccaczc" /><path
             style="font-variation-settings:normal;display:inline;opacity:1;vector-effect:none;fill:#ffffff;fill-opacity:1;stroke:none;stroke-width:0.868315;stroke-linecap:butt;stroke-linejoin:miter;stroke-miterlimit:4;stroke-dasharray:none;stroke-dashoffset:0;stroke-opacity:1;-inkscape-stroke:none;stop-color:#000000;stop-opacity:1"
             d="m 89.029294,116.91009 c 0.716331,0.10103 0.990792,1.15879 0.635163,1.47742 -0.852716,0.76399 -1.997431,-1.66954 -0.635163,-1.47742 z"
             id="path14-3"
             sodipodi:nodetypes="sas" /><path
             style="font-variation-settings:normal;display:inline;opacity:1;vector-effect:none;fill:#ffffff;fill-opacity:1;stroke:none;stroke-width:0.868315;stroke-linecap:butt;stroke-linejoin:miter;stroke-miterlimit:4;stroke-dasharray:none;stroke-dashoffset:0;stroke-opacity:1;-inkscape-stroke:none;stop-color:#000000;stop-opacity:1"
             d="m 89.568899,115.09276 c 0,-0.56795 0.133636,-1.80407 0.133636,-1.80407 0,0 1.073541,0.0409 1.500048,0.32323 3.137621,2.07705 -0.65993,8.46651 -2.903213,6.55896 -0.62232,-0.5292 -0.341321,-1.72953 -0.233863,-2.10475 0.659611,1.41794 2.171327,1.67826 2.973374,0.53454 0.898402,-1.28112 0.936041,-4.13748 -1.469982,-3.50792 z"
             id="path13-0"
             sodipodi:nodetypes="ccascscc" /><path
             style="font-variation-settings:normal;display:inline;opacity:1;vector-effect:none;fill:#ffffff;fill-opacity:1;stroke:none;stroke-width:0.868315;stroke-linecap:butt;stroke-linejoin:miter;stroke-miterlimit:4;stroke-dasharray:none;stroke-dashoffset:0;stroke-opacity:1;-inkscape-stroke:none;stop-color:#000000;stop-opacity:1"
             d="m 112.44792,141.50483 c -0.28591,-2.27836 0.45827,-3.53951 2.97656,-3.40178 -0.0564,-1.56806 0.19072,-3.94313 2.45684,-3.11831 -0.36251,-3.78254 3.34687,-3.4319 6.00038,-2.83481 1.78222,-3.2407 2.46897,-6.01461 5.5279,-9.49666 1.18888,1.27736 2.98134,3.27782 2.59854,5.10268 -2.01396,-1.00409 -3.49913,-0.28726 -3.96875,1.93713 -0.50933,6.75392 5.86667,8.48438 2.17337,12.33147 -0.40764,-1.23189 -0.6824,-1.62372 -2.12612,-2.26785 0,0 0.24661,-1.17655 -0.18899,-2.12612 -0.38953,-0.84915 -1.76443,-1.70421 -2.69308,-3.54353 -1.61536,0.10495 -2.07375,0.62802 -2.69308,2.26786 -1.80246,-0.88481 -3.89473,-1.56179 -3.87425,1.27567 -1.89064,-0.80435 -2.81654,0.19943 -2.41056,1.6064 -1.3612,-0.40167 -2.82054,-0.12746 -2.97566,1.93713 z"
             id="path16-0"
             sodipodi:nodetypes="cccccssccscccccc" /><path
             style="font-variation-settings:normal;display:inline;opacity:1;vector-effect:none;fill:#ffffff;fill-opacity:1;stroke:none;stroke-width:0.868315;stroke-linecap:butt;stroke-linejoin:miter;stroke-miterlimit:4;stroke-dasharray:none;stroke-dashoffset:0;stroke-opacity:1;-inkscape-stroke:none;stop-color:#000000;stop-opacity:1"
             d="m 119.36925,136.34087 c 3.12861,-0.23419 3.40769,4.14267 3.40769,4.14267 0,0 -4.38407,-1.55228 -3.40769,-4.14267 z"
             id="path17-2"
             sodipodi:nodetypes="cac" /><path
             style="font-variation-settings:normal;display:inline;opacity:1;vector-effect:none;fill:#ffffff;fill-opacity:1;stroke:none;stroke-width:0.868315;stroke-linecap:butt;stroke-linejoin:miter;stroke-miterlimit:4;stroke-dasharray:none;stroke-dashoffset:0;stroke-opacity:1;-inkscape-stroke:none;stop-color:#000000;stop-opacity:1"
             d="m 116.96383,138.31198 c 0,-0.0968 1.33756,0.23099 1.76363,0.69812 0.80627,0.88399 1.1568,2.20327 1.00929,3.44455 -2.84141,-1.21858 -3.38202,-2.75712 -2.77292,-4.14268 z"
             id="path18-6"
             sodipodi:nodetypes="saccs" /><path
             style="font-variation-settings:normal;display:inline;opacity:1;vector-effect:none;fill:#ffffff;fill-opacity:1;stroke:none;stroke-width:0.868315;stroke-linecap:butt;stroke-linejoin:miter;stroke-miterlimit:4;stroke-dasharray:none;stroke-dashoffset:0;stroke-opacity:1;-inkscape-stroke:none;stop-color:#000000;stop-opacity:1"
             d="m 114.62522,139.58151 c 0.26068,-0.1561 0.77345,-0.0316 1.13589,0.43431 0.04,0.0112 -0.2076,1.58956 1.70384,3.20724 0,0 -1.33397,0.33221 -1.9377,0.10022 -0.81688,-0.31389 -2.73661,-2.55494 -0.90203,-3.74177 z"
             id="path19-7"
             sodipodi:nodetypes="cccac" /><path
             style="font-variation-settings:normal;display:inline;opacity:1;vector-effect:none;fill:#ffffff;fill-opacity:1;stroke:none;stroke-width:0.868315;stroke-linecap:butt;stroke-linejoin:miter;stroke-miterlimit:4;stroke-dasharray:none;stroke-dashoffset:0;stroke-opacity:1;-inkscape-stroke:none;stop-color:#000000;stop-opacity:1"
             d="m 126.75257,140.45013 c 0.18076,0 2.89137,0.0493 2.80633,3.00679 -2.49097,-0.159 -3.72787,-1.0365 -3.842,-1.80407 -0.0594,-0.3993 0.5306,-1.20272 1.03567,-1.20272 z"
             id="path20-9"
             sodipodi:nodetypes="scss" /><path
             style="font-variation-settings:normal;display:inline;opacity:1;vector-effect:none;fill:#ffffff;fill-opacity:1;stroke:none;stroke-width:0.868315;stroke-linecap:butt;stroke-linejoin:miter;stroke-miterlimit:4;stroke-dasharray:none;stroke-dashoffset:0;stroke-opacity:1;-inkscape-stroke:none;stop-color:#000000;stop-opacity:1"
             d="m 99.573103,162.93136 c 0.425222,0.0472 1.731787,0.56211 2.173127,0.17614 0.1555,-0.136 1.01391,-0.9077 1.58301,-0.7667 0.32257,0.0799 0.49151,0.48599 0.59059,0.8032 0.0822,0.26318 0.10133,0.58103 -0.0236,0.82682 -0.0697,0.13708 -2.31392,2.38459 -4.3231,-1.03943 z"
             id="path22-4"
             sodipodi:nodetypes="csaaacc" /><path
             style="font-variation-settings:normal;display:inline;opacity:1;vector-effect:none;fill:#ffffff;fill-opacity:1;stroke:none;stroke-width:0.868315;stroke-linecap:butt;stroke-linejoin:miter;stroke-miterlimit:4;stroke-dasharray:none;stroke-dashoffset:0;stroke-opacity:1;-inkscape-stroke:none;stop-color:#000000;stop-opacity:1"
             d="m 98.226561,160.99423 c -0.224284,-1.11185 -0.75228,-4.21337 -2.377606,-4.56242 -0.289465,-0.0622 -0.659028,-0.0594 -0.895793,0.14364 -0.236766,0.203 -0.320628,0.45597 -0.195174,0.90151 0.280848,0.99743 1.053163,2.44921 3.468573,3.51727 z"
             id="path23-4"
             sodipodi:nodetypes="cszsc" /><path
             style="font-variation-settings:normal;display:inline;opacity:1;vector-effect:none;fill:#ffffff;fill-opacity:1;stroke:none;stroke-width:0.868315;stroke-linecap:butt;stroke-linejoin:miter;stroke-miterlimit:4;stroke-dasharray:none;stroke-dashoffset:0;stroke-opacity:1;-inkscape-stroke:none;stop-color:#000000;stop-opacity:1"
             d="m 92.698659,158.27753 c 0.270607,0.002 0.559144,10e-4 0.803201,0.11812 1.447971,0.88854 1.913505,2.58091 2.220611,4.13411 -0.0603,0.004 -3.436405,-0.79227 -3.566434,-3.6039 -0.0097,-0.20973 0.188275,-0.60108 0.188275,-0.60108 0,0 0.235189,-0.0481 0.354347,-0.0472 z"
             id="path24-9"
             sodipodi:nodetypes="aacscaa" /><path
             style="font-variation-settings:normal;display:inline;opacity:1;vector-effect:none;fill:#ffffff;fill-opacity:1;stroke:none;stroke-width:0.868315;stroke-linecap:butt;stroke-linejoin:miter;stroke-miterlimit:4;stroke-dasharray:none;stroke-dashoffset:0;stroke-opacity:1;-inkscape-stroke:none;stop-color:#000000;stop-opacity:1"
             d="m 90.508761,161.23519 c 1.012738,1.77579 2.71164,1.88289 4.528627,2.07414 -2.502697,2.08695 -6.315375,0.82301 -6.378349,-2.00799 0.51234,-0.20233 1.252695,-0.17983 1.849722,-0.0662 z"
             id="path25-8"
             sodipodi:nodetypes="cccc" /><path
             id="path26-3"
             style="font-variation-settings:normal;display:inline;opacity:1;vector-effect:none;fill:#b1afae;fill-opacity:1;stroke:none;stroke-width:0.868315;stroke-linecap:butt;stroke-linejoin:miter;stroke-miterlimit:4;stroke-dasharray:none;stroke-dashoffset:0;stroke-opacity:1;-inkscape-stroke:none;stop-color:#000000;stop-opacity:1"
             d="m 89.919576,111.76889 -0.217041,1.5198 c 0,0 0.151052,0.006 0.362252,0.0279 0.07038,0.007 0.146976,0.0165 0.227376,0.0279 1.8e-4,3e-5 3.37e-4,-2e-5 5.17e-4,0 0.0029,4.1e-4 0.0059,0.001 0.0088,0.002 0.06276,0.009 0.127697,0.0196 0.192753,0.0315 0.02687,0.005 0.0527,0.0101 0.07958,0.0155 0.0611,0.0123 0.121589,0.026 0.180867,0.0413 0.0516,0.0133 0.102528,0.0271 0.150895,0.0429 0.03803,0.0124 0.07447,0.0257 0.109554,0.0398 1.46e-4,6e-5 3.71e-4,-6e-5 5.17e-4,0 0.04299,0.0172 0.08222,0.0359 0.119373,0.0558 0.01688,0.009 0.03313,0.0183 0.04858,0.0279 0.0061,0.004 0.0133,0.007 0.01912,0.0108 0.02002,0.0132 0.03842,0.0277 0.05788,0.0413 0.01677,0.0117 0.03377,0.0232 0.05013,0.0351 0.01923,0.0141 0.03818,0.0285 0.05684,0.0429 0.02932,0.0227 0.05785,0.0457 0.08578,0.0692 0.0064,0.005 0.01327,0.0106 0.01964,0.016 0.01477,0.0127 0.02852,0.0259 0.04289,0.0388 0.01683,0.0151 0.03383,0.0301 0.05013,0.0455 0.02018,0.0191 0.04006,0.0383 0.05943,0.0579 0.0022,0.002 0.0045,0.004 0.0067,0.007 0.0094,0.01 0.01815,0.0198 0.02739,0.0294 0.0297,0.0312 0.05857,0.0628 0.0863,0.0951 0.01574,0.0183 0.0314,0.0367 0.04651,0.0553 0.01346,0.0166 0.02682,0.0333 0.03979,0.0501 0.02398,0.0312 0.04745,0.0625 0.06976,0.0946 0.01032,0.0148 0.02,0.03 0.02997,0.045 0.01409,0.0212 0.02794,0.0425 0.04134,0.0641 0.01201,0.0193 0.02369,0.0388 0.03514,0.0584 0.0188,0.0321 0.03745,0.0643 0.05478,0.0971 1.8e-4,3.4e-4 3.38e-4,6.9e-4 5.17e-4,0.001 0.0096,0.0182 0.01823,0.0369 0.02739,0.0553 0.0097,0.0195 0.01922,0.0391 0.02842,0.0589 0.01022,0.0219 0.02036,0.0439 0.02997,0.0661 6.12e-4,10e-4 0.0015,0.003 0.0021,0.004 0.0084,0.0196 0.01631,0.0396 0.02429,0.0594 0.0048,0.0119 0.0098,0.0237 0.01447,0.0357 0.0096,0.0248 0.01853,0.0499 0.02739,0.0749 0.0048,0.0135 0.0094,0.0272 0.01395,0.0408 0.0083,0.0247 0.01665,0.0494 0.02429,0.0744 4.77e-4,0.002 0.0011,0.003 0.0016,0.005 0.0063,0.0209 0.01169,0.042 0.01757,0.063 0.0034,0.0121 0.0071,0.024 0.01033,0.0362 0.0052,0.0196 0.01017,0.0392 0.01499,0.0589 0.0072,0.0293 0.01384,0.0587 0.02015,0.0884 0.0036,0.0167 0.0071,0.0333 0.01034,0.0501 3.06e-4,0.002 7.3e-4,0.003 10e-4,0.005 0.0074,0.038 0.01412,0.0763 0.02015,0.11473 0.0027,0.017 0.0048,0.0341 0.0072,0.0512 0.0037,0.0263 0.0072,0.0526 0.01034,0.0791 0.0026,0.0222 0.0051,0.0443 0.0072,0.0667 0.0034,0.0351 0.0064,0.0706 0.0088,0.10594 3.5e-5,5.2e-4 -3.4e-5,10e-4 0,0.002 0.0017,0.0256 0.003,0.0512 0.0041,0.077 0.0011,0.0249 0.0019,0.0499 0.0026,0.0749 4.99e-4,0.0193 0.0013,0.0385 0.0016,0.0579 7e-6,6.9e-4 -8e-6,0.001 0,0.002 4.19e-4,0.0402 2.96e-4,0.0805 -5.17e-4,0.12093 -5.28e-4,0.0261 -0.0016,0.0523 -0.0026,0.0786 -2.16e-4,0.005 -2.79e-4,0.011 -5.17e-4,0.0165 -1.49e-4,0.003 -3.58e-4,0.007 -5.17e-4,0.0103 -0.0031,0.0676 -0.0081,0.13557 -0.01447,0.2036 -1.12e-4,0.001 1.13e-4,0.002 0,0.004 -4.8e-5,5.1e-4 4.9e-5,0.001 0,0.002 -0.0068,0.0716 -0.01559,0.14309 -0.02584,0.21497 -9.7e-5,6.8e-4 9.7e-5,0.001 0,0.002 l 0.0031,0.0139 c 0.459631,-2.39483 0.560885,-4.33509 -2.432926,-4.85913 z" /></g></g></g></g></svg>
