<?xml version="1.0" encoding="UTF-8" standalone="no"?>
<svg
   width="2000"
   height="400"
   viewBox="0 0 2000 400"
   version="1.1"
   xml:space="preserve"
   style="clip-rule:evenodd;fill-rule:evenodd;stroke-linejoin:round;stroke-miterlimit:2"
   id="svg184"
   sodipodi:docname="Lakeside-Logo-Local-Colour.svg"
   inkscape:version="1.2.1 (9c6d41e410, 2022-07-14)"
   xmlns:inkscape="http://www.inkscape.org/namespaces/inkscape"
   xmlns:sodipodi="http://sodipodi.sourceforge.net/DTD/sodipodi-0.dtd"
   xmlns="http://www.w3.org/2000/svg"
   xmlns:svg="http://www.w3.org/2000/svg"><defs
   id="defs188" /><sodipodi:namedview
   id="namedview186"
   pagecolor="#ffffff"
   bordercolor="#666666"
   borderopacity="1.0"
   inkscape:showpageshadow="2"
   inkscape:pageopacity="0.0"
   inkscape:pagecheckerboard="true"
   inkscape:deskcolor="#d1d1d1"
   showgrid="false"
   inkscape:zoom="0.26088413"
   inkscape:cx="626.71502"
   inkscape:cy="364.14634"
   inkscape:current-layer="svg184" />
    <g
   transform="matrix(4.16667,0,0,4.16667,124.50138,29.293613)"
   id="g182">
        <path
   d="M 0,0.947 V 0.939 Z"
   style="fill:#004a8d"
   id="path160" />
        <path
   d="M 80.044,0.939 H 0 c 12.231,20.446 44.897,36.742 75.92,40.01 0.026,0.002 0.026,0.044 0,0.048 C 44.792,45.577 15.564,58.378 0.028,80.963 L 0.014,81 h 80.047 z"
   style="fill:#004a8d"
   id="path162" />
        <path
   d="M 0,58.748 C 16.481,42.185 46.083,41.869 66.356,41.076 66.427,41.073 66.429,40.973 66.359,40.97 46.104,39.97 14.995,39.547 0,23.308 Z"
   style="fill:#939598"
   id="path164" />
        <path
   d="m 100.951,18.617 h 7.751 v 37.051 h 23.187 v 7.057 h -30.938 z"
   style="fill:#004a8d;fill-rule:nonzero"
   id="path166" />
        <path
   d="m 166.664,45.208 -7.624,-17.642 -7.561,17.642 z m -11.09,-26.905 h 7.184 l 19.407,44.422 h -8.191 l -4.475,-10.648 h -20.856 l -4.537,10.648 h -7.939 z"
   style="fill:#004a8d;fill-rule:nonzero"
   id="path168" />
        <path
   d="m 189.717,18.617 h 7.75 v 22.181 l 20.982,-22.181 h 9.579 l -18.399,18.967 19.218,25.141 h -9.451 l -15.06,-19.848 -6.869,7.057 v 12.791 h -7.75 z"
   style="fill:#004a8d;fill-rule:nonzero"
   id="path170" />
        <path
   d="m 235.455,18.617 h 32.702 v 6.932 h -24.952 v 11.468 h 22.117 v 6.932 h -22.117 v 11.846 h 25.267 v 6.93 h -33.017 z"
   style="fill:#004a8d;fill-rule:nonzero"
   id="path172" />
        <path
   d="m 274.702,56.299 4.664,-5.546 c 4.222,3.655 8.507,5.735 13.925,5.735 4.789,0 7.814,-2.269 7.814,-5.546 v -0.126 c 0,-3.15 -1.764,-4.851 -9.957,-6.741 -9.388,-2.269 -14.681,-5.042 -14.681,-13.17 v -0.126 c 0,-7.562 6.301,-12.791 15.061,-12.791 6.426,0 11.529,1.953 16.003,5.545 l -4.157,5.859 c -3.97,-2.961 -7.94,-4.536 -11.972,-4.536 -4.539,0 -7.184,2.331 -7.184,5.23 v 0.126 c 0,3.403 2.016,4.914 10.522,6.931 9.325,2.268 14.115,5.608 14.115,12.917 v 0.126 c 0,8.255 -6.491,13.169 -15.753,13.169 -6.742,0 -13.106,-2.331 -18.4,-7.056 z"
   style="fill:#004a8d;fill-rule:nonzero"
   id="path174" />
        <rect
   x="318.42599"
   y="18.617001"
   width="7.75"
   height="44.108002"
   style="fill:#004a8d;fill-rule:nonzero"
   id="rect176" />
        <path
   d="m 345.705,25.675 v 29.993 h 8.695 c 9.264,0 15.312,-6.238 15.312,-14.87 v -0.126 c 0,-8.633 -6.048,-14.997 -15.312,-14.997 z m -7.751,-7.058 H 354.4 c 13.863,0 23.441,9.516 23.441,21.929 v 0.126 c 0,12.413 -9.578,22.053 -23.441,22.053 h -16.446 z"
   style="fill:#004a8d;fill-rule:nonzero"
   id="path178" />
        <path
   d="m 387.22,18.617 h 32.704 v 6.932 H 394.97 v 11.468 h 22.118 v 6.932 H 394.97 v 11.846 h 25.269 v 6.93 H 387.22 Z"
   style="fill:#004a8d;fill-rule:nonzero"
   id="path180" />
    </g>
</svg>
