<?xml version="1.0" encoding="UTF-8" standalone="no"?>
<!-- Created with Inkscape (http://www.inkscape.org/) -->

<svg
   version="1.1"
   id="svg89"
   xml:space="preserve"
   width="816"
   height="370.66666"
   viewBox="0 0 816 370.66666"
   sodipodi:docname="Nye-adlogo.svg"
   inkscape:version="1.1.2 (b8e25be833, 2022-02-05)"
   xmlns:inkscape="http://www.inkscape.org/namespaces/inkscape"
   xmlns:sodipodi="http://sodipodi.sourceforge.net/DTD/sodipodi-0.dtd"
   xmlns="http://www.w3.org/2000/svg"
   xmlns:svg="http://www.w3.org/2000/svg"><defs
     id="defs93"><clipPath
       clipPathUnits="userSpaceOnUse"
       id="clipPath103"><path
         d="M 0,278 H 612 V 0 H 0 Z"
         id="path101" /></clipPath></defs><sodipodi:namedview
     id="namedview91"
     pagecolor="#595959"
     bordercolor="#666666"
     borderopacity="1.0"
     inkscape:pageshadow="2"
     inkscape:pageopacity="0"
     inkscape:pagecheckerboard="false"
     showgrid="false"
     inkscape:zoom="2"
     inkscape:cx="378.25"
     inkscape:cy="214.5"
     inkscape:window-width="2560"
     inkscape:window-height="1369"
     inkscape:window-x="-8"
     inkscape:window-y="-8"
     inkscape:window-maximized="1"
     inkscape:current-layer="g95"
     inkscape:showpageshadow="2"
     inkscape:deskcolor="#d1d1d1" /><g
     id="g95"
     inkscape:groupmode="layer"
     inkscape:label="Nye-adlogo"
     transform="matrix(1.3333333,0,0,-1.3333333,0,370.66667)"><g
       id="g1"><g
         id="g105"
         transform="translate(143.8722,254.9722)"><path
           d="m 0,0 c -4.234,5.966 -11.162,9.526 -18.571,9.526 h -102.672 c -5.292,0 -9.526,-4.234 -9.526,-9.526 v -48.593 c 0,-2.406 1.828,-4.234 4.234,-4.234 h 9.237 c 2.31,0 4.234,-1.924 4.234,-4.234 V -219.68 c 0,-5.582 4.523,-10.104 10.104,-10.104 h 57.35 c 5.58,0 10.103,4.522 10.103,10.104 V -73.9 c 0,1.924 1.636,3.56 3.657,3.56 1.155,0 2.213,-0.481 2.887,-1.443 l 43.781,-58.505 c 4.523,-6.062 7.025,-13.568 7.025,-21.169 v -68.223 c 0,-5.582 4.523,-10.104 10.103,-10.104 h 57.35 c 5.581,0 10.104,4.522 10.104,10.104 v 65.432 c 0,10.008 -3.176,19.822 -8.949,27.905 l -48.209,67.358 z"
           style="fill:#ed1e24;fill-opacity:1;fill-rule:nonzero;stroke:none"
           id="path107" /></g><path
         d="m 241.8286,264.4984 h -61.68 c -3.656,0 -6.735,-2.983 -6.735,-6.736 0,-1.347 0.48,-2.79 1.25,-3.945 l 85.64,-120.665 c 6.351,-8.949 9.719,-19.437 9.719,-30.311 v -67.549 c 0,-5.582 4.522,-10.104 10.104,-10.104 h 60.622 c 5.58,0 10.102,4.522 10.102,10.104 v 67.356 c 0,10.97 3.464,21.651 9.912,30.6 l 86.89,120.569 c 0.866,1.155 1.348,2.598 1.348,3.945 0,3.753 -3.08,6.736 -6.736,6.736 h -61.007 c -7.409,0 -14.433,-3.56 -18.667,-9.719 l -46.477,-66.491 c -2.694,-3.849 -8.467,-3.849 -11.162,0.097 l -44.167,66.009 c -4.234,6.351 -11.354,10.104 -18.956,10.104"
         style="fill:#ed1e24;fill-opacity:1;fill-rule:nonzero;stroke:none"
         id="path115" /><path
         id="path123"
         style="fill:#ed1e24;fill-opacity:1;fill-rule:nonzero;stroke:none;stroke-width:0.999998"
         d="m 492.49366,264.49854 c -5.38899,0 -10.58505,-2.59792 -13.66406,-7.02392 L 386.5503,128.72657 c -5.86899,-8.18 -8.94873,-17.99396 -8.94873,-28.00196 v -0.0967 -65.334971 c 0,-5.581996 4.52203,-10.104488 10.10303,-10.104488 h 190.52491 c 5.58,0 10.10303,4.522492 10.10303,10.104488 v 57.348639 c 0,5.484997 -4.52303,10.006352 -10.10303,10.006352 h -54.94337 c -2.31099,0 -4.0415,-1.82604 -4.0415,-4.040042 v -8.660161 c 0,-2.308995 -1.82997,-4.042965 -4.04296,-4.042965 h -57.7339 c -2.214,0 -4.0415,1.73397 -4.0415,4.042965 V 111.2129 c 0,2.212 1.8275,4.0415 4.0415,4.0415 h 120.76173 c 5.58,0 10.10303,4.52249 10.10303,10.1045 v 129.03515 c 0,5.582 -4.52303,10.10449 -10.10303,10.10449 z m 28.48243,-50.80664 c 1.443,0 2.59863,-1.15463 2.59863,-2.59863 v -41.56934 c 0,-3.271 -2.59841,-5.86816 -5.77441,-5.86816 h -26.84619 -0.0967 c -1.73199,0 -3.17577,1.44299 -3.17577,3.27099 0,0.578 0.19361,1.25113 0.57861,1.82813 l 30.59912,43.87793 c 0.481,0.674 1.3467,1.05908 2.1167,1.05908 z" /><g
         id="g129"
         transform="translate(488.26,168.7555)" /></g></g></svg>
