<?xml version="1.0" encoding="UTF-8" standalone="no"?>
<!-- Created with Inkscape (http://www.inkscape.org/) -->

<svg
   version="1.1"
   id="svg824"
   xml:space="preserve"
   width="1056"
   height="816"
   viewBox="0 0 1056 816"
   sodipodi:docname="Sable - Colour.svg"
   inkscape:version="1.3 (0e150ed6c4, 2023-07-21)"
   xmlns:inkscape="http://www.inkscape.org/namespaces/inkscape"
   xmlns:sodipodi="http://sodipodi.sourceforge.net/DTD/sodipodi-0.dtd"
   xmlns="http://www.w3.org/2000/svg"
   xmlns:svg="http://www.w3.org/2000/svg"><sodipodi:namedview
     id="namedview1"
     pagecolor="#ffffff"
     bordercolor="#000000"
     borderopacity="0.25"
     inkscape:showpageshadow="2"
     inkscape:pageopacity="0.0"
     inkscape:pagecheckerboard="0"
     inkscape:deskcolor="#d1d1d1"
     showguides="true"
     inkscape:zoom="0.83617424"
     inkscape:cx="528"
     inkscape:cy="408.4077"
     inkscape:current-layer="svg824" /><defs
     id="defs828"><clipPath
       clipPathUnits="userSpaceOnUse"
       id="clipPath838"><path
         d="m 115.92,251.64 h 559.8 v 69.48 h -559.8 z"
         clip-rule="evenodd"
         id="path836" /></clipPath><clipPath
       clipPathUnits="userSpaceOnUse"
       id="clipPath2"><path
         d="M 0,595.276 H 841.89 V 0 H 0 Z"
         transform="translate(-389.62121,-274.6514)"
         id="path2" /></clipPath><clipPath
       clipPathUnits="userSpaceOnUse"
       id="clipPath4"><path
         d="M 0,595.276 H 841.89 V 0 H 0 Z"
         transform="translate(-426.65051,-292.418)"
         id="path4" /></clipPath><clipPath
       clipPathUnits="userSpaceOnUse"
       id="clipPath6"><path
         d="M 0,595.276 H 841.89 V 0 H 0 Z"
         transform="translate(-471.78521,-283.60061)"
         id="path6" /></clipPath><clipPath
       clipPathUnits="userSpaceOnUse"
       id="clipPath8"><path
         d="M 0,595.276 H 841.89 V 0 H 0 Z"
         transform="translate(-505.37801,-275.1689)"
         id="path8" /></clipPath><clipPath
       clipPathUnits="userSpaceOnUse"
       id="clipPath10"><path
         d="M 0,595.276 H 841.89 V 0 H 0 Z"
         transform="translate(-541.43071,-275.1689)"
         id="path10" /></clipPath><clipPath
       clipPathUnits="userSpaceOnUse"
       id="clipPath12"><path
         d="M 0,595.276 H 841.89 V 0 H 0 Z"
         transform="translate(-298.80571,-308.44731)"
         id="path12" /></clipPath><clipPath
       clipPathUnits="userSpaceOnUse"
       id="clipPath14"><path
         d="M 0,595.276 H 841.89 V 0 H 0 Z"
         transform="translate(-307.56451,-329.43991)"
         id="path14" /></clipPath><clipPath
       clipPathUnits="userSpaceOnUse"
       id="clipPath16"><path
         d="M 0,595.276 H 841.89 V 0 H 0 Z"
         transform="translate(-287.22561,-282.87701)"
         id="path16" /></clipPath></defs><g
     id="g1"
     transform="matrix(0.80817551,0,0,0.80817551,246.49461,327.66757)"
     style="stroke-width:1.23735"><path
       id="path1"
       d="m 0,0 c -1.73,0 -3.589,0.052 -5.577,0.161 -1.987,0.11 -3.946,0.236 -5.869,0.389 -1.922,0.153 -3.641,0.334 -5.156,0.55 v 8.239 c 1.598,-0.133 3.212,-0.248 4.83,-0.358 1.624,-0.109 3.169,-0.184 4.638,-0.227 1.469,-0.046 2.726,-0.066 3.762,-0.066 1.986,0 3.533,0.078 4.637,0.23 1.103,0.147 1.891,0.397 2.37,0.742 0.385,0.261 0.658,0.563 0.805,0.911 0.153,0.346 0.237,0.767 0.262,1.265 0.02,0.494 0.032,1.024 0.032,1.586 0,0.907 -0.044,1.622 -0.129,2.14 C 4.518,16.084 4.312,16.494 3.987,16.794 3.666,17.096 3.176,17.336 2.529,17.509 1.88,17.682 1.036,17.834 0,17.963 l -9.21,1.103 c -1.727,0.257 -3.168,0.723 -4.311,1.394 -1.145,0.671 -2.033,1.555 -2.658,2.658 -0.627,1.102 -1.067,2.431 -1.33,3.984 -0.262,1.558 -0.388,3.289 -0.388,5.192 0,2.937 0.432,5.294 1.295,7.066 0.864,1.775 2.065,3.11 3.599,4.021 1.536,0.908 3.331,1.511 5.383,1.817 2.053,0.3 4.267,0.454 6.649,0.454 1.771,0 3.577,-0.057 5.411,-0.163 1.84,-0.107 3.589,-0.26 5.256,-0.456 1.663,-0.193 3.055,-0.397 4.184,-0.616 v -8.169 c -1.129,0.129 -2.413,0.25 -3.859,0.357 -1.448,0.105 -2.951,0.193 -4.509,0.258 -1.556,0.064 -3.027,0.099 -4.407,0.099 -1.686,0 -3.028,-0.055 -4.023,-0.164 -0.996,-0.108 -1.77,-0.332 -2.334,-0.679 -0.605,-0.349 -0.982,-0.802 -1.135,-1.364 -0.153,-0.562 -0.228,-1.254 -0.228,-2.076 0,-1.08 0.087,-1.911 0.26,-2.493 0.172,-0.585 0.563,-0.984 1.168,-1.201 0.606,-0.216 1.535,-0.413 2.788,-0.585 l 8.883,-1.036 c 1.213,-0.13 2.313,-0.346 3.31,-0.652 0.994,-0.299 1.921,-0.774 2.788,-1.424 0.863,-0.646 1.574,-1.577 2.14,-2.786 0.301,-0.561 0.551,-1.244 0.744,-2.042 0.197,-0.804 0.346,-1.719 0.453,-2.759 0.109,-1.036 0.165,-2.203 0.165,-3.501 0,-2.593 -0.261,-4.758 -0.778,-6.482 C 14.787,5.986 14.049,4.613 13.101,3.597 12.149,2.583 11,1.803 9.664,1.265 8.322,0.723 6.842,0.377 5.221,0.225 3.597,0.077 1.86,0 0,0"
       style="fill:#0d0d0d;fill-opacity:1;fill-rule:nonzero;stroke:none;stroke-width:1.23735"
       transform="matrix(1.3333333,0,0,-1.3333333,306.55687,130.04867)"
       clip-path="url(#clipPath2)" /><path
       id="path3"
       d="M 0,0 H 11.024 L 5.709,17.703 H 5.252 Z M -16.146,-17.249 -2.011,27.367 H 13.356 L 27.562,-17.249 H 16.147 l -2.721,8.757 H -2.399 l -2.661,-8.757 z"
       style="fill:#0d0d0d;fill-opacity:1;fill-rule:nonzero;stroke:none;stroke-width:1.23735"
       transform="matrix(1.3333333,0,0,-1.3333333,355.92927,106.35987)"
       clip-path="url(#clipPath4)" /><path
       id="path5"
       d="m 0,0 h 7.392 c 1.557,0 2.745,0.142 3.568,0.421 0.82,0.282 1.382,0.788 1.687,1.522 0.3,0.735 0.453,1.795 0.453,3.18 0,1.336 -0.153,2.376 -0.453,3.11 C 12.342,8.97 11.78,9.479 10.96,9.76 10.137,10.042 8.949,10.181 7.392,10.181 H 0 Z m 0,18.025 h 7.199 c 1.469,0 2.614,0.141 3.436,0.421 0.819,0.282 1.393,0.768 1.719,1.461 0.325,0.69 0.486,1.663 0.486,2.915 0,1.386 -0.153,2.422 -0.454,3.116 -0.302,0.691 -0.844,1.156 -1.622,1.394 -0.779,0.236 -1.967,0.357 -3.565,0.357 H 0 Z M -11.153,-8.432 v 44.615 h 22.568 c 2.85,0 5.206,-0.413 7.065,-1.231 1.859,-0.824 3.256,-2.068 4.183,-3.732 0.933,-1.665 1.394,-3.749 1.394,-6.258 0,-2.072 -0.281,-3.827 -0.842,-5.252 C 22.653,18.285 21.8,17.149 20.652,16.306 19.509,15.464 18.05,14.851 16.275,14.462 V 14.2 c 1.904,-0.389 3.451,-0.996 4.639,-1.814 1.188,-0.823 2.063,-1.955 2.624,-3.405 0.564,-1.45 0.844,-3.296 0.844,-5.544 0,-1.815 -0.225,-3.468 -0.679,-4.963 -0.453,-1.489 -1.179,-2.745 -2.172,-3.761 -0.996,-1.017 -2.336,-1.795 -4.023,-2.332 -1.685,-0.542 -3.737,-0.813 -6.158,-0.813 z"
       style="fill:#0d0d0d;fill-opacity:1;fill-rule:nonzero;stroke:none;stroke-width:1.23735"
       transform="matrix(1.3333333,0,0,-1.3333333,416.10887,118.1164)"
       clip-path="url(#clipPath6)" /><path
       id="path7"
       d="M 0,0 V 44.616 H 11.281 V 9.079 h 17.38 V 0 Z"
       style="fill:#0d0d0d;fill-opacity:1;fill-rule:nonzero;stroke:none;stroke-width:1.23735"
       transform="matrix(1.3333333,0,0,-1.3333333,460.89927,129.35867)"
       clip-path="url(#clipPath8)" /><path
       id="path9"
       d="M 0,0 V 44.616 H 31.256 V 35.924 H 11.282 V 26.782 H 28.207 V 18.224 H 11.282 V 8.688 H 31.256 V 0 Z"
       style="fill:#0d0d0d;fill-opacity:1;fill-rule:nonzero;stroke:none;stroke-width:1.23735"
       transform="matrix(1.3333333,0,0,-1.3333333,508.96954,129.35867)"
       clip-path="url(#clipPath10)" /><path
       id="path11"
       d="M 0,0 C -12.744,29.072 16.744,43.814 16.744,43.814 3.584,40.81 -8.294,32.318 -12.828,16.075 c -4.535,-16.244 1.082,-30.226 24.599,-49.558 24.659,-20.27 2.697,-45.126 2.697,-45.126 0,0 17.346,12.471 19.961,25.171 C 39.985,-26.421 9.199,-20.983 0,0"
       style="fill:#0d0d0d;fill-opacity:1;fill-rule:nonzero;stroke:none;stroke-width:1.23735"
       transform="matrix(1.3333333,0,0,-1.3333333,185.46954,84.98747)"
       clip-path="url(#clipPath12)" /><path
       id="path13"
       d="m 0,0 c -2.926,-12.723 4.13,-25.339 15.959,-29.464 l 0.012,-0.01 8.981,-11.16 15.876,2.491 -2.446,11.807 L 28.901,19.287 25.437,35.998 16.464,18.5 16.467,18.377 C 8.502,15.645 2.052,8.918 0,0"
       style="fill:#0d0d0d;fill-opacity:1;fill-rule:nonzero;stroke:none;stroke-width:1.23735"
       transform="matrix(1.3333333,0,0,-1.3333333,197.14794,56.99733)"
       clip-path="url(#clipPath14)" /><path
       id="path15"
       d="m 0,0 c -21.571,21.495 -10.324,43.189 -10.324,43.189 0,0 -20.043,-23.333 4.553,-47.324 C 11.165,-20.654 20.825,-27.39 19.679,-49.402 33.558,-27.984 18.415,-18.351 0,0"
       style="fill:#0d0d0d;fill-opacity:1;fill-rule:nonzero;stroke:none;stroke-width:1.23735"
       transform="matrix(1.3333333,0,0,-1.3333333,170.02941,119.0812)"
       clip-path="url(#clipPath16)" /></g></svg>
