<?xml version="1.0" encoding="UTF-8" standalone="no"?>
<!-- Created with Inkscape (http://www.inkscape.org/) -->

<svg
   version="1.1"
   id="svg380"
   width="1080"
   height="207"
   viewBox="0 0 1080 207"
   sodipodi:docname="Siemens-Color.svg"
   inkscape:version="1.2.2 (732a01da63, 2022-12-09)"
   inkscape:export-filename="Siemens-Color.png"
   inkscape:export-xdpi="96"
   inkscape:export-ydpi="96"
   xmlns:inkscape="http://www.inkscape.org/namespaces/inkscape"
   xmlns:sodipodi="http://sodipodi.sourceforge.net/DTD/sodipodi-0.dtd"
   xmlns="http://www.w3.org/2000/svg"
   xmlns:svg="http://www.w3.org/2000/svg">
  <defs
     id="defs384">
    <clipPath
       clipPathUnits="userSpaceOnUse"
       id="clipPath396">
      <path
         d="M 0,44.793 H 283.465 V 0 H 0 Z"
         id="path394" />
    </clipPath>
  </defs>
  <sodipodi:namedview
     id="namedview382"
     pagecolor="#ffffff"
     bordercolor="#000000"
     borderopacity="0.25"
     inkscape:showpageshadow="2"
     inkscape:pageopacity="0.0"
     inkscape:pagecheckerboard="true"
     inkscape:deskcolor="#d1d1d1"
     showgrid="false"
     inkscape:zoom="0.82483727"
     inkscape:cx="471.00199"
     inkscape:cy="338.24854"
     inkscape:current-layer="g388">
    <inkscape:page
       x="0"
       y="0"
       id="page386"
       width="1080"
       height="207" />
  </sodipodi:namedview>
  <g
     id="g388"
     inkscape:groupmode="layer"
     inkscape:label="Page 1"
     transform="matrix(1.3333333,0,0,-1.3333333,0,59.724)">
    <g
       id="g390"
       transform="matrix(2.6586184,0,0,2.6586184,28.187377,-92.375747)"
       style="stroke-width:0.376135">
      <g
         id="g392"
         clip-path="url(#clipPath396)"
         style="stroke-width:0.376135">
        <g
           id="g398"
           transform="translate(0.8745,1.5703)"
           style="stroke-width:0.376135">
          <path
             d="M 0,0 V 8.525 C 4.853,6.999 9.147,6.234 12.882,6.234 c 5.158,0 7.736,1.364 7.736,4.088 0,1.016 -0.375,1.869 -1.127,2.561 -0.77,0.733 -2.74,1.749 -5.907,3.051 -5.681,2.336 -9.385,4.328 -11.108,5.976 -2.234,2.174 -3.351,4.918 -3.351,8.232 0,4.269 1.627,7.522 4.879,9.757 3.216,2.217 7.404,3.324 12.57,3.324 2.846,0 6.966,-0.524 12.354,-1.573 v -8.202 c -4.009,1.602 -7.731,2.401 -11.169,2.401 -4.842,0 -7.263,-1.329 -7.263,-3.995 0,-0.996 0.488,-1.808 1.464,-2.437 0.812,-0.51 3.05,-1.587 6.708,-3.234 5.268,-2.34 8.775,-4.373 10.522,-6.103 2.074,-2.052 3.112,-4.706 3.112,-7.96 0,-4.679 -2.034,-8.246 -6.1,-10.704 C 22.908,-0.578 18.636,-1.571 13.39,-1.571 8.959,-1.571 4.495,-1.049 0,0"
             style="fill:#00aaaf;fill-opacity:1;fill-rule:evenodd;stroke:none;stroke-width:0.376135"
             id="path400" />
        </g>
        <g
           id="g402"
           transform="translate(39.9863,44.043)"
           style="stroke-width:0.376135">
          <path
             d="M 0,0 V 0 H 12.059 V -43.171 H 0 Z"
             style="fill:#00aaaf;fill-opacity:1;fill-rule:evenodd;stroke:none;stroke-width:0.376135"
             id="path404" />
        </g>
        <g
           id="g406"
           transform="translate(63.104,0.8721)"
           style="stroke-width:0.376135">
          <path
             d="M 0,0 V 43.171 H 30.927 V 35.362 H 11.622 V 25.614 H 28.426 V 18.491 H 11.622 V 8.247 H 31.425 V 0 Z"
             style="fill:#00aaaf;fill-opacity:1;fill-rule:evenodd;stroke:none;stroke-width:0.376135"
             id="path408" />
        </g>
        <g
           id="g410"
           transform="translate(102.4004,0.8721)"
           style="stroke-width:0.376135">
          <path
             d="M 0,0 V 43.171 H 15.635 L 26.497,15.586 37.632,43.171 h 14.85 V 0 H 41.049 V 30.566 L 28.388,-0.438 H 20.913 L 8.496,30.566 V 0 Z"
             style="fill:#00aaaf;fill-opacity:1;fill-rule:evenodd;stroke:none;stroke-width:0.376135"
             id="path412" />
        </g>
        <g
           id="g414"
           transform="translate(165.9434,0.8721)"
           style="stroke-width:0.376135">
          <path
             d="M 0,0 V 43.171 H 30.928 V 35.362 H 11.622 V 25.614 H 28.427 V 18.491 H 11.622 V 8.247 H 31.428 V 0 Z"
             style="fill:#00aaaf;fill-opacity:1;fill-rule:evenodd;stroke:none;stroke-width:0.376135"
             id="path416" />
        </g>
        <g
           id="g418"
           transform="translate(205.3066,0.8721)"
           style="stroke-width:0.376135">
          <path
             d="m 0,0 v 43.171 h 13.976 l 14.827,-28.9 v 28.9 h 8.492 V 0 H 23.718 L 8.495,29.288 V 0 Z"
             style="fill:#00aaaf;fill-opacity:1;fill-rule:evenodd;stroke:none;stroke-width:0.376135"
             id="path420" />
        </g>
        <g
           id="g422"
           transform="translate(251.1631,1.5703)"
           style="stroke-width:0.376135">
          <path
             d="M 0,0 V 8.525 C 4.812,6.999 9.104,6.234 12.885,6.234 c 5.156,0 7.732,1.364 7.732,4.088 0,1.016 -0.364,1.869 -1.093,2.561 -0.771,0.733 -2.75,1.749 -5.936,3.051 -5.665,2.316 -9.372,4.308 -11.111,5.976 -2.233,2.155 -3.348,4.908 -3.348,8.261 0,4.25 1.622,7.493 4.879,9.728 3.212,2.217 7.402,3.324 12.569,3.324 2.904,0 6.668,-0.462 11.286,-1.388 l 1.065,-0.185 v -8.202 c -4.009,1.602 -7.741,2.401 -11.198,2.401 -4.825,0 -7.231,-1.329 -7.231,-3.995 0,-0.996 0.487,-1.808 1.461,-2.437 0.774,-0.491 3.02,-1.568 6.738,-3.234 5.231,-2.34 8.73,-4.373 10.491,-6.103 2.077,-2.052 3.113,-4.706 3.113,-7.96 C 32.302,7.441 30.28,3.874 26.234,1.416 22.921,-0.578 18.639,-1.571 13.392,-1.571 8.956,-1.571 4.492,-1.049 0,0"
             style="fill:#00aaaf;fill-opacity:1;fill-rule:evenodd;stroke:none;stroke-width:0.376135"
             id="path424" />
        </g>
      </g>
    </g>
  </g>
</svg>
