<?xml version="1.0" encoding="UTF-8" standalone="no"?>
<!-- Created with Inkscape (http://www.inkscape.org/) -->

<svg
   width="11in"
   height="8.5in"
   viewBox="0 0 279.39999 215.90001"
   version="1.1"
   id="svg5"
   sodipodi:docname="THK.svg"
   inkscape:version="1.2.1 (9c6d41e410, 2022-07-14)"
   inkscape:export-filename="..\Raster\THK.png"
   inkscape:export-xdpi="96"
   inkscape:export-ydpi="96"
   xmlns:inkscape="http://www.inkscape.org/namespaces/inkscape"
   xmlns:sodipodi="http://sodipodi.sourceforge.net/DTD/sodipodi-0.dtd"
   xmlns="http://www.w3.org/2000/svg"
   xmlns:svg="http://www.w3.org/2000/svg">
  <sodipodi:namedview
     id="namedview2317"
     pagecolor="#ffffff"
     bordercolor="#666666"
     borderopacity="1.0"
     inkscape:pageshadow="2"
     inkscape:pageopacity="0.0"
     inkscape:pagecheckerboard="0"
     showgrid="false"
     units="in"
     inkscape:zoom="0.545625"
     inkscape:cx="-44.902635"
     inkscape:cy="498.51088"
     inkscape:window-width="2560"
     inkscape:window-height="1369"
     inkscape:window-x="-8"
     inkscape:window-y="-8"
     inkscape:window-maximized="1"
     inkscape:current-layer="svg5"
     inkscape:document-units="in"
     inkscape:showpageshadow="2"
     inkscape:deskcolor="#d1d1d1" />
  <defs
     id="defs2">
    <clipPath
       clipPathUnits="userSpaceOnUse"
       id="clipPath3574">
      <path
         d="m 3593.67,332.938 c 154.05,0 304.46,4.617 449.73,13.41 -60.33,-1.45 -121.29,-2.223 -182.88,-2.223 -1233.57,0 -2233.57,295.992 -2233.57,661.115 0,319.52 765.83,586.1 1783.84,647.7 -1148.01,-27.54 -2050.69,-312 -2050.69,-658.893 0,-365.117 1000,-661.109 2233.57,-661.109 z"
         clip-rule="evenodd"
         id="path3572" />
    </clipPath>
    <clipPath
       clipPathUnits="userSpaceOnUse"
       id="clipPath4098">
      <path
         d="m 4606.31,1361.46 h 205.42 l 158.68,-245.16 160.6,245.16 h 210.47 L 5062.11,957.016 V 643.582 H 4882.64 V 957.066 L 4616.23,1346.95 V 1206.68 H 4362.7 c -37.06,0 -77.49,-6.87 -104.94,-33.9 -23.3,-22.94 -33.2,-56.31 -36.93,-88.62 l 395.4,-0.47 V 929.402 h -397.35 c 1.85,-34.238 9.25,-73.515 32.32,-97.691 26.82,-28.109 74.87,-33.348 111.5,-33.348 h 253.53 V 643.582 h -260.5 c -42.1,0 -90.57,2.277 -131.13,14.356 -33.99,10.132 -64.8,27.281 -92.39,49.437 -38.47,30.875 -66.06,70.332 -84.01,116.223 -20.59,52.625 -27.35,110.715 -27.35,166.894 0,95.888 16.04,205.268 83.03,278.968 65.27,71.81 162.67,92 255.96,92 z M 2696.78,1060.75 c 6.23,81.44 29.17,163.45 87.48,222.83 70.17,71.45 172.47,91.18 268.95,91.18 96.68,0 199.76,-19.76 269.4,-92.28 70.51,-73.43 88.27,-182.01 88.27,-279.96 0,-98.129 -17.83,-206.672 -88.24,-280.403 -69.56,-72.836 -172.56,-92.781 -269.43,-92.781 -97.13,0 -201.56,19.676 -270.95,93.355 -57.75,61.325 -79.49,148.149 -85.48,231.856 V 643.582 h -194.72 l -263.83,464.048 5.82,-464.048 h -183.49 v 717.878 h 210.05 l 249.82,-438.065 -6.23,438.065 h 182.58 z m 356.43,161.13 c -47.76,0 -93.19,-12.05 -123.89,-50.65 -34.39,-43.23 -41.66,-109.41 -41.66,-162.69 0,-54.938 6.32,-128.329 40.66,-173.833 30.12,-39.879 77.04,-51.543 124.89,-51.543 47.99,0 94.05,12.055 124.55,51.281 34.51,44.379 41.31,113.899 41.31,168.075 0,54.09 -6.73,124.11 -41.29,168.37 -30.53,39.1 -76.69,50.99 -124.57,50.99 z m -2001.23,76.87 c 3.8,4.7 7.68,9.33 11.66,13.88 -8.44,13.77 -17.48,27.21 -25.87,41 -9.43,15.48 -19.91,30.28 -29.05,45.98 l -7.06,12.16 10.05,9.81 c 22.13,21.61 45.86,41.55 70.99,59.56 l 12,8.59 85.13,-79.16 c 5.79,3.53 11.64,6.93 17.57,10.21 l -24.09,114.31 13.22,5.97 c 28.3,12.78 57.57,23.33 87.49,31.62 l 15.23,4.22 6.19,-14.54 c 13,-30.56 31.01,-59.57 47,-88.97 5.51,1.07 11.03,2.04 16.56,2.91 2.72,19.49 4.88,38.95 6.73,58.59 1.34,14.34 2.37,29.82 5.57,43.85 l 2.95,12.91 13.19,1.06 c 16.34,1.31 32.74,1.98 49.13,1.98 15.54,0 31.07,-0.58 46.56,-1.76 l 14.42,-1.1 16.68,-115.54 c 5.5,-0.88 11,-1.85 16.48,-2.91 l 52.27,103.71 14.23,-3.89 c 30.83,-8.43 60.99,-19.27 90.1,-32.47 l 13.13,-5.95 -23.59,-114.64 c 3.7,-2.07 7.38,-4.18 11.02,-6.34 l 90.11,76.26 11.42,-8.15 c 25.25,-18.03 49.1,-38 71.33,-59.63 l 10.34,-10.07 -61.31,-99.91 c 3.68,-4.22 7.28,-8.51 10.82,-12.86 32.28,12.51 63.28,29.17 96.38,39.41 l 12.65,3.91 7.52,-10.88 c 17.91,-25.92 33.83,-53.2 47.51,-81.57 l 6.43,-13.34 -11.83,-8.9 c -14.83,-11.17 -30.14,-21.64 -45.02,-32.72 -12.55,-9.35 -23.94,-19.44 -36.62,-28.21 2.35,-6.01 4.57,-12.07 6.67,-18.16 l 117.61,3.67 3.59,-13.99 c 7.71,-29.9 13.08,-60.39 16.14,-91.13 l 1.29,-12.94 -11.86,-5.31 c -31.59,-14.14 -67.88,-18.93 -100.01,-30.944 0.08,-3.527 0.12,-7.047 0.12,-10.574 0,-3.129 -0.04,-6.266 -0.1,-9.395 29.92,-13.172 69.08,-17.797 99.79,-30.39 l 12.36,-5.067 -1.24,-13.301 c -2.88,-30.851 -8.08,-61.464 -15.63,-91.515 l -3.7,-14.723 -15.13,1.129 c -26.17,1.938 -52.57,1.07 -78.73,2.992 -6.51,0.477 -15.35,1.758 -23.38,2.41 -2.03,-6.039 -4.18,-12.039 -6.44,-17.996 l 93.49,-72.484 -6.22,-13.109 c -13.38,-28.2 -28.92,-55.368 -46.48,-81.176 l -7.47,-10.985 -12.7,3.868 c -32.93,10.027 -65.11,29.972 -97.03,40.496 -4.24,-5.289 -8.59,-10.493 -13.04,-15.598 16.67,-30.477 41.59,-57.227 57.04,-88.988 l 5.68,-11.664 -9.24,-9.094 c -22.2,-21.844 -46.06,-41.981 -71.34,-60.184 l -11.78,-8.5 -10.82,9.715 c -24.75,22.246 -50.39,49.485 -77.36,69.777 -5.09,-3.074 -10.23,-6.05 -15.44,-8.937 l 24.23,-116.574 -13.16,-5.965 c -28.08,-12.719 -57.13,-23.281 -86.81,-31.566 l -14.48,-4.04 -51.76,105.918 c -6.87,-1.378 -13.77,-2.605 -20.69,-3.687 l -17.73,-117.875 -14.38,-1.047 c -14.94,-1.09 -29.91,-1.648 -44.89,-1.648 -15.41,0 -30.84,0.574 -46.2,1.734 l -14.23,1.066 -18.76,118.133 c -5.43,0.875 -10.85,1.84 -16.25,2.895 l -52,-105.977 -14.4,3.969 c -30.57,8.418 -60.48,19.219 -89.35,32.34 l -12.93,5.875 22.57,117.492 c -5.37,3.008 -10.69,6.117 -15.94,9.332 l -86.88,-80.176 -11.97,8.664 c -24.53,17.77 -47.73,37.36 -69.35,58.574 l -9.7,9.508 6.46,11.953 c 16.17,29.899 36.27,60.485 55.82,89.153 -4.2,4.824 -8.31,9.73 -12.33,14.715 l -110.505,-43.383 -8.09,11.961 c -16.98,25.101 -32.055,51.468 -45.094,78.816 l -6.277,13.156 93.547,72.086 c -2.285,5.95 -4.457,11.942 -6.512,17.973 l -117.769,-4.699 -3.575,14.207 C 839.25,868.176 834.02,899 831.148,930.051 l -1.23,13.285 12.344,5.062 c 31.679,13.012 68.191,18.176 99.769,31.211 -0.054,2.711 -0.074,5.434 -0.074,8.153 0,3.535 0.035,7.066 0.117,10.593 -31.652,12.635 -67.972,18.265 -99.523,31.555 l -12.285,5.17 1.336,13.27 c 3.101,30.73 8.535,61.21 16.289,91.11 l 3.632,14.02 117.415,-4.22 c 1.957,5.65 4.007,11.26 6.167,16.83 -23.882,22.36 -55.96,43.98 -80.832,64.07 l -11.164,9.02 6.274,12.91 c 13.515,27.8 29.164,54.55 46.758,79.97 l 7.64,11.05 12.77,-4.15 c 32.933,-10.71 63.339,-27.97 95.429,-40.21 z m -471.46,-90.17 c -44.11,0 -87.106,-10.86 -113.368,-48.73 -31.117,-44.89 -35.879,-122.81 -35.879,-175.526 0,-43.84 4.278,-111.074 33.43,-146.683 26.832,-32.778 76.195,-39.278 115.817,-39.278 H 833.898 V 643.582 H 573.555 c -42.2,0 -90.621,2.277 -131.274,14.356 -33.984,10.097 -64.633,27.32 -92.238,49.417 -38.559,30.875 -66.195,70.278 -84.18,116.243 -20.586,52.625 -27.351,110.715 -27.351,166.894 0,95.858 15.996,205.338 83.035,278.978 65.371,71.81 162.762,91.99 256.121,91.99 h 256.23 v -152.88 z m 3124.87,-325.322 197.75,478.202 h 191.73 L 3794.91,643.582 H 3622.96 L 3310,1361.46 h 202.41 z"
         clip-rule="evenodd"
         id="path4096" />
    </clipPath>
    <clipPath
       clipPathUnits="userSpaceOnUse"
       id="clipPath4638">
      <path
         d="m 1436.55,895.156 c -49.55,0 -89.73,40.172 -89.73,89.727 0,49.557 40.18,89.727 89.73,89.727 49.56,0 89.73,-40.17 89.73,-89.727 0,-49.555 -40.17,-89.727 -89.73,-89.727 z"
         clip-rule="evenodd"
         id="path4636" />
    </clipPath>
    <clipPath
       clipPathUnits="userSpaceOnUse"
       id="clipPath7745">
      <path
         d="M 0,230.95 H 792 V 0 H 0 Z"
         id="path7743" />
    </clipPath>
  </defs>
  <g
     id="layer1"
     transform="matrix(5.9783236,0,0,5.9783236,-17.623128,-34.417458)">
    <g
       id="g3566"
       transform="matrix(0.00962591,0,0,-0.00962591,-0.2160738,35.999686)">
      <g
         id="g7741"
         clip-path="url(#clipPath7745)"
         transform="matrix(7.4025336,0,0,7.4025336,-207.60961,137.65133)">
        <path
           d="m 438.52496,475.65391 h 19.80339 V 413.7684 h 54.45924 l 29.70505,61.88551 H 609.329 L 566.00912,381.58793 609.329,288.75964 h -68.07406 l -28.46735,61.88553 H 458.32835 V 288.75964 H 396.44282 V 455.85055 H 375.40173 V 392.72732 H 252.8684 v 63.12323 H 15.228022 v -21.04108 h 82.92659 V 307.3253 H 119.19567 V 434.80947 H 230.58961 V 307.3253 h 22.27879 v 64.36094 h 122.53333 v -82.9266 h -19.80335 v 61.88553 H 272.67179 V 288.75964 H 210.78626 V 412.53069 H 138.99907 V 288.75964 H 77.113542 V 412.53069 H -5.8130583 v 63.12322 H 272.67179 V 413.7684 h 82.92659 v 63.12323 h 60.64779 V 308.56302 h 22.27879 v 63.12322 h 86.63972 l 28.46735,-64.36094 h 22.27879 l -32.18049,74.26263 33.41818,74.26262 h -22.27878 l -28.46732,-63.12323 h -87.87745 z"
           style="fill:#da2229;fill-opacity:1;fill-rule:evenodd;stroke:none;stroke-width:4.95083"
           id="path8259" />
      </g>
      <path
         d="m 3768.6984,1953.096 h 146.5953 V 1494.9864 H 4318.43 l 219.8926,458.1096 h 494.7585 L 4712.4042,1256.7694 5033.0811,569.60482 H 4529.1605 L 4318.43,1027.7146 H 3915.2937 V 569.60482 H 3457.184 V 1806.5009 h -155.7574 v -467.2718 h -907.0571 v 467.2718 H 635.22855 V 1650.7437 H 1249.0955 V 707.03775 h 155.7572 V 1650.7437 H 2229.45 V 707.03775 h 164.9195 v 476.43405 h 907.0571 V 569.60482 h -146.595 V 1027.7146 H 2540.9648 V 569.60482 H 2082.855 V 1485.8242 H 1551.4479 V 569.60482 H 1093.3382 V 1485.8242 H 479.47125 V 1953.096 H 2540.9648 v -458.1096 h 613.8668 v 467.2718 H 3603.779 V 716.19995 h 164.9194 v 467.27185 h 641.3535 l 210.7305,-476.43405 h 164.9195 l -238.2172,549.73165 247.3793,549.7315 h -164.9195 l -210.7303,-467.2718 h -650.5158 z"
         style="fill:#da2229;fill-opacity:1;fill-rule:evenodd;stroke:none;stroke-width:36.6487"
         id="path8275" />
    </g>
  </g>
</svg>
