<?xml version="1.0" encoding="UTF-8" standalone="no"?>
<svg
   width="100%"
   height="100%"
   viewBox="0 0 1355 534"
   version="1.1"
   xml:space="preserve"
   style="fill-rule:evenodd;clip-rule:evenodd;stroke-linecap:round;stroke-linejoin:round;stroke-miterlimit:2;"
   id="svg7371"
   sodipodi:docname="Weston Forest - Colour.svg"
   inkscape:version="1.2.2 (732a01da63, 2022-12-09)"
   xmlns:inkscape="http://www.inkscape.org/namespaces/inkscape"
   xmlns:sodipodi="http://sodipodi.sourceforge.net/DTD/sodipodi-0.dtd"
   xmlns="http://www.w3.org/2000/svg"
   xmlns:svg="http://www.w3.org/2000/svg"><defs
   id="defs7375">
        
        
        
        
        
        
        
        
        
        
        
        
        
        
        
    </defs><sodipodi:namedview
   id="namedview7373"
   pagecolor="#ffffff"
   bordercolor="#000000"
   borderopacity="0.25"
   inkscape:showpageshadow="2"
   inkscape:pageopacity="0.0"
   inkscape:pagecheckerboard="0"
   inkscape:deskcolor="#d1d1d1"
   showgrid="false"
   inkscape:zoom="0.15785963"
   inkscape:cx="864.69225"
   inkscape:cy="126.69483"
   inkscape:current-layer="svg7371" />
    <g
   id="g7625"><g
     id="g7522"><path
       d="m 451.70869,110.04592 h 31.97503 l 28.09169,91.84174 30.41669,-92.22924 h 25.58335 l 30.4167,92.22924 28.10002,-91.84174 h 31.19586 l -46.31671,136.60011 h -25.95835 l -30.62086,-88.74174 -30.60836,88.74174 h -25.96252 z"
       style="fill:#0e6b38;fill-rule:nonzero;stroke-width:4.16667"
       id="path7343" /><path
       d="m 679.57554,110.04592 h 102.30842 v 26.54586 H 709.2214 v 27.50835 h 63.94172 v 26.54586 H 709.2214 v 28.48335 h 73.62506 V 245.6752 H 679.57554 Z"
       style="fill:#0e6b38;fill-rule:nonzero;stroke-width:4.16667"
       id="path7345" /><path
       d="m 805.95064,225.91268 17.63335,-21.12085 c 12.20835,10.07501 24.99586,16.47501 40.50003,16.47501 12.20835,0 19.56669,-4.84583 19.56669,-12.79584 v -0.3875 c 0,-7.55417 -4.65001,-11.42501 -27.31669,-17.24585 -27.32502,-6.975 -44.95837,-14.52918 -44.95837,-41.46253 v -0.38333 c 0,-24.60836 19.76251,-40.88337 47.47504,-40.88337 19.76251,0 36.62503,6.19584 50.37504,17.24585 l -15.49585,22.47085 c -12.01667,-8.32501 -23.83752,-13.36668 -35.26669,-13.36668 -11.43335,0 -17.43752,5.23334 -17.43752,11.81668 v 0.39166 c 0,8.91251 5.80834,11.81668 29.25419,17.82502 27.51669,7.17084 43.02087,17.04585 43.02087,40.6917 v 0.3875 c 0,26.92919 -20.54168,42.03753 -49.79587,42.03753 -20.54169,0 -41.2792,-7.16667 -57.55422,-21.69585 z"
       style="fill:#0e6b38;fill-rule:nonzero;stroke-width:4.16667"
       id="path7347" /><path
       d="m 969.40494,137.55428 h -41.27086 v -27.50836 h 112.37922 v 27.50836 H 999.24663 V 245.6752 h -29.84169 z"
       style="fill:#0e6b38;fill-rule:nonzero;stroke-width:4.16667"
       id="path7349" /><path
       d="m 1053.0258,178.24598 v -0.3875 c 0,-38.55837 30.4209,-70.13756 72.2668,-70.13756 41.8583,0 71.8917,31.19169 71.8917,69.75422 v 0.38334 c 0,38.56253 -30.4209,70.14589 -72.2751,70.14589 -41.8583,0 -71.8834,-31.20003 -71.8834,-69.75839 z m 112.9585,0 v -0.3875 c 0,-23.25002 -17.0459,-42.62504 -41.0751,-42.62504 -24.025,0 -40.6917,18.98752 -40.6917,42.2417 v 0.38334 c 0,23.25001 17.0542,42.6292 41.0751,42.6292 24.0292,0 40.6917,-18.99169 40.6917,-42.2417 z"
       style="fill:#0e6b38;fill-rule:nonzero;stroke-width:4.16667"
       id="path7351" /><path
       d="m 1222.2093,110.04592 h 27.5084 l 63.5584,83.5084 v -83.5084 h 29.4541 V 245.6752 h -25.3833 l -65.6834,-86.22091 v 86.22091 h -29.4542 z"
       style="fill:#0e6b38;fill-rule:nonzero;stroke-width:4.16667"
       id="path7353" /><path
       d="m 551.36294,293.1544 h 103.27092 v 27.12502 h -73.42923 v 28.86669 h 64.71255 v 27.13336 h -64.71255 v 52.50421 h -29.84169 z"
       style="fill:#0e6b38;fill-rule:nonzero;stroke-width:4.16667"
       id="path7355" /><path
       d="m 673.19221,361.35446 v -0.3875 c 0,-38.55837 30.42085,-70.13339 72.27505,-70.13339 41.84587,0 71.87923,31.18752 71.87923,69.75005 v 0.38334 c 0,38.56669 -30.41669,70.14588 -72.26256,70.14588 -41.85837,0 -71.89172,-31.19585 -71.89172,-69.75838 z m 112.96675,0 v -0.3875 c 0,-23.25002 -17.05418,-42.62504 -41.07503,-42.62504 -24.03335,0 -40.6917,18.99168 -40.6917,42.2417 v 0.38334 c 0,23.25418 17.04585,42.6292 41.07503,42.6292 24.02086,0 40.6917,-18.99169 40.6917,-42.2417 z"
       style="fill:#0e6b38;fill-rule:nonzero;stroke-width:4.16667"
       id="path7357" /><path
       d="m 841.53817,293.1544 h 62.00422 c 17.24585,0 30.61252,4.84584 39.52503,13.75835 7.55417,7.55417 11.62918,18.21251 11.62918,31.00002 v 0.38333 c 0,21.90002 -11.82085,35.6542 -29.06669,42.05004 l 33.13336,48.43754 h -34.8792 l -29.06252,-43.40004 h -23.44169 v 43.40004 h -29.84169 z m 60.06672,65.87922 c 14.53334,0 22.86668,-7.75001 22.86668,-19.18751 v -0.38334 c 0,-12.78751 -8.9125,-19.37501 -23.45418,-19.37501 h -29.63753 v 38.94586 z"
       style="fill:#0e6b38;fill-rule:nonzero;stroke-width:4.16667"
       id="path7359" /><path
       d="m 984.60912,293.1544 h 102.30428 v 26.54586 h -72.6543 v 27.50835 h 63.9376 v 26.54586 h -63.9376 v 28.48335 h 73.6251 v 26.54586 H 984.60912 Z"
       style="fill:#0e6b38;fill-rule:nonzero;stroke-width:4.16667"
       id="path7361" /><path
       d="m 1107.3801,409.02116 17.6333,-21.12085 c 12.2083,10.07918 24.9917,16.46668 40.4959,16.46668 12.2083,0 19.5708,-4.83334 19.5708,-12.78751 v -0.38333 c 0,-7.55418 -4.6542,-11.42918 -27.3167,-17.24585 -27.325,-6.97917 -44.9583,-14.53335 -44.9583,-41.46253 v -0.3875 c 0,-24.60836 19.7625,-40.88337 47.4708,-40.88337 19.7625,0 36.6251,6.19584 50.3751,17.24168 l -15.4917,22.47502 c -12.0167,-8.33334 -23.8375,-13.36251 -35.2667,-13.36251 -11.4375,0 -17.4417,5.22917 -17.4417,11.81251 v 0.3875 c 0,8.9125 5.8125,11.82084 29.2542,17.82501 27.5209,7.16667 43.0209,17.05418 43.0209,40.6917 v 0.39167 c 0,26.93335 -20.5417,42.0417 -49.7959,42.0417 -20.5417,0 -41.275,-7.17084 -57.55,-21.70002 z"
       style="fill:#0e6b38;fill-rule:nonzero;stroke-width:4.16667"
       id="path7363" /><path
       d="m 1271.6177,320.66276 h -41.275 V 293.1544 h 112.3875 v 27.50836 h -41.2708 v 108.12092 h -29.8417 z"
       style="fill:#0e6b38;fill-rule:nonzero;stroke-width:4.16667"
       id="path7365" /><path
       d="M 464.64621,460.50454 245.82103,334.6961 90.937573,423.74617 115.47093,356.33362 245.82103,281.07522 440.18369,393.28365 364.92529,186.52932 245.82103,117.76676 190.72932,149.57929 215.41684,81.729232 245.82103,64.179218 340.23777,118.68343 314.95442,49.229206 245.82103,9.3208408 176.69597,49.229206 101.44175,255.98354 l 144.37928,-83.3584 80.3834,46.4042 24.68752,67.85006 L 245.82103,226.21685 76.741728,323.83776 1.7750014,529.80459 245.79603,389.51698 l 0.025,0.0167 0.0333,-0.0167 244.02103,140.28761 z"
       style="fill:#a6bd39;fill-rule:nonzero;stroke-width:4.16667"
       id="path7367" /></g></g>
</svg>
